<svg xmlns:xlink="http://www.w3.org/1999/xlink" fill="none" viewBox="0 0 148 24" xmlns="http://www.w3.org/2000/svg" height="24" width="148"><path d="M10.7133 20.3082C10.7133 19.6779 10.7133 19.3003 10.7133 18.9228C10.7133 13.407 10.712 7.89129 10.712 2.37618C10.712 2.071 10.7179 1.76581 10.7126 1.46126C10.7034 0.888964 10.8659 0.397179 11.4487 0.128195C12.0301 -0.139541 12.5439 0.0426943 13.0142 0.39281C14.4251 1.44378 15.8341 2.49725 17.2424 3.55134C19.1973 5.01484 21.1483 6.48333 23.1078 7.94059C23.632 8.33065 24.1142 8.73194 23.9761 9.44777C23.8353 10.1786 23.2051 10.3639 22.5724 10.5287C20.5846 11.0467 18.5981 11.5716 16.6057 12.0715C15.7012 12.2986 15.0408 11.956 14.8441 11.2171C14.6639 10.5412 15.0763 9.96764 15.9591 9.72113C17.0122 9.42718 18.0732 9.16069 19.1295 8.8761C19.3249 8.82368 19.5117 8.74255 19.8459 8.62397C17.6719 6.99883 15.6032 5.45233 13.3812 3.79162C13.3437 4.26468 13.2983 4.57423 13.2983 4.88378C13.2937 10.5262 13.2951 16.1693 13.2944 21.8117C13.2944 22.0407 13.2905 22.2691 13.2937 22.4982C13.3016 23.0942 13.1563 23.6353 12.5274 23.8899C11.9282 24.1327 11.3901 23.9504 10.8896 23.5729C8.68995 21.9122 6.48047 20.2633 4.27363 18.6107C3.09686 17.7295 1.92141 16.8458 0.738069 15.972C0.242762 15.6063 -0.105203 15.1844 0.0289837 14.5485C0.156593 13.9419 0.619669 13.6935 1.20575 13.5449C3.1975 13.0394 5.18268 12.5127 7.17246 12.0009C7.40268 11.9416 7.64474 11.898 7.88286 11.893C8.56629 11.8799 9.00634 12.2044 9.14842 12.836C9.29116 13.4707 9.02015 13.9693 8.39 14.1815C7.58488 14.453 6.74424 14.6296 5.92136 14.8537C5.38725 14.9991 4.85642 15.1564 4.13418 15.3629C6.34958 17.028 8.42947 18.5907 10.7146 20.3082H10.7133Z" fill="black"></path><path d="M39.3509 14.5219C38.2977 14.5219 37.3278 14.3279 36.5241 13.94C36.2746 14.3557 35.9698 14.8822 35.9698 15.3533C35.9698 16.0462 36.3301 16.4065 37.5772 16.4065H41.9282C44.6164 16.4065 46.0853 17.4873 46.0853 19.5104C46.0853 22.06 43.591 24 38.6857 24C34.9167 24 32.7273 22.8083 32.7273 21.1178C32.7273 19.843 33.9467 19.1501 35.2492 18.8453C34.2793 18.5681 33.6418 17.9307 33.6418 16.9053C33.6418 15.6859 34.695 14.4942 35.9421 13.6351C34.5841 12.8037 33.7527 11.3903 33.7527 9.67206C33.7527 6.81755 36.0252 4.79446 39.3509 4.79446C40.21 4.79446 40.986 4.93302 41.6788 5.18245L42.3439 1.93995L45.337 2.96536L42.8151 5.73672C44.1453 6.59584 44.9213 7.98152 44.9213 9.67206C44.9213 12.5266 42.6765 14.5219 39.3509 14.5219ZM39.3509 12.3048C40.8197 12.3048 41.9836 11.3626 41.9836 9.67206C41.9836 7.98152 40.8197 7.03926 39.3509 7.03926C37.882 7.03926 36.7181 7.98152 36.7181 9.67206C36.7181 11.3626 37.882 12.3048 39.3509 12.3048ZM38.8243 21.6721C41.7342 21.6721 43.2862 21.0346 43.2862 19.8984C43.2862 19.1778 42.7042 18.873 41.5125 18.873H35.8866C35.5818 19.1778 35.2492 19.6212 35.2492 20.0924C35.2492 21.0901 36.3578 21.6721 38.8243 21.6721Z" fill="black"></path><path d="M53.7587 18.8453C49.7402 18.8453 47.1074 16.0462 47.1074 11.8337C47.1074 7.59353 49.7402 4.79446 53.537 4.79446C57.5832 4.79446 59.828 7.48268 59.828 11.224C59.828 11.7229 59.7725 12.3048 59.7171 12.582H50.0728C50.2391 14.9931 51.6525 16.2956 53.7864 16.2956C56.1421 16.2956 57.1952 15.0762 57.694 13.94L59.6063 15.9353C58.5809 17.4873 56.7518 18.8453 53.7587 18.8453ZM53.537 7.28868C51.6247 7.28868 50.3499 8.39723 50.1005 10.5866H57.0289C56.8072 8.45266 55.5878 7.28868 53.537 7.28868Z" fill="black"></path><path d="M68.6678 18.8453C64.6493 18.8453 62.1273 16.0185 62.1273 11.8337C62.1273 7.62125 64.6493 4.79446 68.6678 4.79446C72.0488 4.79446 74.1828 6.7067 74.9033 9.25635L72.1042 10.642C71.7994 8.70208 70.8017 7.39954 68.7232 7.39954C66.5892 7.39954 65.2867 8.97921 65.2867 11.8337C65.2867 14.6605 66.5892 16.2402 68.7232 16.2402C70.8294 16.2402 71.7994 14.9376 72.1042 12.9977L74.9033 14.3834C74.1828 16.933 72.0488 18.8453 68.6678 18.8453Z" fill="black"></path><path d="M80.4034 18.5681H77.2995V0H80.4034V8.50808L80.2925 11.1132L82.5096 8.67437L86.1955 5.07159H89.9923L84.5327 10.3926L89.9923 18.5681H86.3618L82.4265 12.2494L80.4034 14.2448V18.5681Z" fill="black"></path><path d="M96.7293 18.8453C92.8494 18.8453 90.1889 16.0185 90.1889 11.8337C90.1889 7.62125 92.8494 4.79446 96.7293 4.79446C100.665 4.79446 103.325 7.62125 103.325 11.8337C103.325 16.0185 100.665 18.8453 96.7293 18.8453ZM96.757 16.2679C98.7801 16.2679 100.166 14.9376 100.166 11.8337C100.166 8.70208 98.7801 7.37182 96.757 7.37182C94.7616 7.37182 93.376 8.70208 93.376 11.8337C93.376 14.9376 94.7616 16.2679 96.757 16.2679Z" fill="black"></path><path d="M109.145 18.5681H106.042V0H109.145V18.5681Z" fill="black"></path><path d="M115.061 23.1963C113.121 23.1963 111.542 22.1986 110.794 21.1455L112.262 18.6513C112.983 19.6767 113.814 20.4527 115.061 20.4527C116.115 20.4527 116.78 19.9815 117.279 18.485L117.528 17.7367H115.616L111.154 5.07159H114.563L117.001 12.7206L117.971 16.3233L118.941 12.7206L121.352 5.07159H124.789L119.8 19.5104C118.83 22.2263 117.251 23.1963 115.061 23.1963Z" fill="black"></path><path d="M131.639 18.8453C128.757 18.8453 126.124 17.6813 125.099 15.5473L126.928 13.6074C127.676 14.9654 129.339 16.351 131.75 16.351C133.08 16.351 133.94 15.8799 133.94 14.9099C133.94 13.9122 132.914 13.5797 131.418 13.2194L129.616 12.776C127.482 12.2771 125.515 11.3349 125.515 8.86836C125.515 6.34642 127.538 4.82217 130.642 4.82217C133.524 4.82217 135.547 6.20785 136.378 7.7321L134.549 9.67206C133.607 8.17552 132.166 7.28868 130.42 7.28868C129.228 7.28868 128.425 7.78753 128.425 8.70208C128.425 9.67206 129.145 10.0323 130.974 10.5035L132.609 10.9192C135.63 11.6951 136.739 12.9145 136.739 14.8545C136.739 17.515 134.494 18.8453 131.639 18.8453Z" fill="black"></path><path d="M143.802 18.873C141.252 18.873 139.784 17.2656 139.784 14.8822V7.48268H137.677V5.07159H139.784V3.43649L142.887 1.46882V5.07159H147.017V7.48268H142.887V14.1339C142.887 15.6028 143.58 15.963 144.495 15.963C145.548 15.963 146.324 15.1039 146.712 14.3279L147.682 17.0993C147.1 17.9584 145.77 18.873 143.802 18.873Z" fill="black"></path></svg>