<svg width="402" height="236" viewBox="0 0 402 236" fill="none" xmlns="http://www.w3.org/2000/svg">
<g clip-path="url(#clip0_165_2)">
<mask id="mask0_165_2" style="mask-type:luminance" maskUnits="userSpaceOnUse" x="0" y="0" width="402" height="236">
<path d="M402 0H0V236H402V0Z" fill="white"/>
</mask>
<g mask="url(#mask0_165_2)">
<path d="M6.56641 63.2675L42.7264 99.4275L57.1564 47.9375L6.56641 63.2675Z" fill="url(#paint0_linear_165_2)"/>
<path d="M123.418 235.03L0.988281 176.85L80.7983 161.23L123.418 235.03Z" fill="url(#paint1_linear_165_2)"/>
<path d="M402 30.1402L342.691 177L1 176.85L60.3095 30L402 30.1402Z" fill="url(#paint2_radial_165_2)"/>
<path d="M6.56641 63.2691H249.656L7.46641 61.2891L6.56641 63.2691Z" fill="url(#paint3_linear_165_2)"/>
<path d="M249.656 63.2688H6.56641L35.1164 0.71875H278.206L249.656 63.2688Z" fill="#C70000"/>
<path d="M247.875 60.7595L11.8555 60.4195L39.6155 2.76953L274.365 3.10954L247.875 60.7595Z" fill="url(#paint4_linear_165_2)"/>
<path d="M271.97 190.508H134.52L130 222.308H192.36L192.14 222.558L203.64 235.358L215.13 222.558L214.91 222.308H267.46L271.97 190.508Z" fill="url(#paint5_radial_165_2)"/>
<path d="M172.873 207.219C172.816 207.248 172.816 207.276 172.873 207.305C173.788 207.777 174.245 208.562 174.245 209.659C174.245 210.593 173.928 211.3 173.292 211.782C172.657 212.253 171.824 212.489 170.794 212.489H167.054C167.006 212.489 166.963 212.475 166.924 212.446C166.895 212.407 166.881 212.364 166.881 212.316V202.555C166.881 202.506 166.895 202.468 166.924 202.439C166.963 202.401 167.006 202.381 167.054 202.381H170.679C172.96 202.381 174.101 203.305 174.101 205.154C174.101 206.116 173.692 206.805 172.873 207.219ZM168.989 204.129C168.941 204.129 168.917 204.153 168.917 204.201V206.453C168.917 206.501 168.941 206.526 168.989 206.526H170.679C171.131 206.526 171.482 206.42 171.733 206.208C171.983 205.996 172.108 205.707 172.108 205.341C172.108 204.966 171.983 204.672 171.733 204.461C171.482 204.239 171.131 204.129 170.679 204.129H168.989ZM170.794 210.728C171.237 210.728 171.583 210.617 171.834 210.395C172.084 210.164 172.209 209.852 172.209 209.457C172.209 209.062 172.084 208.754 171.834 208.533C171.583 208.302 171.232 208.186 170.78 208.186H168.989C168.941 208.186 168.917 208.21 168.917 208.258V210.655C168.917 210.704 168.941 210.728 168.989 210.728H170.794ZM179.417 212.648C178.666 212.648 178.002 212.494 177.424 212.186C176.856 211.878 176.413 211.45 176.096 210.901C175.778 210.343 175.619 209.702 175.619 208.98V205.89C175.619 205.178 175.778 204.547 176.096 203.999C176.413 203.45 176.856 203.026 177.424 202.728C178.002 202.42 178.666 202.266 179.417 202.266C180.177 202.266 180.842 202.42 181.41 202.728C181.987 203.026 182.435 203.45 182.752 203.999C183.07 204.547 183.229 205.178 183.229 205.89V208.98C183.229 209.702 183.07 210.343 182.752 210.901C182.435 211.459 181.987 211.892 181.41 212.2C180.842 212.499 180.177 212.648 179.417 212.648ZM179.417 210.901C179.946 210.901 180.375 210.732 180.702 210.395C181.029 210.059 181.193 209.611 181.193 209.053V205.876C181.193 205.317 181.029 204.87 180.702 204.533C180.384 204.186 179.956 204.013 179.417 204.013C178.887 204.013 178.459 204.186 178.132 204.533C177.814 204.87 177.655 205.317 177.655 205.876V209.053C177.655 209.611 177.814 210.059 178.132 210.395C178.459 210.732 178.887 210.901 179.417 210.901ZM188.385 212.648C187.635 212.648 186.97 212.494 186.393 212.186C185.825 211.878 185.382 211.45 185.064 210.901C184.747 210.343 184.588 209.702 184.588 208.98V205.89C184.588 205.178 184.747 204.547 185.064 203.999C185.382 203.45 185.825 203.026 186.393 202.728C186.97 202.42 187.635 202.266 188.385 202.266C189.146 202.266 189.81 202.42 190.378 202.728C190.956 203.026 191.403 203.45 191.721 203.999C192.039 204.547 192.198 205.178 192.198 205.89V208.98C192.198 209.702 192.039 210.343 191.721 210.901C191.403 211.459 190.956 211.892 190.378 212.2C189.81 212.499 189.146 212.648 188.385 212.648ZM188.385 210.901C188.915 210.901 189.343 210.732 189.671 210.395C189.998 210.059 190.162 209.611 190.162 209.053V205.876C190.162 205.317 189.998 204.87 189.671 204.533C189.353 204.186 188.924 204.013 188.385 204.013C187.856 204.013 187.428 204.186 187.1 204.533C186.783 204.87 186.624 205.317 186.624 205.876V209.053C186.624 209.611 186.783 210.059 187.1 210.395C187.428 210.732 187.856 210.901 188.385 210.901ZM193.932 212.489C193.884 212.489 193.84 212.475 193.802 212.446C193.773 212.407 193.758 212.364 193.758 212.316V202.555C193.758 202.506 193.773 202.468 193.802 202.439C193.84 202.401 193.884 202.381 193.932 202.381H195.621C195.669 202.381 195.708 202.401 195.737 202.439C195.775 202.468 195.794 202.506 195.794 202.555V206.598C195.794 206.627 195.804 206.646 195.823 206.656C195.843 206.656 195.862 206.646 195.881 206.627L199.217 202.482C199.274 202.415 199.347 202.381 199.433 202.381H201.339C201.416 202.381 201.465 202.405 201.484 202.453C201.503 202.492 201.493 202.54 201.455 202.598L198.235 206.713C198.206 206.752 198.201 206.785 198.22 206.814L201.628 212.287C201.647 212.345 201.657 212.379 201.657 212.388C201.657 212.456 201.609 212.489 201.513 212.489H199.607C199.51 212.489 199.443 212.451 199.404 212.374L196.834 208.215C196.825 208.196 196.81 208.186 196.791 208.186C196.772 208.186 196.752 208.196 196.733 208.215L195.823 209.356C195.804 209.394 195.794 209.423 195.794 209.442V212.316C195.794 212.364 195.775 212.407 195.737 212.446C195.708 212.475 195.669 212.489 195.621 212.489H193.932ZM211.493 202.555C211.493 202.506 211.508 202.468 211.537 202.439C211.575 202.401 211.618 202.381 211.666 202.381H213.356C213.404 202.381 213.443 202.401 213.471 202.439C213.51 202.468 213.529 202.506 213.529 202.555V212.316C213.529 212.364 213.51 212.407 213.471 212.446C213.443 212.475 213.404 212.489 213.356 212.489H211.724C211.628 212.489 211.561 212.451 211.522 212.374L207.782 206.193C207.763 206.165 207.744 206.155 207.724 206.165C207.705 206.165 207.695 206.184 207.695 206.222L207.724 212.316C207.724 212.364 207.705 212.407 207.667 212.446C207.638 212.475 207.599 212.489 207.551 212.489H205.862C205.813 212.489 205.77 212.475 205.732 212.446C205.703 212.407 205.688 212.364 205.688 212.316V202.555C205.688 202.506 205.703 202.468 205.732 202.439C205.77 202.401 205.813 202.381 205.862 202.381H207.493C207.59 202.381 207.657 202.42 207.695 202.497L211.421 208.648C211.44 208.677 211.46 208.692 211.479 208.692C211.498 208.682 211.508 208.658 211.508 208.619L211.493 202.555ZM218.887 212.648C218.136 212.648 217.472 212.494 216.894 212.186C216.326 211.878 215.884 211.45 215.566 210.901C215.248 210.343 215.089 209.702 215.089 208.98V205.89C215.089 205.178 215.248 204.547 215.566 203.999C215.884 203.45 216.326 203.026 216.894 202.728C217.472 202.42 218.136 202.266 218.887 202.266C219.648 202.266 220.312 202.42 220.88 202.728C221.457 203.026 221.905 203.45 222.223 203.999C222.54 204.547 222.699 205.178 222.699 205.89V208.98C222.699 209.702 222.54 210.343 222.223 210.901C221.905 211.459 221.457 211.892 220.88 212.2C220.312 212.499 219.648 212.648 218.887 212.648ZM218.887 210.901C219.417 210.901 219.845 210.732 220.172 210.395C220.5 210.059 220.663 209.611 220.663 209.053V205.876C220.663 205.317 220.5 204.87 220.172 204.533C219.855 204.186 219.426 204.013 218.887 204.013C218.358 204.013 217.929 204.186 217.602 204.533C217.284 204.87 217.125 205.317 217.125 205.876V209.053C217.125 209.611 217.284 210.059 217.602 210.395C217.929 210.732 218.358 210.901 218.887 210.901ZM226.287 212.489C226.181 212.489 226.113 212.441 226.085 212.345L223.529 202.569L223.514 202.511C223.514 202.425 223.567 202.381 223.673 202.381H225.464C225.56 202.381 225.623 202.429 225.651 202.526L227.023 208.403C227.033 208.441 227.047 208.461 227.067 208.461C227.086 208.461 227.1 208.441 227.11 208.403L228.438 202.54C228.467 202.434 228.53 202.381 228.626 202.381H230.373C230.479 202.381 230.547 202.429 230.575 202.526L232.019 208.403C232.029 208.432 232.044 208.451 232.063 208.461C232.082 208.461 232.096 208.441 232.106 208.403L233.435 202.54C233.463 202.434 233.526 202.381 233.622 202.381H235.326C235.461 202.381 235.514 202.444 235.485 202.569L233.117 212.345C233.088 212.441 233.021 212.489 232.915 212.489H231.196C231.1 212.489 231.038 212.441 231.009 212.345L229.536 206.092C229.526 206.054 229.512 206.035 229.492 206.035C229.473 206.035 229.459 206.054 229.449 206.092L228.077 212.33C228.058 212.436 227.996 212.489 227.89 212.489H226.287Z" fill="white"/>
<path d="M45.6922 43.0012C45.615 43.0012 45.5454 42.978 45.4836 42.9317C45.4373 42.8698 45.4141 42.8003 45.4141 42.723V27.0534C45.4141 26.9761 45.4373 26.9143 45.4836 26.8679C45.5454 26.8061 45.615 26.7752 45.6922 26.7752H48.4043C48.4816 26.7752 48.5434 26.8061 48.5897 26.8679C48.6516 26.9143 48.6825 26.9761 48.6825 27.0534V40.0805C48.6825 40.1578 48.7211 40.1964 48.7984 40.1964H56.3782C56.4555 40.1964 56.5173 40.2273 56.5637 40.2891C56.6255 40.3355 56.6564 40.3973 56.6564 40.4746V42.723C56.6564 42.8003 56.6255 42.8698 56.5637 42.9317C56.5173 42.978 56.4555 43.0012 56.3782 43.0012H45.6922ZM58.9574 43.0012C58.8801 43.0012 58.8106 42.978 58.7487 42.9317C58.7024 42.8698 58.6792 42.8003 58.6792 42.723V27.0534C58.6792 26.9761 58.7024 26.9143 58.7487 26.8679C58.8106 26.8061 58.8801 26.7752 58.9574 26.7752H61.6694C61.7467 26.7752 61.8085 26.8061 61.8549 26.8679C61.9167 26.9143 61.9476 26.9761 61.9476 27.0534V42.723C61.9476 42.8003 61.9167 42.8698 61.8549 42.9317C61.8085 42.978 61.7467 43.0012 61.6694 43.0012H58.9574ZM75.1995 26.9606C75.2767 26.837 75.3849 26.7752 75.524 26.7752H78.2361C78.3133 26.7752 78.3751 26.8061 78.4215 26.8679C78.4833 26.9143 78.5142 26.9761 78.5142 27.0534V42.723C78.5142 42.8003 78.4833 42.8698 78.4215 42.9317C78.3751 42.978 78.3133 43.0012 78.2361 43.0012H75.524C75.4467 43.0012 75.3772 42.978 75.3154 42.9317C75.269 42.8698 75.2458 42.8003 75.2458 42.723V32.5007C75.2458 32.4388 75.2304 32.4079 75.1995 32.4079C75.1686 32.4079 75.1377 32.4311 75.1068 32.4775L72.6497 36.3254C72.5724 36.449 72.4642 36.5108 72.3252 36.5108H70.9575C70.8185 36.5108 70.7103 36.449 70.633 36.3254L68.1759 32.4775C68.145 32.4311 68.1141 32.4157 68.0832 32.4311C68.0523 32.4311 68.0369 32.462 68.0369 32.5238V42.723C68.0369 42.8003 68.0059 42.8698 67.9441 42.9317C67.8978 42.978 67.836 43.0012 67.7587 43.0012H65.0466C64.9694 43.0012 64.8998 42.978 64.838 42.9317C64.7917 42.8698 64.7685 42.8003 64.7685 42.723V27.0534C64.7685 26.9761 64.7917 26.9143 64.838 26.8679C64.8998 26.8061 64.9694 26.7752 65.0466 26.7752H67.7587C67.8978 26.7752 68.0059 26.837 68.0832 26.9606L71.5602 32.3616C71.6066 32.4543 71.6529 32.4543 71.6993 32.3616L75.1995 26.9606ZM81.6167 43.0012C81.5394 43.0012 81.4699 42.978 81.4081 42.9317C81.3617 42.8698 81.3386 42.8003 81.3386 42.723V27.0534C81.3386 26.9761 81.3617 26.9143 81.4081 26.8679C81.4699 26.8061 81.5394 26.7752 81.6167 26.7752H84.3288C84.406 26.7752 84.4679 26.8061 84.5142 26.8679C84.576 26.9143 84.6069 26.9761 84.6069 27.0534V42.723C84.6069 42.8003 84.576 42.8698 84.5142 42.9317C84.4679 42.978 84.406 43.0012 84.3288 43.0012H81.6167ZM98.6238 26.7752C98.701 26.7752 98.7628 26.8061 98.8092 26.8679C98.871 26.9143 98.9019 26.9761 98.9019 27.0534V29.325C98.9019 29.4023 98.871 29.4718 98.8092 29.5336C98.7628 29.58 98.701 29.6032 98.6238 29.6032H94.4745C94.3973 29.6032 94.3586 29.6418 94.3586 29.7191V42.723C94.3586 42.8003 94.3277 42.8698 94.2659 42.9317C94.2196 42.978 94.1578 43.0012 94.0805 43.0012H91.3684C91.2912 43.0012 91.2216 42.978 91.1598 42.9317C91.1134 42.8698 91.0903 42.8003 91.0903 42.723V29.7191C91.0903 29.6418 91.0516 29.6032 90.9744 29.6032H86.941C86.8638 29.6032 86.7942 29.58 86.7324 29.5336C86.6861 29.4718 86.6629 29.4023 86.6629 29.325V27.0534C86.6629 26.9761 86.6861 26.9143 86.7324 26.8679C86.7942 26.8061 86.8638 26.7752 86.941 26.7752H98.6238ZM112.253 29.3018C112.253 29.3791 112.222 29.4486 112.16 29.5104C112.114 29.5568 112.052 29.58 111.974 29.58H104.371C104.294 29.58 104.256 29.6186 104.256 29.6959V33.2888C104.256 33.366 104.294 33.4047 104.371 33.4047H109.355C109.432 33.4047 109.494 33.4356 109.541 33.4974C109.602 33.5438 109.633 33.6056 109.633 33.6828V35.9313C109.633 36.0086 109.602 36.0781 109.541 36.1399C109.494 36.1863 109.432 36.2095 109.355 36.2095H104.371C104.294 36.2095 104.256 36.2481 104.256 36.3254V40.0805C104.256 40.1578 104.294 40.1964 104.371 40.1964H111.974C112.052 40.1964 112.114 40.2273 112.16 40.2891C112.222 40.3355 112.253 40.3973 112.253 40.4746V42.723C112.253 42.8003 112.222 42.8698 112.16 42.9317C112.114 42.978 112.052 43.0012 111.974 43.0012H101.265C101.188 43.0012 101.118 42.978 101.057 42.9317C101.01 42.8698 100.987 42.8003 100.987 42.723V27.0534C100.987 26.9761 101.01 26.9143 101.057 26.8679C101.118 26.8061 101.188 26.7752 101.265 26.7752H111.974C112.052 26.7752 112.114 26.8061 112.16 26.8679C112.222 26.9143 112.253 26.9761 112.253 27.0534V29.3018ZM114.802 43.0012C114.725 43.0012 114.655 42.978 114.593 42.9317C114.547 42.8698 114.524 42.8003 114.524 42.723V27.0534C114.524 26.9761 114.547 26.9143 114.593 26.8679C114.655 26.8061 114.725 26.7752 114.802 26.7752H120.597C121.756 26.7752 122.768 26.9838 123.634 27.4011C124.514 27.8028 125.194 28.3746 125.673 29.1164C126.153 29.8581 126.392 30.7158 126.392 31.6894V38.087C126.392 39.0606 126.153 39.9183 125.673 40.66C125.194 41.4018 124.514 41.9813 123.634 42.3985C122.768 42.8003 121.756 43.0012 120.597 43.0012H114.802ZM117.792 40.0805C117.792 40.1578 117.831 40.1964 117.908 40.1964H120.713C121.424 40.1964 121.996 39.9569 122.428 39.4778C122.876 38.9988 123.108 38.3575 123.124 37.5539V32.2225C123.124 31.4189 122.9 30.7776 122.451 30.2986C122.019 29.8195 121.432 29.58 120.69 29.58H117.908C117.831 29.58 117.792 29.6186 117.792 29.6959V40.0805ZM144.689 26.7752C144.767 26.7752 144.828 26.8061 144.875 26.8679C144.937 26.9143 144.968 26.9761 144.968 27.0534V29.325C144.968 29.4023 144.937 29.4718 144.875 29.5336C144.828 29.58 144.767 29.6032 144.689 29.6032H140.54C140.463 29.6032 140.424 29.6418 140.424 29.7191V42.723C140.424 42.8003 140.393 42.8698 140.332 42.9317C140.285 42.978 140.223 43.0012 140.146 43.0012H137.434C137.357 43.0012 137.287 42.978 137.225 42.9317C137.179 42.8698 137.156 42.8003 137.156 42.723V29.7191C137.156 29.6418 137.117 29.6032 137.04 29.6032H133.007C132.929 29.6032 132.86 29.58 132.798 29.5336C132.752 29.4718 132.729 29.4023 132.729 29.325V27.0534C132.729 26.9761 132.752 26.9143 132.798 26.8679C132.86 26.8061 132.929 26.7752 133.007 26.7752H144.689ZM147.331 43.0012C147.254 43.0012 147.184 42.978 147.122 42.9317C147.076 42.8698 147.053 42.8003 147.053 42.723V27.0534C147.053 26.9761 147.076 26.9143 147.122 26.8679C147.184 26.8061 147.254 26.7752 147.331 26.7752H150.043C150.12 26.7752 150.182 26.8061 150.229 26.8679C150.29 26.9143 150.321 26.9761 150.321 27.0534V42.723C150.321 42.8003 150.29 42.8698 150.229 42.9317C150.182 42.978 150.12 43.0012 150.043 43.0012H147.331ZM163.573 26.9606C163.65 26.837 163.759 26.7752 163.898 26.7752H166.61C166.687 26.7752 166.749 26.8061 166.795 26.8679C166.857 26.9143 166.888 26.9761 166.888 27.0534V42.723C166.888 42.8003 166.857 42.8698 166.795 42.9317C166.749 42.978 166.687 43.0012 166.61 43.0012H163.898C163.82 43.0012 163.751 42.978 163.689 42.9317C163.643 42.8698 163.619 42.8003 163.619 42.723V32.5007C163.619 32.4388 163.604 32.4079 163.573 32.4079C163.542 32.4079 163.511 32.4311 163.48 32.4775L161.023 36.3254C160.946 36.449 160.838 36.5108 160.699 36.5108H159.331C159.192 36.5108 159.084 36.449 159.007 36.3254L156.55 32.4775C156.519 32.4311 156.488 32.4157 156.457 32.4311C156.426 32.4311 156.411 32.462 156.411 32.5238V42.723C156.411 42.8003 156.38 42.8698 156.318 42.9317C156.271 42.978 156.21 43.0012 156.132 43.0012H153.42C153.343 43.0012 153.273 42.978 153.212 42.9317C153.165 42.8698 153.142 42.8003 153.142 42.723V27.0534C153.142 26.9761 153.165 26.9143 153.212 26.8679C153.273 26.8061 153.343 26.7752 153.42 26.7752H156.132C156.271 26.7752 156.38 26.837 156.457 26.9606L159.934 32.3616C159.98 32.4543 160.027 32.4543 160.073 32.3616L163.573 26.9606ZM180.978 29.3018C180.978 29.3791 180.947 29.4486 180.885 29.5104C180.839 29.5568 180.777 29.58 180.7 29.58H173.096C173.019 29.58 172.981 29.6186 172.981 29.6959V33.2888C172.981 33.366 173.019 33.4047 173.096 33.4047H178.08C178.157 33.4047 178.219 33.4356 178.266 33.4974C178.327 33.5438 178.358 33.6056 178.358 33.6828V35.9313C178.358 36.0086 178.327 36.0781 178.266 36.1399C178.219 36.1863 178.157 36.2095 178.08 36.2095H173.096C173.019 36.2095 172.981 36.2481 172.981 36.3254V40.0805C172.981 40.1578 173.019 40.1964 173.096 40.1964H180.7C180.777 40.1964 180.839 40.2273 180.885 40.2891C180.947 40.3355 180.978 40.3973 180.978 40.4746V42.723C180.978 42.8003 180.947 42.8698 180.885 42.9317C180.839 42.978 180.777 43.0012 180.7 43.0012H169.99C169.913 43.0012 169.844 42.978 169.782 42.9317C169.735 42.8698 169.712 42.8003 169.712 42.723V27.0534C169.712 26.9761 169.735 26.9143 169.782 26.8679C169.844 26.8061 169.913 26.7752 169.99 26.7752H180.7C180.777 26.7752 180.839 26.8061 180.885 26.8679C180.947 26.9143 180.978 26.9761 180.978 27.0534V29.3018ZM193.661 43.2562C192.456 43.2562 191.39 43.0089 190.462 42.5144C189.551 42.0199 188.84 41.3322 188.33 40.4514C187.82 39.5551 187.565 38.5275 187.565 37.3685V32.4079C187.565 31.2644 187.82 30.2522 188.33 29.3714C188.84 28.4905 189.551 27.8106 190.462 27.3315C191.39 26.837 192.456 26.5898 193.661 26.5898C194.882 26.5898 195.948 26.837 196.86 27.3315C197.787 27.8106 198.506 28.4905 199.016 29.3714C199.526 30.2522 199.781 31.2644 199.781 32.4079V37.3685C199.781 38.5275 199.526 39.5551 199.016 40.4514C198.506 41.3477 197.787 42.0431 196.86 42.5376C195.948 43.0167 194.882 43.2562 193.661 43.2562ZM193.661 40.4514C194.511 40.4514 195.199 40.181 195.724 39.6401C196.25 39.0992 196.512 38.3807 196.512 37.4844V32.3848C196.512 31.4885 196.25 30.7699 195.724 30.229C195.214 29.6727 194.527 29.3945 193.661 29.3945C192.811 29.3945 192.124 29.6727 191.598 30.229C191.088 30.7699 190.833 31.4885 190.833 32.3848V37.4844C190.833 38.3807 191.088 39.0992 191.598 39.6401C192.124 40.181 192.811 40.4514 193.661 40.4514ZM211.605 27.0534C211.605 26.9761 211.628 26.9143 211.674 26.8679C211.736 26.8061 211.806 26.7752 211.883 26.7752H214.595C214.672 26.7752 214.734 26.8061 214.78 26.8679C214.842 26.9143 214.873 26.9761 214.873 27.0534V42.723C214.873 42.8003 214.842 42.8698 214.78 42.9317C214.734 42.978 214.672 43.0012 214.595 43.0012H211.976C211.821 43.0012 211.713 42.9394 211.651 42.8158L205.648 32.8947C205.617 32.8484 205.586 32.8329 205.555 32.8484C205.524 32.8484 205.508 32.8793 205.508 32.9411L205.555 42.723C205.555 42.8003 205.524 42.8698 205.462 42.9317C205.416 42.978 205.354 43.0012 205.277 43.0012H202.565C202.487 43.0012 202.418 42.978 202.356 42.9317C202.31 42.8698 202.286 42.8003 202.286 42.723V27.0534C202.286 26.9761 202.31 26.9143 202.356 26.8679C202.418 26.8061 202.487 26.7752 202.565 26.7752H205.184C205.338 26.7752 205.447 26.837 205.508 26.9606L211.489 36.8353C211.52 36.8817 211.551 36.9049 211.582 36.9049C211.613 36.8894 211.628 36.8508 211.628 36.789L211.605 27.0534ZM217.98 43.0012C217.903 43.0012 217.833 42.978 217.772 42.9317C217.725 42.8698 217.702 42.8003 217.702 42.723V27.0534C217.702 26.9761 217.725 26.9143 217.772 26.8679C217.833 26.8061 217.903 26.7752 217.98 26.7752H220.692C220.77 26.7752 220.831 26.8061 220.878 26.8679C220.94 26.9143 220.97 26.9761 220.97 27.0534V40.0805C220.97 40.1578 221.009 40.1964 221.086 40.1964H228.666C228.743 40.1964 228.805 40.2273 228.852 40.2891C228.913 40.3355 228.944 40.3973 228.944 40.4746V42.723C228.944 42.8003 228.913 42.8698 228.852 42.9317C228.805 42.978 228.743 43.0012 228.666 43.0012H217.98ZM234.148 42.978C234.071 42.978 234.002 42.9548 233.94 42.9085C233.893 42.8467 233.87 42.7771 233.87 42.6999V36.8353C233.87 36.7735 233.863 36.7271 233.847 36.6962L229.072 27.0997C229.041 27.0379 229.026 26.9915 229.026 26.9606C229.026 26.837 229.111 26.7752 229.281 26.7752H232.201C232.356 26.7752 232.464 26.8447 232.526 26.9838L235.423 33.1497C235.47 33.2424 235.516 33.2424 235.562 33.1497L238.46 26.9838C238.522 26.8447 238.63 26.7752 238.784 26.7752H241.751C241.86 26.7752 241.929 26.8061 241.96 26.8679C242.006 26.9143 242.006 26.9915 241.96 27.0997L237.139 36.6962C237.123 36.7271 237.115 36.7735 237.115 36.8353V42.6999C237.115 42.7771 237.085 42.8467 237.023 42.9085C236.976 42.9548 236.915 42.978 236.837 42.978H234.148Z" fill="white"/>
<path d="M60.7248 94.1189C59.9548 94.1189 59.2748 93.9689 58.6848 93.6689C58.1048 93.3689 57.6498 92.9489 57.3198 92.4089C56.9998 91.8589 56.8398 91.2289 56.8398 90.5189V83.6789C56.8398 83.6289 56.8548 83.5889 56.8848 83.5589C56.9248 83.5189 56.9698 83.4989 57.0198 83.4989H58.7748C58.8248 83.4989 58.8648 83.5189 58.8948 83.5589C58.9348 83.5889 58.9548 83.6289 58.9548 83.6789V90.5339C58.9548 91.0639 59.1148 91.4939 59.4348 91.8239C59.7648 92.1439 60.1948 92.3039 60.7248 92.3039C61.2548 92.3039 61.6798 92.1439 61.9998 91.8239C62.3298 91.4939 62.4948 91.0639 62.4948 90.5339V83.6789C62.4948 83.6289 62.5098 83.5889 62.5398 83.5589C62.5798 83.5189 62.6248 83.4989 62.6748 83.4989H64.4298C64.4798 83.4989 64.5198 83.5189 64.5498 83.5589C64.5898 83.5889 64.6098 83.6289 64.6098 83.6789V90.5189C64.6098 91.2289 64.4448 91.8589 64.1148 92.4089C63.7948 92.9489 63.3398 93.3689 62.7498 93.6689C62.1698 93.9689 61.4948 94.1189 60.7248 94.1189ZM69.9484 94.1189C69.1484 94.1189 68.4484 93.9939 67.8484 93.7439C67.2484 93.4839 66.7834 93.1189 66.4534 92.6489C66.1334 92.1689 65.9734 91.6139 65.9734 90.9839V90.6539C65.9734 90.6039 65.9884 90.5639 66.0184 90.5339C66.0584 90.4939 66.1034 90.4739 66.1534 90.4739H67.8634C67.9134 90.4739 67.9534 90.4939 67.9834 90.5339C68.0234 90.5639 68.0434 90.6039 68.0434 90.6539V90.8789C68.0434 91.2789 68.2284 91.6189 68.5984 91.8989C68.9684 92.1689 69.4684 92.3039 70.0984 92.3039C70.6284 92.3039 71.0234 92.1939 71.2834 91.9739C71.5434 91.7439 71.6734 91.4639 71.6734 91.1339C71.6734 90.8939 71.5934 90.6939 71.4334 90.5339C71.2734 90.3639 71.0534 90.2189 70.7734 90.0989C70.5034 89.9689 70.0684 89.7939 69.4684 89.5739C68.7984 89.3439 68.2284 89.1089 67.7584 88.8689C67.2984 88.6289 66.9084 88.3039 66.5884 87.8939C66.2784 87.4739 66.1234 86.9589 66.1234 86.3489C66.1234 85.7489 66.2784 85.2239 66.5884 84.7739C66.8984 84.3239 67.3284 83.9789 67.8784 83.7389C68.4284 83.4989 69.0634 83.3789 69.7834 83.3789C70.5434 83.3789 71.2184 83.5139 71.8084 83.7839C72.4084 84.0539 72.8734 84.4339 73.2034 84.9239C73.5434 85.4039 73.7134 85.9639 73.7134 86.6039V86.8289C73.7134 86.8789 73.6934 86.9239 73.6534 86.9639C73.6234 86.9939 73.5834 87.0089 73.5334 87.0089H71.8084C71.7584 87.0089 71.7134 86.9939 71.6734 86.9639C71.6434 86.9239 71.6284 86.8789 71.6284 86.8289V86.7089C71.6284 86.2889 71.4534 85.9339 71.1034 85.6439C70.7634 85.3439 70.2934 85.1939 69.6934 85.1939C69.2234 85.1939 68.8534 85.2939 68.5834 85.4939C68.3234 85.6939 68.1934 85.9689 68.1934 86.3189C68.1934 86.5689 68.2684 86.7789 68.4184 86.9489C68.5784 87.1189 68.8084 87.2739 69.1084 87.4139C69.4184 87.5439 69.8934 87.7239 70.5334 87.9539C71.2434 88.2139 71.7984 88.4439 72.1984 88.6439C72.6084 88.8439 72.9734 89.1439 73.2934 89.5439C73.6234 89.9339 73.7884 90.4439 73.7884 91.0739C73.7884 92.0139 73.4434 92.7589 72.7534 93.3089C72.0634 93.8489 71.1284 94.1189 69.9484 94.1189ZM82.5593 85.1339C82.5593 85.1839 82.5393 85.2289 82.4993 85.2689C82.4693 85.2989 82.4293 85.3139 82.3793 85.3139H77.4593C77.4093 85.3139 77.3843 85.3389 77.3843 85.3889V87.7139C77.3843 87.7639 77.4093 87.7889 77.4593 87.7889H80.6843C80.7343 87.7889 80.7743 87.8089 80.8043 87.8489C80.8443 87.8789 80.8643 87.9189 80.8643 87.9689V89.4239C80.8643 89.4739 80.8443 89.5189 80.8043 89.5589C80.7743 89.5889 80.7343 89.6039 80.6843 89.6039H77.4593C77.4093 89.6039 77.3843 89.6289 77.3843 89.6789V92.1089C77.3843 92.1589 77.4093 92.1839 77.4593 92.1839H82.3793C82.4293 92.1839 82.4693 92.2039 82.4993 92.2439C82.5393 92.2739 82.5593 92.3139 82.5593 92.3639V93.8189C82.5593 93.8689 82.5393 93.9139 82.4993 93.9539C82.4693 93.9839 82.4293 93.9989 82.3793 93.9989H75.4493C75.3993 93.9989 75.3543 93.9839 75.3143 93.9539C75.2843 93.9139 75.2693 93.8689 75.2693 93.8189V83.6789C75.2693 83.6289 75.2843 83.5889 75.3143 83.5589C75.3543 83.5189 75.3993 83.4989 75.4493 83.4989H82.3793C82.4293 83.4989 82.4693 83.5189 82.4993 83.5589C82.5393 83.5889 82.5593 83.6289 82.5593 83.6789V85.1339ZM90.722 94.1189C89.942 94.1189 89.257 93.9689 88.667 93.6689C88.077 93.3589 87.622 92.9289 87.302 92.3789C86.982 91.8289 86.822 91.1939 86.822 90.4739V87.0089C86.822 86.2889 86.982 85.6539 87.302 85.1039C87.622 84.5539 88.077 84.1289 88.667 83.8289C89.257 83.5289 89.942 83.3789 90.722 83.3789C91.492 83.3789 92.167 83.5239 92.747 83.8139C93.337 84.0939 93.792 84.4989 94.112 85.0289C94.442 85.5489 94.607 86.1539 94.607 86.8439C94.607 86.9339 94.547 86.9889 94.427 87.0089L92.672 87.1139H92.642C92.542 87.1139 92.492 87.0589 92.492 86.9489C92.492 86.4189 92.327 85.9939 91.997 85.6739C91.677 85.3539 91.252 85.1939 90.722 85.1939C90.182 85.1939 89.747 85.3539 89.417 85.6739C89.097 85.9939 88.937 86.4189 88.937 86.9489V90.5639C88.937 91.0839 89.097 91.5039 89.417 91.8239C89.747 92.1439 90.182 92.3039 90.722 92.3039C91.252 92.3039 91.677 92.1439 91.997 91.8239C92.327 91.5039 92.492 91.0839 92.492 90.5639C92.492 90.4539 92.552 90.3989 92.672 90.3989L94.427 90.4739C94.477 90.4739 94.517 90.4889 94.547 90.5189C94.587 90.5489 94.607 90.5839 94.607 90.6239C94.607 91.3139 94.442 91.9239 94.112 92.4539C93.792 92.9839 93.337 93.3939 92.747 93.6839C92.167 93.9739 91.492 94.1189 90.722 94.1189ZM99.893 94.1639C99.113 94.1639 98.423 94.0039 97.823 93.6839C97.233 93.3639 96.773 92.9189 96.443 92.3489C96.113 91.7689 95.948 91.1039 95.948 90.3539V87.1439C95.948 86.4039 96.113 85.7489 96.443 85.1789C96.773 84.6089 97.233 84.1689 97.823 83.8589C98.423 83.5389 99.113 83.3789 99.893 83.3789C100.683 83.3789 101.373 83.5389 101.963 83.8589C102.563 84.1689 103.028 84.6089 103.358 85.1789C103.688 85.7489 103.853 86.4039 103.853 87.1439V90.3539C103.853 91.1039 103.688 91.7689 103.358 92.3489C103.028 92.9289 102.563 93.3789 101.963 93.6989C101.373 94.0089 100.683 94.1639 99.893 94.1639ZM99.893 92.3489C100.443 92.3489 100.888 92.1739 101.228 91.8239C101.568 91.4739 101.738 91.0089 101.738 90.4289V87.1289C101.738 86.5489 101.568 86.0839 101.228 85.7339C100.898 85.3739 100.453 85.1939 99.893 85.1939C99.343 85.1939 98.898 85.3739 98.558 85.7339C98.228 86.0839 98.063 86.5489 98.063 87.1289V90.4289C98.063 91.0089 98.228 91.4739 98.558 91.8239C98.898 92.1739 99.343 92.3489 99.893 92.3489ZM105.655 93.9989C105.605 93.9989 105.56 93.9839 105.52 93.9539C105.49 93.9139 105.475 93.8689 105.475 93.8189V83.6789C105.475 83.6289 105.49 83.5889 105.52 83.5589C105.56 83.5189 105.605 83.4989 105.655 83.4989H109.405C110.155 83.4989 110.81 83.6339 111.37 83.9039C111.94 84.1639 112.38 84.5339 112.69 85.0139C113 85.4939 113.155 86.0489 113.155 86.6789V90.8189C113.155 91.4489 113 92.0039 112.69 92.4839C112.38 92.9639 111.94 93.3389 111.37 93.6089C110.81 93.8689 110.155 93.9989 109.405 93.9989H105.655ZM107.59 92.1089C107.59 92.1589 107.615 92.1839 107.665 92.1839H109.48C109.94 92.1839 110.31 92.0289 110.59 91.7189C110.88 91.4089 111.03 90.9939 111.04 90.4739V87.0239C111.04 86.5039 110.895 86.0889 110.605 85.7789C110.325 85.4689 109.945 85.3139 109.465 85.3139H107.665C107.615 85.3139 107.59 85.3389 107.59 85.3889V92.1089ZM122.037 85.1339C122.037 85.1839 122.017 85.2289 121.977 85.2689C121.947 85.2989 121.907 85.3139 121.857 85.3139H116.937C116.887 85.3139 116.862 85.3389 116.862 85.3889V87.7139C116.862 87.7639 116.887 87.7889 116.937 87.7889H120.162C120.212 87.7889 120.252 87.8089 120.282 87.8489C120.322 87.8789 120.342 87.9189 120.342 87.9689V89.4239C120.342 89.4739 120.322 89.5189 120.282 89.5589C120.252 89.5889 120.212 89.6039 120.162 89.6039H116.937C116.887 89.6039 116.862 89.6289 116.862 89.6789V92.1089C116.862 92.1589 116.887 92.1839 116.937 92.1839H121.857C121.907 92.1839 121.947 92.2039 121.977 92.2439C122.017 92.2739 122.037 92.3139 122.037 92.3639V93.8189C122.037 93.8689 122.017 93.9139 121.977 93.9539C121.947 93.9839 121.907 93.9989 121.857 93.9989H114.927C114.877 93.9989 114.832 93.9839 114.792 93.9539C114.762 93.9139 114.747 93.8689 114.747 93.8189V83.6789C114.747 83.6289 114.762 83.5889 114.792 83.5589C114.832 83.5189 114.877 83.4989 114.927 83.4989H121.857C121.907 83.4989 121.947 83.5189 121.977 83.5589C122.017 83.5889 122.037 83.6289 122.037 83.6789V85.1339ZM128.28 89.0189C127.94 89.0189 127.655 88.9089 127.425 88.6889C127.205 88.4589 127.095 88.1739 127.095 87.8339C127.095 87.4839 127.205 87.1989 127.425 86.9789C127.645 86.7589 127.93 86.6489 128.28 86.6489C128.63 86.6489 128.915 86.7589 129.135 86.9789C129.355 87.1989 129.465 87.4839 129.465 87.8339C129.465 88.1739 129.35 88.4589 129.12 88.6889C128.9 88.9089 128.62 89.0189 128.28 89.0189ZM128.28 93.9239C127.94 93.9239 127.655 93.8139 127.425 93.5939C127.205 93.3639 127.095 93.0789 127.095 92.7389C127.095 92.3889 127.205 92.1039 127.425 91.8839C127.645 91.6639 127.93 91.5539 128.28 91.5539C128.63 91.5539 128.915 91.6639 129.135 91.8839C129.355 92.1039 129.465 92.3889 129.465 92.7389C129.465 93.0789 129.35 93.3639 129.12 93.5939C128.9 93.8139 128.62 93.9239 128.28 93.9239Z" fill="white"/>
<path d="M356.001 198C370.361 183.641 370.361 160.359 356.001 146C341.641 131.64 318.36 131.64 304 146C289.641 160.359 289.641 183.641 304 198C318.36 212.36 341.641 212.36 356.001 198Z" fill="#C70000"/>
<path d="M330.005 206.073C311.224 206.073 295.941 190.79 295.941 172.009C295.941 153.228 311.224 137.945 330.005 137.945C348.787 137.945 364.069 153.228 364.069 172.009C364.069 190.79 348.787 206.073 330.005 206.073Z" fill="url(#paint6_linear_165_2)"/>
<g filter="url(#filter0_d_165_2)">
<path d="M342.7 193.239C342.209 193.239 341.777 193.139 341.404 192.938C341.031 192.738 340.741 192.458 340.534 192.099C340.334 191.733 340.234 191.312 340.234 190.835V188.224C340.234 187.748 340.334 187.33 340.534 186.971C340.741 186.604 341.031 186.321 341.404 186.121C341.777 185.921 342.209 185.82 342.7 185.82C343.19 185.82 343.622 185.921 343.995 186.121C344.375 186.321 344.665 186.604 344.865 186.971C345.072 187.33 345.176 187.748 345.176 188.224V190.835C345.176 191.312 345.072 191.733 344.865 192.099C344.665 192.458 344.375 192.738 343.995 192.938C343.622 193.139 343.19 193.239 342.7 193.239ZM342.7 192.607C343.224 192.607 343.646 192.448 343.964 192.13C344.281 191.813 344.44 191.391 344.44 190.866V188.214C344.44 187.689 344.281 187.268 343.964 186.95C343.646 186.625 343.224 186.463 342.7 186.463C342.181 186.463 341.764 186.625 341.446 186.95C341.128 187.268 340.969 187.689 340.969 188.214V190.866C340.969 191.391 341.128 191.813 341.446 192.13C341.764 192.448 342.181 192.607 342.7 192.607ZM351.59 186.442C351.59 186.511 351.555 186.546 351.486 186.546H347.684C347.656 186.546 347.642 186.56 347.642 186.587V189.146C347.642 189.174 347.656 189.188 347.684 189.188H350.347C350.416 189.188 350.45 189.222 350.45 189.291V189.727C350.45 189.796 350.416 189.83 350.347 189.83H347.684C347.656 189.83 347.642 189.844 347.642 189.872V193.052C347.642 193.121 347.608 193.156 347.539 193.156H347.01C346.941 193.156 346.907 193.121 346.907 193.052V186.007C346.907 185.938 346.941 185.903 347.01 185.903H351.486C351.555 185.903 351.59 185.938 351.59 186.007V186.442ZM357.479 186.442C357.479 186.511 357.444 186.546 357.375 186.546H353.573C353.545 186.546 353.531 186.56 353.531 186.587V189.146C353.531 189.174 353.545 189.188 353.573 189.188H356.235C356.304 189.188 356.339 189.222 356.339 189.291V189.727C356.339 189.796 356.304 189.83 356.235 189.83H353.573C353.545 189.83 353.531 189.844 353.531 189.872V193.052C353.531 193.121 353.497 193.156 353.427 193.156H352.899C352.83 193.156 352.795 193.121 352.795 193.052V186.007C352.795 185.938 352.83 185.903 352.899 185.903H357.375C357.444 185.903 357.479 185.938 357.479 186.007V186.442Z" fill="white"/>
<path d="M349.845 180.57V179.88C349.845 179.402 349.943 178.965 350.139 178.569C350.34 178.168 350.63 177.848 351.009 177.609C351.393 177.366 351.857 177.245 352.403 177.245C352.957 177.245 353.422 177.366 353.797 177.609C354.172 177.848 354.456 178.168 354.648 178.569C354.84 178.965 354.935 179.402 354.935 179.88V180.57C354.935 181.048 354.837 181.487 354.641 181.888C354.449 182.284 354.164 182.604 353.784 182.847C353.409 183.086 352.949 183.205 352.403 183.205C351.849 183.205 351.382 183.086 351.003 182.847C350.623 182.604 350.335 182.284 350.139 181.888C349.943 181.487 349.845 181.048 349.845 180.57ZM351.15 179.88V180.57C351.15 180.967 351.243 181.323 351.431 181.638C351.619 181.95 351.943 182.105 352.403 182.105C352.851 182.105 353.166 181.95 353.35 181.638C353.537 181.323 353.631 180.967 353.631 180.57V179.88C353.631 179.483 353.541 179.129 353.362 178.818C353.183 178.503 352.864 178.345 352.403 178.345C351.955 178.345 351.634 178.503 351.437 178.818C351.246 179.129 351.15 179.483 351.15 179.88ZM343.322 173.075V172.385C343.322 171.907 343.42 171.47 343.616 171.074C343.817 170.673 344.107 170.353 344.486 170.114C344.87 169.871 345.334 169.75 345.88 169.75C346.434 169.75 346.899 169.871 347.274 170.114C347.649 170.353 347.933 170.673 348.125 171.074C348.317 171.47 348.413 171.907 348.413 172.385V173.075C348.413 173.553 348.314 173.992 348.118 174.393C347.927 174.789 347.641 175.109 347.261 175.352C346.886 175.591 346.426 175.71 345.88 175.71C345.326 175.71 344.859 175.591 344.48 175.352C344.1 175.109 343.812 174.789 343.616 174.393C343.42 173.992 343.322 173.553 343.322 173.075ZM344.627 172.385V173.075C344.627 173.472 344.72 173.828 344.908 174.143C345.096 174.455 345.42 174.61 345.88 174.61C346.328 174.61 346.643 174.455 346.827 174.143C347.014 173.828 347.108 173.472 347.108 173.075V172.385C347.108 171.988 347.018 171.634 346.839 171.323C346.66 171.008 346.341 170.85 345.88 170.85C345.432 170.85 345.111 171.008 344.914 171.323C344.723 171.634 344.627 171.988 344.627 172.385ZM343.808 183.026L352.812 169.929H354.27L345.266 183.026H343.808Z" fill="white"/>
</g>
</g>
<path d="M61.0341 138V103.091H68.4148V117.494H83.3977V103.091H90.7614V138H83.3977V123.58H68.4148V138H61.0341ZM118.409 103.091H125.79V125.761C125.79 128.307 125.182 130.534 123.966 132.443C122.761 134.352 121.074 135.841 118.903 136.909C116.733 137.966 114.205 138.494 111.318 138.494C108.42 138.494 105.886 137.966 103.716 136.909C101.545 135.841 99.858 134.352 98.6534 132.443C97.4489 130.534 96.8466 128.307 96.8466 125.761V103.091H104.227V125.131C104.227 126.46 104.517 127.642 105.097 128.676C105.688 129.71 106.517 130.523 107.585 131.114C108.653 131.705 109.898 132 111.318 132C112.75 132 113.994 131.705 115.051 131.114C116.119 130.523 116.943 129.71 117.523 128.676C118.114 127.642 118.409 126.46 118.409 125.131V103.091ZM144.237 138H131.862V103.091H144.339C147.851 103.091 150.874 103.79 153.408 105.188C155.942 106.574 157.891 108.568 159.254 111.17C160.629 113.773 161.317 116.886 161.317 120.511C161.317 124.148 160.629 127.273 159.254 129.886C157.891 132.5 155.93 134.506 153.374 135.903C150.828 137.301 147.783 138 144.237 138ZM139.243 131.676H143.93C146.112 131.676 147.947 131.29 149.436 130.517C150.936 129.733 152.061 128.523 152.811 126.886C153.572 125.239 153.953 123.114 153.953 120.511C153.953 117.932 153.572 115.824 152.811 114.188C152.061 112.551 150.942 111.347 149.453 110.574C147.964 109.801 146.129 109.415 143.947 109.415H139.243V131.676ZM179.159 138H166.784V103.091H179.261C182.773 103.091 185.795 103.79 188.33 105.188C190.864 106.574 192.813 108.568 194.176 111.17C195.551 113.773 196.239 116.886 196.239 120.511C196.239 124.148 195.551 127.273 194.176 129.886C192.813 132.5 190.852 134.506 188.295 135.903C185.75 137.301 182.705 138 179.159 138ZM174.165 131.676H178.852C181.034 131.676 182.869 131.29 184.358 130.517C185.858 129.733 186.983 128.523 187.733 126.886C188.494 125.239 188.875 123.114 188.875 120.511C188.875 117.932 188.494 115.824 187.733 114.188C186.983 112.551 185.864 111.347 184.375 110.574C182.886 109.801 181.051 109.415 178.869 109.415H174.165V131.676ZM201.706 138V103.091H209.087V131.915H224.053V138H201.706ZM228.94 138V103.091H252.463V109.176H236.321V117.494H251.253V123.58H236.321V131.915H252.531V138H228.94ZM258.126 138V132.682L270.553 121.176C271.609 120.153 272.496 119.233 273.212 118.415C273.939 117.597 274.49 116.795 274.865 116.011C275.24 115.216 275.428 114.358 275.428 113.438C275.428 112.415 275.195 111.534 274.729 110.795C274.263 110.045 273.626 109.472 272.82 109.074C272.013 108.665 271.098 108.46 270.075 108.46C269.007 108.46 268.075 108.676 267.28 109.108C266.484 109.54 265.871 110.159 265.439 110.966C265.007 111.773 264.791 112.733 264.791 113.847H257.786C257.786 111.562 258.303 109.58 259.337 107.898C260.371 106.216 261.82 104.915 263.683 103.994C265.547 103.074 267.695 102.614 270.126 102.614C272.626 102.614 274.803 103.057 276.655 103.943C278.518 104.818 279.967 106.034 281.001 107.591C282.036 109.148 282.553 110.932 282.553 112.943C282.553 114.261 282.291 115.562 281.768 116.847C281.257 118.131 280.342 119.557 279.024 121.125C277.706 122.682 275.848 124.551 273.45 126.733L268.354 131.727V131.966H283.013V138H258.126ZM301.111 138.477C298.702 138.477 296.554 138.034 294.668 137.148C292.793 136.261 291.304 135.04 290.202 133.483C289.099 131.926 288.526 130.142 288.48 128.131H295.639C295.719 129.483 296.287 130.58 297.344 131.42C298.401 132.261 299.656 132.682 301.111 132.682C302.27 132.682 303.293 132.426 304.179 131.915C305.077 131.392 305.776 130.67 306.276 129.75C306.787 128.818 307.043 127.75 307.043 126.545C307.043 125.318 306.781 124.239 306.259 123.307C305.747 122.375 305.037 121.648 304.128 121.125C303.219 120.602 302.179 120.335 301.009 120.324C299.986 120.324 298.991 120.534 298.026 120.955C297.071 121.375 296.327 121.949 295.793 122.676L289.23 121.5L290.884 103.091H312.224V109.125H296.969L296.065 117.869H296.27C296.884 117.006 297.81 116.29 299.048 115.722C300.287 115.153 301.673 114.869 303.207 114.869C305.31 114.869 307.185 115.364 308.832 116.352C310.48 117.341 311.781 118.699 312.736 120.426C313.69 122.142 314.162 124.119 314.151 126.358C314.162 128.71 313.616 130.801 312.514 132.631C311.423 134.449 309.895 135.881 307.929 136.926C305.974 137.96 303.702 138.477 301.111 138.477Z" fill="white"/>
<path d="M305.099 176V173.614L312.482 165.964C313.27 165.134 313.92 164.406 314.431 163.781C314.95 163.148 315.337 162.548 315.592 161.98C315.848 161.412 315.976 160.808 315.976 160.169C315.976 159.445 315.805 158.82 315.464 158.294C315.124 157.761 314.658 157.353 314.069 157.069C313.479 156.778 312.815 156.632 312.077 156.632C311.295 156.632 310.614 156.792 310.031 157.112C309.449 157.431 309.001 157.882 308.689 158.464C308.376 159.047 308.22 159.729 308.22 160.51H305.077C305.077 159.182 305.383 158.021 305.994 157.026C306.604 156.032 307.442 155.261 308.508 154.714C309.573 154.161 310.784 153.884 312.141 153.884C313.511 153.884 314.719 154.157 315.763 154.704C316.814 155.244 317.634 155.982 318.224 156.92C318.813 157.85 319.108 158.901 319.108 160.073C319.108 160.883 318.955 161.675 318.65 162.449C318.352 163.223 317.83 164.086 317.084 165.038C316.338 165.982 315.301 167.129 313.973 168.479L309.637 173.017V173.177H319.46V176H305.099ZM330.699 176.298C329.364 176.298 328.163 176.043 327.098 175.531C326.04 175.013 325.195 174.303 324.562 173.401C323.93 172.499 323.593 171.469 323.55 170.311H326.746C326.825 171.249 327.24 172.019 327.993 172.623C328.746 173.227 329.648 173.528 330.699 173.528C331.537 173.528 332.279 173.337 332.925 172.953C333.579 172.562 334.09 172.026 334.46 171.344C334.836 170.663 335.024 169.885 335.024 169.011C335.024 168.124 334.832 167.332 334.449 166.636C334.065 165.94 333.536 165.393 332.862 164.995C332.194 164.597 331.427 164.395 330.56 164.388C329.9 164.388 329.236 164.501 328.568 164.729C327.901 164.956 327.361 165.254 326.949 165.624L323.934 165.176L325.159 154.182H337.155V157.005H327.897L327.205 163.109H327.332C327.759 162.697 328.323 162.353 329.026 162.076C329.737 161.799 330.496 161.661 331.306 161.661C332.634 161.661 333.817 161.977 334.854 162.609C335.898 163.241 336.718 164.104 337.315 165.197C337.918 166.284 338.217 167.534 338.21 168.947C338.217 170.361 337.897 171.621 337.251 172.729C336.612 173.837 335.724 174.711 334.587 175.35C333.458 175.982 332.162 176.298 330.699 176.298Z" fill="white"/>
</g>
<defs>
<filter id="filter0_d_165_2" x="340.234" y="168.407" width="19.93" height="26.1742" filterUnits="userSpaceOnUse" color-interpolation-filters="sRGB">
<feFlood flood-opacity="0" result="BackgroundImageFix"/>
<feColorMatrix in="SourceAlpha" type="matrix" values="0 0 0 0 0 0 0 0 0 0 0 0 0 0 0 0 0 0 127 0" result="hardAlpha"/>
<feOffset dx="1.34295"/>
<feGaussianBlur stdDeviation="0.671475"/>
<feColorMatrix type="matrix" values="0 0 0 0 0 0 0 0 0 0 0 0 0 0 0 0 0 0 0.4 0"/>
<feBlend mode="normal" in2="BackgroundImageFix" result="effect1_dropShadow_165_2"/>
<feBlend mode="normal" in="SourceGraphic" in2="effect1_dropShadow_165_2" result="shape"/>
</filter>
<linearGradient id="paint0_linear_165_2" x1="55.0364" y1="92.8475" x2="31.2064" y2="54.5475" gradientUnits="userSpaceOnUse">
<stop stop-color="#F37335"/>
<stop offset="1" stop-color="#C60000"/>
</linearGradient>
<linearGradient id="paint1_linear_165_2" x1="0.988281" y1="198.13" x2="123.418" y2="198.13" gradientUnits="userSpaceOnUse">
<stop offset="0.31"/>
<stop offset="1" stop-color="#333333"/>
</linearGradient>
<radialGradient id="paint2_radial_165_2" cx="0" cy="0" r="1" gradientUnits="userSpaceOnUse" gradientTransform="translate(419.679 31.7722) scale(798.946 680.974)">
<stop stop-color="#333333"/>
<stop offset="0.29" stop-color="#282828"/>
<stop offset="0.78" stop-color="#0D0D0D"/>
<stop offset="1"/>
</radialGradient>
<linearGradient id="paint3_linear_165_2" x1="12.7664" y1="36.519" x2="259.496" y2="93.7389" gradientUnits="userSpaceOnUse">
<stop stop-color="#F00000"/>
<stop offset="0.22" stop-color="#F12812"/>
<stop offset="0.43" stop-color="#F14921"/>
<stop offset="0.64" stop-color="#F2602C"/>
<stop offset="0.83" stop-color="#F26E32"/>
<stop offset="1" stop-color="#F37335"/>
</linearGradient>
<linearGradient id="paint4_linear_165_2" x1="146.485" y1="31.7595" x2="523.935" y2="31.7595" gradientUnits="userSpaceOnUse">
<stop stop-color="white" stop-opacity="0"/>
<stop offset="1" stop-color="white"/>
</linearGradient>
<radialGradient id="paint5_radial_165_2" cx="0" cy="0" r="1" gradientUnits="userSpaceOnUse" gradientTransform="translate(211.46 209.748) scale(123.06 123.06)">
<stop stop-color="#333333"/>
<stop offset="0.29" stop-color="#282828"/>
<stop offset="0.78" stop-color="#0D0D0D"/>
<stop offset="1"/>
</radialGradient>
<linearGradient id="paint6_linear_165_2" x1="330.005" y1="70.9392" x2="330.005" y2="173.144" gradientUnits="userSpaceOnUse">
<stop stop-color="white"/>
<stop offset="1" stop-color="white" stop-opacity="0"/>
</linearGradient>
<clipPath id="clip0_165_2">
<rect width="402" height="236" fill="white"/>
</clipPath>
</defs>
</svg>
