<svg width="402" height="236" viewBox="0 0 402 236" fill="none" xmlns="http://www.w3.org/2000/svg">
<g clip-path="url(#clip0_36_36)">
<path d="M6.56641 63.2675L42.7264 99.4275L57.1564 47.9375L6.56641 63.2675Z" fill="url(#paint0_linear_36_36)"/>
<path d="M123.418 235.03L0.988281 176.85L80.7983 161.23L123.418 235.03Z" fill="url(#paint1_linear_36_36)"/>
<path d="M402 30.1402L342.691 177L1 176.85L60.3095 30L402 30.1402Z" fill="url(#paint2_radial_36_36)"/>
<path d="M6.56641 63.2691H249.656L7.46641 61.2891L6.56641 63.2691Z" fill="url(#paint3_linear_36_36)"/>
<path d="M249.656 63.2688H6.56641L35.1164 0.71875H278.206L249.656 63.2688Z" fill="#C70000"/>
<path d="M247.875 60.7595L11.8555 60.4195L39.6155 2.76953L274.365 3.10954L247.875 60.7595Z" fill="url(#paint4_linear_36_36)"/>
<path d="M271.97 190.508H134.52L130 222.308H192.36L192.14 222.558L203.64 235.358L215.13 222.558L214.91 222.308H267.46L271.97 190.508Z" fill="url(#paint5_radial_36_36)"/>
<path d="M172.873 207.218C172.816 207.247 172.816 207.275 172.873 207.304C173.788 207.776 174.245 208.561 174.245 209.658C174.245 210.592 173.928 211.299 173.292 211.781C172.657 212.252 171.824 212.488 170.794 212.488H167.054C167.006 212.488 166.963 212.474 166.924 212.445C166.895 212.406 166.881 212.363 166.881 212.315V202.554C166.881 202.505 166.895 202.467 166.924 202.438C166.963 202.4 167.006 202.38 167.054 202.38H170.679C172.96 202.38 174.101 203.304 174.101 205.153C174.101 206.115 173.692 206.804 172.873 207.218ZM168.989 204.128C168.941 204.128 168.917 204.152 168.917 204.2V206.452C168.917 206.5 168.941 206.525 168.989 206.525H170.679C171.131 206.525 171.482 206.419 171.733 206.207C171.983 205.995 172.108 205.706 172.108 205.34C172.108 204.965 171.983 204.671 171.733 204.46C171.482 204.238 171.131 204.128 170.679 204.128H168.989ZM170.794 210.727C171.237 210.727 171.583 210.616 171.834 210.394C172.084 210.163 172.209 209.851 172.209 209.456C172.209 209.061 172.084 208.753 171.834 208.532C171.583 208.301 171.232 208.185 170.78 208.185H168.989C168.941 208.185 168.917 208.209 168.917 208.257V210.654C168.917 210.703 168.941 210.727 168.989 210.727H170.794ZM179.417 212.647C178.666 212.647 178.002 212.493 177.424 212.185C176.856 211.877 176.413 211.449 176.096 210.9C175.778 210.342 175.619 209.701 175.619 208.979V205.889C175.619 205.177 175.778 204.546 176.096 203.998C176.413 203.449 176.856 203.025 177.424 202.727C178.002 202.419 178.666 202.265 179.417 202.265C180.177 202.265 180.842 202.419 181.41 202.727C181.987 203.025 182.435 203.449 182.752 203.998C183.07 204.546 183.229 205.177 183.229 205.889V208.979C183.229 209.701 183.07 210.342 182.752 210.9C182.435 211.458 181.987 211.891 181.41 212.199C180.842 212.498 180.177 212.647 179.417 212.647ZM179.417 210.9C179.946 210.9 180.375 210.731 180.702 210.394C181.029 210.058 181.193 209.61 181.193 209.052V205.875C181.193 205.316 181.029 204.869 180.702 204.532C180.384 204.185 179.956 204.012 179.417 204.012C178.887 204.012 178.459 204.185 178.132 204.532C177.814 204.869 177.655 205.316 177.655 205.875V209.052C177.655 209.61 177.814 210.058 178.132 210.394C178.459 210.731 178.887 210.9 179.417 210.9ZM188.385 212.647C187.635 212.647 186.97 212.493 186.393 212.185C185.825 211.877 185.382 211.449 185.064 210.9C184.747 210.342 184.588 209.701 184.588 208.979V205.889C184.588 205.177 184.747 204.546 185.064 203.998C185.382 203.449 185.825 203.025 186.393 202.727C186.97 202.419 187.635 202.265 188.385 202.265C189.146 202.265 189.81 202.419 190.378 202.727C190.956 203.025 191.403 203.449 191.721 203.998C192.039 204.546 192.198 205.177 192.198 205.889V208.979C192.198 209.701 192.039 210.342 191.721 210.9C191.403 211.458 190.956 211.891 190.378 212.199C189.81 212.498 189.146 212.647 188.385 212.647ZM188.385 210.9C188.915 210.9 189.343 210.731 189.671 210.394C189.998 210.058 190.162 209.61 190.162 209.052V205.875C190.162 205.316 189.998 204.869 189.671 204.532C189.353 204.185 188.924 204.012 188.385 204.012C187.856 204.012 187.428 204.185 187.1 204.532C186.783 204.869 186.624 205.316 186.624 205.875V209.052C186.624 209.61 186.783 210.058 187.1 210.394C187.428 210.731 187.856 210.9 188.385 210.9ZM193.932 212.488C193.884 212.488 193.84 212.474 193.802 212.445C193.773 212.406 193.758 212.363 193.758 212.315V202.554C193.758 202.505 193.773 202.467 193.802 202.438C193.84 202.4 193.884 202.38 193.932 202.38H195.621C195.669 202.38 195.708 202.4 195.737 202.438C195.775 202.467 195.794 202.505 195.794 202.554V206.597C195.794 206.626 195.804 206.645 195.823 206.655C195.843 206.655 195.862 206.645 195.881 206.626L199.217 202.481C199.274 202.414 199.347 202.38 199.433 202.38H201.339C201.416 202.38 201.465 202.404 201.484 202.452C201.503 202.491 201.493 202.539 201.455 202.597L198.235 206.712C198.206 206.751 198.201 206.784 198.22 206.813L201.628 212.286C201.647 212.344 201.657 212.378 201.657 212.387C201.657 212.455 201.609 212.488 201.513 212.488H199.607C199.51 212.488 199.443 212.45 199.404 212.373L196.834 208.214C196.825 208.195 196.81 208.185 196.791 208.185C196.772 208.185 196.752 208.195 196.733 208.214L195.823 209.355C195.804 209.393 195.794 209.422 195.794 209.441V212.315C195.794 212.363 195.775 212.406 195.737 212.445C195.708 212.474 195.669 212.488 195.621 212.488H193.932ZM211.493 202.554C211.493 202.505 211.508 202.467 211.537 202.438C211.575 202.4 211.618 202.38 211.666 202.38H213.356C213.404 202.38 213.443 202.4 213.471 202.438C213.51 202.467 213.529 202.505 213.529 202.554V212.315C213.529 212.363 213.51 212.406 213.471 212.445C213.443 212.474 213.404 212.488 213.356 212.488H211.724C211.628 212.488 211.561 212.45 211.522 212.373L207.782 206.192C207.763 206.164 207.744 206.154 207.724 206.164C207.705 206.164 207.695 206.183 207.695 206.221L207.724 212.315C207.724 212.363 207.705 212.406 207.667 212.445C207.638 212.474 207.599 212.488 207.551 212.488H205.862C205.813 212.488 205.77 212.474 205.732 212.445C205.703 212.406 205.688 212.363 205.688 212.315V202.554C205.688 202.505 205.703 202.467 205.732 202.438C205.77 202.4 205.813 202.38 205.862 202.38H207.493C207.59 202.38 207.657 202.419 207.695 202.496L211.421 208.647C211.44 208.676 211.46 208.691 211.479 208.691C211.498 208.681 211.508 208.657 211.508 208.618L211.493 202.554ZM218.887 212.647C218.136 212.647 217.472 212.493 216.894 212.185C216.326 211.877 215.884 211.449 215.566 210.9C215.248 210.342 215.089 209.701 215.089 208.979V205.889C215.089 205.177 215.248 204.546 215.566 203.998C215.884 203.449 216.326 203.025 216.894 202.727C217.472 202.419 218.136 202.265 218.887 202.265C219.648 202.265 220.312 202.419 220.88 202.727C221.457 203.025 221.905 203.449 222.223 203.998C222.54 204.546 222.699 205.177 222.699 205.889V208.979C222.699 209.701 222.54 210.342 222.223 210.9C221.905 211.458 221.457 211.891 220.88 212.199C220.312 212.498 219.648 212.647 218.887 212.647ZM218.887 210.9C219.417 210.9 219.845 210.731 220.172 210.394C220.5 210.058 220.663 209.61 220.663 209.052V205.875C220.663 205.316 220.5 204.869 220.172 204.532C219.855 204.185 219.426 204.012 218.887 204.012C218.358 204.012 217.929 204.185 217.602 204.532C217.284 204.869 217.125 205.316 217.125 205.875V209.052C217.125 209.61 217.284 210.058 217.602 210.394C217.929 210.731 218.358 210.9 218.887 210.9ZM226.287 212.488C226.181 212.488 226.113 212.44 226.085 212.344L223.529 202.568L223.514 202.51C223.514 202.424 223.567 202.38 223.673 202.38H225.464C225.56 202.38 225.623 202.428 225.651 202.525L227.023 208.402C227.033 208.44 227.047 208.46 227.067 208.46C227.086 208.46 227.1 208.44 227.11 208.402L228.438 202.539C228.467 202.433 228.53 202.38 228.626 202.38H230.373C230.479 202.38 230.547 202.428 230.575 202.525L232.019 208.402C232.029 208.431 232.044 208.45 232.063 208.46C232.082 208.46 232.096 208.44 232.106 208.402L233.435 202.539C233.463 202.433 233.526 202.38 233.622 202.38H235.326C235.461 202.38 235.514 202.443 235.485 202.568L233.117 212.344C233.088 212.44 233.021 212.488 232.915 212.488H231.196C231.1 212.488 231.038 212.44 231.009 212.344L229.536 206.091C229.526 206.053 229.512 206.034 229.492 206.034C229.473 206.034 229.459 206.053 229.449 206.091L228.077 212.329C228.058 212.435 227.996 212.488 227.89 212.488H226.287Z" fill="white"/>
<path d="M45.6921 43C45.6149 43 45.5453 42.9768 45.4835 42.9305C45.4372 42.8686 45.414 42.7991 45.414 42.7218V27.0522C45.414 26.9749 45.4372 26.9131 45.4835 26.8667C45.5453 26.8049 45.6149 26.774 45.6921 26.774H48.4042C48.4815 26.774 48.5433 26.8049 48.5896 26.8667C48.6515 26.9131 48.6824 26.9749 48.6824 27.0522V40.0793C48.6824 40.1566 48.721 40.1952 48.7983 40.1952H56.3781C56.4554 40.1952 56.5172 40.2261 56.5636 40.2879C56.6254 40.3343 56.6563 40.3961 56.6563 40.4734V42.7218C56.6563 42.7991 56.6254 42.8686 56.5636 42.9305C56.5172 42.9768 56.4554 43 56.3781 43H45.6921ZM58.9573 43C58.88 43 58.8105 42.9768 58.7486 42.9305C58.7023 42.8686 58.6791 42.7991 58.6791 42.7218V27.0522C58.6791 26.9749 58.7023 26.9131 58.7486 26.8667C58.8105 26.8049 58.88 26.774 58.9573 26.774H61.6693C61.7466 26.774 61.8084 26.8049 61.8548 26.8667C61.9166 26.9131 61.9475 26.9749 61.9475 27.0522V42.7218C61.9475 42.7991 61.9166 42.8686 61.8548 42.9305C61.8084 42.9768 61.7466 43 61.6693 43H58.9573ZM75.1994 26.9594C75.2766 26.8358 75.3848 26.774 75.5239 26.774H78.236C78.3132 26.774 78.375 26.8049 78.4214 26.8667C78.4832 26.9131 78.5141 26.9749 78.5141 27.0522V42.7218C78.5141 42.7991 78.4832 42.8686 78.4214 42.9305C78.375 42.9768 78.3132 43 78.236 43H75.5239C75.4466 43 75.3771 42.9768 75.3153 42.9305C75.2689 42.8686 75.2457 42.7991 75.2457 42.7218V32.4995C75.2457 32.4376 75.2303 32.4067 75.1994 32.4067C75.1685 32.4067 75.1376 32.4299 75.1067 32.4763L72.6496 36.3242C72.5723 36.4478 72.4641 36.5096 72.3251 36.5096H70.9574C70.8184 36.5096 70.7102 36.4478 70.6329 36.3242L68.1758 32.4763C68.1449 32.4299 68.114 32.4145 68.0831 32.4299C68.0522 32.4299 68.0368 32.4608 68.0368 32.5226V42.7218C68.0368 42.7991 68.0058 42.8686 67.944 42.9305C67.8977 42.9768 67.8359 43 67.7586 43H65.0465C64.9693 43 64.8997 42.9768 64.8379 42.9305C64.7916 42.8686 64.7684 42.7991 64.7684 42.7218V27.0522C64.7684 26.9749 64.7916 26.9131 64.8379 26.8667C64.8997 26.8049 64.9693 26.774 65.0465 26.774H67.7586C67.8977 26.774 68.0058 26.8358 68.0831 26.9594L71.5601 32.3604C71.6065 32.4531 71.6528 32.4531 71.6992 32.3604L75.1994 26.9594ZM81.6166 43C81.5393 43 81.4698 42.9768 81.408 42.9305C81.3616 42.8686 81.3385 42.7991 81.3385 42.7218V27.0522C81.3385 26.9749 81.3616 26.9131 81.408 26.8667C81.4698 26.8049 81.5393 26.774 81.6166 26.774H84.3287C84.4059 26.774 84.4678 26.8049 84.5141 26.8667C84.5759 26.9131 84.6068 26.9749 84.6068 27.0522V42.7218C84.6068 42.7991 84.5759 42.8686 84.5141 42.9305C84.4678 42.9768 84.4059 43 84.3287 43H81.6166ZM98.6237 26.774C98.7009 26.774 98.7627 26.8049 98.8091 26.8667C98.8709 26.9131 98.9018 26.9749 98.9018 27.0522V29.3238C98.9018 29.4011 98.8709 29.4706 98.8091 29.5324C98.7627 29.5788 98.7009 29.602 98.6237 29.602H94.4744C94.3972 29.602 94.3585 29.6406 94.3585 29.7179V42.7218C94.3585 42.7991 94.3276 42.8686 94.2658 42.9305C94.2195 42.9768 94.1577 43 94.0804 43H91.3683C91.2911 43 91.2215 42.9768 91.1597 42.9305C91.1133 42.8686 91.0902 42.7991 91.0902 42.7218V29.7179C91.0902 29.6406 91.0515 29.602 90.9743 29.602H86.9409C86.8637 29.602 86.7941 29.5788 86.7323 29.5324C86.686 29.4706 86.6628 29.4011 86.6628 29.3238V27.0522C86.6628 26.9749 86.686 26.9131 86.7323 26.8667C86.7941 26.8049 86.8637 26.774 86.9409 26.774H98.6237ZM112.253 29.3006C112.253 29.3779 112.222 29.4474 112.16 29.5092C112.114 29.5556 112.052 29.5788 111.974 29.5788H104.371C104.294 29.5788 104.256 29.6174 104.256 29.6947V33.2876C104.256 33.3648 104.294 33.4035 104.371 33.4035H109.355C109.432 33.4035 109.494 33.4344 109.541 33.4962C109.602 33.5426 109.633 33.6044 109.633 33.6816V35.9301C109.633 36.0074 109.602 36.0769 109.541 36.1387C109.494 36.1851 109.432 36.2083 109.355 36.2083H104.371C104.294 36.2083 104.256 36.2469 104.256 36.3242V40.0793C104.256 40.1566 104.294 40.1952 104.371 40.1952H111.974C112.052 40.1952 112.114 40.2261 112.16 40.2879C112.222 40.3343 112.253 40.3961 112.253 40.4734V42.7218C112.253 42.7991 112.222 42.8686 112.16 42.9305C112.114 42.9768 112.052 43 111.974 43H101.265C101.188 43 101.118 42.9768 101.057 42.9305C101.01 42.8686 100.987 42.7991 100.987 42.7218V27.0522C100.987 26.9749 101.01 26.9131 101.057 26.8667C101.118 26.8049 101.188 26.774 101.265 26.774H111.974C112.052 26.774 112.114 26.8049 112.16 26.8667C112.222 26.9131 112.253 26.9749 112.253 27.0522V29.3006ZM114.802 43C114.725 43 114.655 42.9768 114.593 42.9305C114.547 42.8686 114.524 42.7991 114.524 42.7218V27.0522C114.524 26.9749 114.547 26.9131 114.593 26.8667C114.655 26.8049 114.725 26.774 114.802 26.774H120.597C121.756 26.774 122.768 26.9826 123.634 27.3999C124.514 27.8016 125.194 28.3734 125.673 29.1152C126.153 29.8569 126.392 30.7146 126.392 31.6882V38.0858C126.392 39.0594 126.153 39.9171 125.673 40.6588C125.194 41.4006 124.514 41.9801 123.634 42.3973C122.768 42.7991 121.756 43 120.597 43H114.802ZM117.792 40.0793C117.792 40.1566 117.831 40.1952 117.908 40.1952H120.713C121.424 40.1952 121.996 39.9557 122.428 39.4766C122.876 38.9976 123.108 38.3563 123.124 37.5527V32.2213C123.124 31.4177 122.9 30.7764 122.451 30.2974C122.019 29.8183 121.432 29.5788 120.69 29.5788H117.908C117.831 29.5788 117.792 29.6174 117.792 29.6947V40.0793ZM144.689 26.774C144.767 26.774 144.828 26.8049 144.875 26.8667C144.937 26.9131 144.968 26.9749 144.968 27.0522V29.3238C144.968 29.4011 144.937 29.4706 144.875 29.5324C144.828 29.5788 144.767 29.602 144.689 29.602H140.54C140.463 29.602 140.424 29.6406 140.424 29.7179V42.7218C140.424 42.7991 140.393 42.8686 140.332 42.9305C140.285 42.9768 140.223 43 140.146 43H137.434C137.357 43 137.287 42.9768 137.225 42.9305C137.179 42.8686 137.156 42.7991 137.156 42.7218V29.7179C137.156 29.6406 137.117 29.602 137.04 29.602H133.007C132.929 29.602 132.86 29.5788 132.798 29.5324C132.752 29.4706 132.729 29.4011 132.729 29.3238V27.0522C132.729 26.9749 132.752 26.9131 132.798 26.8667C132.86 26.8049 132.929 26.774 133.007 26.774H144.689ZM147.331 43C147.254 43 147.184 42.9768 147.122 42.9305C147.076 42.8686 147.053 42.7991 147.053 42.7218V27.0522C147.053 26.9749 147.076 26.9131 147.122 26.8667C147.184 26.8049 147.254 26.774 147.331 26.774H150.043C150.12 26.774 150.182 26.8049 150.229 26.8667C150.29 26.9131 150.321 26.9749 150.321 27.0522V42.7218C150.321 42.7991 150.29 42.8686 150.229 42.9305C150.182 42.9768 150.12 43 150.043 43H147.331ZM163.573 26.9594C163.65 26.8358 163.759 26.774 163.898 26.774H166.61C166.687 26.774 166.749 26.8049 166.795 26.8667C166.857 26.9131 166.888 26.9749 166.888 27.0522V42.7218C166.888 42.7991 166.857 42.8686 166.795 42.9305C166.749 42.9768 166.687 43 166.61 43H163.898C163.82 43 163.751 42.9768 163.689 42.9305C163.643 42.8686 163.619 42.7991 163.619 42.7218V32.4995C163.619 32.4376 163.604 32.4067 163.573 32.4067C163.542 32.4067 163.511 32.4299 163.48 32.4763L161.023 36.3242C160.946 36.4478 160.838 36.5096 160.699 36.5096H159.331C159.192 36.5096 159.084 36.4478 159.007 36.3242L156.55 32.4763C156.519 32.4299 156.488 32.4145 156.457 32.4299C156.426 32.4299 156.411 32.4608 156.411 32.5226V42.7218C156.411 42.7991 156.38 42.8686 156.318 42.9305C156.271 42.9768 156.21 43 156.132 43H153.42C153.343 43 153.273 42.9768 153.212 42.9305C153.165 42.8686 153.142 42.7991 153.142 42.7218V27.0522C153.142 26.9749 153.165 26.9131 153.212 26.8667C153.273 26.8049 153.343 26.774 153.42 26.774H156.132C156.271 26.774 156.38 26.8358 156.457 26.9594L159.934 32.3604C159.98 32.4531 160.027 32.4531 160.073 32.3604L163.573 26.9594ZM180.978 29.3006C180.978 29.3779 180.947 29.4474 180.885 29.5092C180.839 29.5556 180.777 29.5788 180.7 29.5788H173.096C173.019 29.5788 172.981 29.6174 172.981 29.6947V33.2876C172.981 33.3648 173.019 33.4035 173.096 33.4035H178.08C178.157 33.4035 178.219 33.4344 178.266 33.4962C178.327 33.5426 178.358 33.6044 178.358 33.6816V35.9301C178.358 36.0074 178.327 36.0769 178.266 36.1387C178.219 36.1851 178.157 36.2083 178.08 36.2083H173.096C173.019 36.2083 172.981 36.2469 172.981 36.3242V40.0793C172.981 40.1566 173.019 40.1952 173.096 40.1952H180.7C180.777 40.1952 180.839 40.2261 180.885 40.2879C180.947 40.3343 180.978 40.3961 180.978 40.4734V42.7218C180.978 42.7991 180.947 42.8686 180.885 42.9305C180.839 42.9768 180.777 43 180.7 43H169.99C169.913 43 169.844 42.9768 169.782 42.9305C169.735 42.8686 169.712 42.7991 169.712 42.7218V27.0522C169.712 26.9749 169.735 26.9131 169.782 26.8667C169.844 26.8049 169.913 26.774 169.99 26.774H180.7C180.777 26.774 180.839 26.8049 180.885 26.8667C180.947 26.9131 180.978 26.9749 180.978 27.0522V29.3006ZM193.661 43.255C192.456 43.255 191.39 43.0077 190.462 42.5132C189.551 42.0187 188.84 41.331 188.33 40.4502C187.82 39.5539 187.565 38.5263 187.565 37.3673V32.4067C187.565 31.2632 187.82 30.251 188.33 29.3702C188.84 28.4893 189.551 27.8094 190.462 27.3303C191.39 26.8358 192.456 26.5886 193.661 26.5886C194.882 26.5886 195.948 26.8358 196.86 27.3303C197.787 27.8094 198.506 28.4893 199.016 29.3702C199.526 30.251 199.781 31.2632 199.781 32.4067V37.3673C199.781 38.5263 199.526 39.5539 199.016 40.4502C198.506 41.3465 197.787 42.0419 196.86 42.5364C195.948 43.0155 194.882 43.255 193.661 43.255ZM193.661 40.4502C194.511 40.4502 195.199 40.1798 195.724 39.6389C196.25 39.098 196.512 38.3795 196.512 37.4832V32.3836C196.512 31.4873 196.25 30.7687 195.724 30.2278C195.214 29.6715 194.527 29.3933 193.661 29.3933C192.811 29.3933 192.124 29.6715 191.598 30.2278C191.088 30.7687 190.833 31.4873 190.833 32.3836V37.4832C190.833 38.3795 191.088 39.098 191.598 39.6389C192.124 40.1798 192.811 40.4502 193.661 40.4502ZM211.605 27.0522C211.605 26.9749 211.628 26.9131 211.674 26.8667C211.736 26.8049 211.806 26.774 211.883 26.774H214.595C214.672 26.774 214.734 26.8049 214.78 26.8667C214.842 26.9131 214.873 26.9749 214.873 27.0522V42.7218C214.873 42.7991 214.842 42.8686 214.78 42.9305C214.734 42.9768 214.672 43 214.595 43H211.976C211.821 43 211.713 42.9382 211.651 42.8146L205.648 32.8935C205.617 32.8472 205.586 32.8317 205.555 32.8472C205.524 32.8472 205.508 32.8781 205.508 32.9399L205.555 42.7218C205.555 42.7991 205.524 42.8686 205.462 42.9305C205.416 42.9768 205.354 43 205.277 43H202.565C202.487 43 202.418 42.9768 202.356 42.9305C202.31 42.8686 202.286 42.7991 202.286 42.7218V27.0522C202.286 26.9749 202.31 26.9131 202.356 26.8667C202.418 26.8049 202.487 26.774 202.565 26.774H205.184C205.338 26.774 205.447 26.8358 205.508 26.9594L211.489 36.8341C211.52 36.8805 211.551 36.9037 211.582 36.9037C211.613 36.8882 211.628 36.8496 211.628 36.7878L211.605 27.0522ZM217.98 43C217.903 43 217.833 42.9768 217.772 42.9305C217.725 42.8686 217.702 42.7991 217.702 42.7218V27.0522C217.702 26.9749 217.725 26.9131 217.772 26.8667C217.833 26.8049 217.903 26.774 217.98 26.774H220.692C220.77 26.774 220.831 26.8049 220.878 26.8667C220.94 26.9131 220.97 26.9749 220.97 27.0522V40.0793C220.97 40.1566 221.009 40.1952 221.086 40.1952H228.666C228.743 40.1952 228.805 40.2261 228.852 40.2879C228.913 40.3343 228.944 40.3961 228.944 40.4734V42.7218C228.944 42.7991 228.913 42.8686 228.852 42.9305C228.805 42.9768 228.743 43 228.666 43H217.98ZM234.148 42.9768C234.071 42.9768 234.002 42.9536 233.94 42.9073C233.893 42.8455 233.87 42.7759 233.87 42.6987V36.8341C233.87 36.7723 233.863 36.7259 233.847 36.695L229.072 27.0985C229.041 27.0367 229.026 26.9903 229.026 26.9594C229.026 26.8358 229.111 26.774 229.281 26.774H232.201C232.356 26.774 232.464 26.8435 232.526 26.9826L235.423 33.1485C235.47 33.2412 235.516 33.2412 235.562 33.1485L238.46 26.9826C238.522 26.8435 238.63 26.774 238.784 26.774H241.751C241.86 26.774 241.929 26.8049 241.96 26.8667C242.006 26.9131 242.006 26.9903 241.96 27.0985L237.139 36.695C237.123 36.7259 237.115 36.7723 237.115 36.8341V42.6987C237.115 42.7759 237.085 42.8455 237.023 42.9073C236.976 42.9536 236.915 42.9768 236.837 42.9768H234.148Z" fill="white"/>
<path d="M60.725 94.12C59.955 94.12 59.275 93.97 58.685 93.67C58.105 93.37 57.65 92.95 57.32 92.41C57 91.86 56.84 91.23 56.84 90.52V83.68C56.84 83.63 56.855 83.59 56.885 83.56C56.925 83.52 56.97 83.5 57.02 83.5H58.775C58.825 83.5 58.865 83.52 58.895 83.56C58.935 83.59 58.955 83.63 58.955 83.68V90.535C58.955 91.065 59.115 91.495 59.435 91.825C59.765 92.145 60.195 92.305 60.725 92.305C61.255 92.305 61.68 92.145 62 91.825C62.33 91.495 62.495 91.065 62.495 90.535V83.68C62.495 83.63 62.51 83.59 62.54 83.56C62.58 83.52 62.625 83.5 62.675 83.5H64.43C64.48 83.5 64.52 83.52 64.55 83.56C64.59 83.59 64.61 83.63 64.61 83.68V90.52C64.61 91.23 64.445 91.86 64.115 92.41C63.795 92.95 63.34 93.37 62.75 93.67C62.17 93.97 61.495 94.12 60.725 94.12ZM69.9486 94.12C69.1486 94.12 68.4486 93.995 67.8486 93.745C67.2486 93.485 66.7836 93.12 66.4536 92.65C66.1336 92.17 65.9736 91.615 65.9736 90.985V90.655C65.9736 90.605 65.9886 90.565 66.0186 90.535C66.0586 90.495 66.1036 90.475 66.1536 90.475H67.8636C67.9136 90.475 67.9536 90.495 67.9836 90.535C68.0236 90.565 68.0436 90.605 68.0436 90.655V90.88C68.0436 91.28 68.2286 91.62 68.5986 91.9C68.9686 92.17 69.4686 92.305 70.0986 92.305C70.6286 92.305 71.0236 92.195 71.2836 91.975C71.5436 91.745 71.6736 91.465 71.6736 91.135C71.6736 90.895 71.5936 90.695 71.4336 90.535C71.2736 90.365 71.0536 90.22 70.7736 90.1C70.5036 89.97 70.0686 89.795 69.4686 89.575C68.7986 89.345 68.2286 89.11 67.7586 88.87C67.2986 88.63 66.9086 88.305 66.5886 87.895C66.2786 87.475 66.1236 86.96 66.1236 86.35C66.1236 85.75 66.2786 85.225 66.5886 84.775C66.8986 84.325 67.3286 83.98 67.8786 83.74C68.4286 83.5 69.0636 83.38 69.7836 83.38C70.5436 83.38 71.2186 83.515 71.8086 83.785C72.4086 84.055 72.8736 84.435 73.2036 84.925C73.5436 85.405 73.7136 85.965 73.7136 86.605V86.83C73.7136 86.88 73.6936 86.925 73.6536 86.965C73.6236 86.995 73.5836 87.01 73.5336 87.01H71.8086C71.7586 87.01 71.7136 86.995 71.6736 86.965C71.6436 86.925 71.6286 86.88 71.6286 86.83V86.71C71.6286 86.29 71.4536 85.935 71.1036 85.645C70.7636 85.345 70.2936 85.195 69.6936 85.195C69.2236 85.195 68.8536 85.295 68.5836 85.495C68.3236 85.695 68.1936 85.97 68.1936 86.32C68.1936 86.57 68.2686 86.78 68.4186 86.95C68.5786 87.12 68.8086 87.275 69.1086 87.415C69.4186 87.545 69.8936 87.725 70.5336 87.955C71.2436 88.215 71.7986 88.445 72.1986 88.645C72.6086 88.845 72.9736 89.145 73.2936 89.545C73.6236 89.935 73.7886 90.445 73.7886 91.075C73.7886 92.015 73.4436 92.76 72.7536 93.31C72.0636 93.85 71.1286 94.12 69.9486 94.12ZM82.5595 85.135C82.5595 85.185 82.5395 85.23 82.4995 85.27C82.4695 85.3 82.4295 85.315 82.3795 85.315H77.4595C77.4095 85.315 77.3845 85.34 77.3845 85.39V87.715C77.3845 87.765 77.4095 87.79 77.4595 87.79H80.6845C80.7345 87.79 80.7745 87.81 80.8045 87.85C80.8445 87.88 80.8645 87.92 80.8645 87.97V89.425C80.8645 89.475 80.8445 89.52 80.8045 89.56C80.7745 89.59 80.7345 89.605 80.6845 89.605H77.4595C77.4095 89.605 77.3845 89.63 77.3845 89.68V92.11C77.3845 92.16 77.4095 92.185 77.4595 92.185H82.3795C82.4295 92.185 82.4695 92.205 82.4995 92.245C82.5395 92.275 82.5595 92.315 82.5595 92.365V93.82C82.5595 93.87 82.5395 93.915 82.4995 93.955C82.4695 93.985 82.4295 94 82.3795 94H75.4495C75.3995 94 75.3545 93.985 75.3145 93.955C75.2845 93.915 75.2695 93.87 75.2695 93.82V83.68C75.2695 83.63 75.2845 83.59 75.3145 83.56C75.3545 83.52 75.3995 83.5 75.4495 83.5H82.3795C82.4295 83.5 82.4695 83.52 82.4995 83.56C82.5395 83.59 82.5595 83.63 82.5595 83.68V85.135ZM90.7222 94.12C89.9422 94.12 89.2572 93.97 88.6672 93.67C88.0772 93.36 87.6222 92.93 87.3022 92.38C86.9822 91.83 86.8222 91.195 86.8222 90.475V87.01C86.8222 86.29 86.9822 85.655 87.3022 85.105C87.6222 84.555 88.0772 84.13 88.6672 83.83C89.2572 83.53 89.9422 83.38 90.7222 83.38C91.4922 83.38 92.1672 83.525 92.7472 83.815C93.3372 84.095 93.7922 84.5 94.1122 85.03C94.4422 85.55 94.6072 86.155 94.6072 86.845C94.6072 86.935 94.5472 86.99 94.4272 87.01L92.6722 87.115H92.6422C92.5422 87.115 92.4922 87.06 92.4922 86.95C92.4922 86.42 92.3272 85.995 91.9972 85.675C91.6772 85.355 91.2522 85.195 90.7222 85.195C90.1822 85.195 89.7472 85.355 89.4172 85.675C89.0972 85.995 88.9372 86.42 88.9372 86.95V90.565C88.9372 91.085 89.0972 91.505 89.4172 91.825C89.7472 92.145 90.1822 92.305 90.7222 92.305C91.2522 92.305 91.6772 92.145 91.9972 91.825C92.3272 91.505 92.4922 91.085 92.4922 90.565C92.4922 90.455 92.5522 90.4 92.6722 90.4L94.4272 90.475C94.4772 90.475 94.5172 90.49 94.5472 90.52C94.5872 90.55 94.6072 90.585 94.6072 90.625C94.6072 91.315 94.4422 91.925 94.1122 92.455C93.7922 92.985 93.3372 93.395 92.7472 93.685C92.1672 93.975 91.4922 94.12 90.7222 94.12ZM99.8932 94.165C99.1132 94.165 98.4232 94.005 97.8232 93.685C97.2332 93.365 96.7732 92.92 96.4432 92.35C96.1132 91.77 95.9482 91.105 95.9482 90.355V87.145C95.9482 86.405 96.1132 85.75 96.4432 85.18C96.7732 84.61 97.2332 84.17 97.8232 83.86C98.4232 83.54 99.1132 83.38 99.8932 83.38C100.683 83.38 101.373 83.54 101.963 83.86C102.563 84.17 103.028 84.61 103.358 85.18C103.688 85.75 103.853 86.405 103.853 87.145V90.355C103.853 91.105 103.688 91.77 103.358 92.35C103.028 92.93 102.563 93.38 101.963 93.7C101.373 94.01 100.683 94.165 99.8932 94.165ZM99.8932 92.35C100.443 92.35 100.888 92.175 101.228 91.825C101.568 91.475 101.738 91.01 101.738 90.43V87.13C101.738 86.55 101.568 86.085 101.228 85.735C100.898 85.375 100.453 85.195 99.8932 85.195C99.3432 85.195 98.8982 85.375 98.5582 85.735C98.2282 86.085 98.0632 86.55 98.0632 87.13V90.43C98.0632 91.01 98.2282 91.475 98.5582 91.825C98.8982 92.175 99.3432 92.35 99.8932 92.35ZM105.655 94C105.605 94 105.56 93.985 105.52 93.955C105.49 93.915 105.475 93.87 105.475 93.82V83.68C105.475 83.63 105.49 83.59 105.52 83.56C105.56 83.52 105.605 83.5 105.655 83.5H109.405C110.155 83.5 110.81 83.635 111.37 83.905C111.94 84.165 112.38 84.535 112.69 85.015C113 85.495 113.155 86.05 113.155 86.68V90.82C113.155 91.45 113 92.005 112.69 92.485C112.38 92.965 111.94 93.34 111.37 93.61C110.81 93.87 110.155 94 109.405 94H105.655ZM107.59 92.11C107.59 92.16 107.615 92.185 107.665 92.185H109.48C109.94 92.185 110.31 92.03 110.59 91.72C110.88 91.41 111.03 90.995 111.04 90.475V87.025C111.04 86.505 110.895 86.09 110.605 85.78C110.325 85.47 109.945 85.315 109.465 85.315H107.665C107.615 85.315 107.59 85.34 107.59 85.39V92.11ZM122.037 85.135C122.037 85.185 122.017 85.23 121.977 85.27C121.947 85.3 121.907 85.315 121.857 85.315H116.937C116.887 85.315 116.862 85.34 116.862 85.39V87.715C116.862 87.765 116.887 87.79 116.937 87.79H120.162C120.212 87.79 120.252 87.81 120.282 87.85C120.322 87.88 120.342 87.92 120.342 87.97V89.425C120.342 89.475 120.322 89.52 120.282 89.56C120.252 89.59 120.212 89.605 120.162 89.605H116.937C116.887 89.605 116.862 89.63 116.862 89.68V92.11C116.862 92.16 116.887 92.185 116.937 92.185H121.857C121.907 92.185 121.947 92.205 121.977 92.245C122.017 92.275 122.037 92.315 122.037 92.365V93.82C122.037 93.87 122.017 93.915 121.977 93.955C121.947 93.985 121.907 94 121.857 94H114.927C114.877 94 114.832 93.985 114.792 93.955C114.762 93.915 114.747 93.87 114.747 93.82V83.68C114.747 83.63 114.762 83.59 114.792 83.56C114.832 83.52 114.877 83.5 114.927 83.5H121.857C121.907 83.5 121.947 83.52 121.977 83.56C122.017 83.59 122.037 83.63 122.037 83.68V85.135ZM128.28 89.02C127.94 89.02 127.655 88.91 127.425 88.69C127.205 88.46 127.095 88.175 127.095 87.835C127.095 87.485 127.205 87.2 127.425 86.98C127.645 86.76 127.93 86.65 128.28 86.65C128.63 86.65 128.915 86.76 129.135 86.98C129.355 87.2 129.465 87.485 129.465 87.835C129.465 88.175 129.35 88.46 129.12 88.69C128.9 88.91 128.62 89.02 128.28 89.02ZM128.28 93.925C127.94 93.925 127.655 93.815 127.425 93.595C127.205 93.365 127.095 93.08 127.095 92.74C127.095 92.39 127.205 92.105 127.425 91.885C127.645 91.665 127.93 91.555 128.28 91.555C128.63 91.555 128.915 91.665 129.135 91.885C129.355 92.105 129.465 92.39 129.465 92.74C129.465 93.08 129.35 93.365 129.12 93.595C128.9 93.815 128.62 93.925 128.28 93.925Z" fill="white"/>
<path d="M356.001 198C370.361 183.641 370.361 160.359 356.001 146C341.641 131.64 318.36 131.64 304 146C289.641 160.359 289.641 183.641 304 198C318.36 212.36 341.641 212.36 356.001 198Z" fill="#C70000"/>
<path d="M330.005 206.073C311.224 206.073 295.941 190.79 295.941 172.009C295.941 153.228 311.224 137.945 330.005 137.945C348.787 137.945 364.069 153.228 364.069 172.009C364.069 190.79 348.787 206.073 330.005 206.073Z" fill="url(#paint6_linear_36_36)"/>
<path d="M61.0341 138V103.091H68.4148V117.494H83.3977V103.091H90.7614V138H83.3977V123.58H68.4148V138H61.0341ZM118.409 103.091H125.79V125.761C125.79 128.307 125.182 130.534 123.966 132.443C122.761 134.352 121.074 135.841 118.903 136.909C116.733 137.966 114.205 138.494 111.318 138.494C108.42 138.494 105.886 137.966 103.716 136.909C101.545 135.841 99.858 134.352 98.6534 132.443C97.4489 130.534 96.8466 128.307 96.8466 125.761V103.091H104.227V125.131C104.227 126.46 104.517 127.642 105.097 128.676C105.688 129.71 106.517 130.523 107.585 131.114C108.653 131.705 109.898 132 111.318 132C112.75 132 113.994 131.705 115.051 131.114C116.119 130.523 116.943 129.71 117.523 128.676C118.114 127.642 118.409 126.46 118.409 125.131V103.091ZM144.237 138H131.862V103.091H144.339C147.851 103.091 150.874 103.79 153.408 105.188C155.942 106.574 157.891 108.568 159.254 111.17C160.629 113.773 161.317 116.886 161.317 120.511C161.317 124.148 160.629 127.273 159.254 129.886C157.891 132.5 155.93 134.506 153.374 135.903C150.828 137.301 147.783 138 144.237 138ZM139.243 131.676H143.93C146.112 131.676 147.947 131.29 149.436 130.517C150.936 129.733 152.061 128.523 152.811 126.886C153.572 125.239 153.953 123.114 153.953 120.511C153.953 117.932 153.572 115.824 152.811 114.188C152.061 112.551 150.942 111.347 149.453 110.574C147.964 109.801 146.129 109.415 143.947 109.415H139.243V131.676ZM179.159 138H166.784V103.091H179.261C182.773 103.091 185.795 103.79 188.33 105.188C190.864 106.574 192.813 108.568 194.176 111.17C195.551 113.773 196.239 116.886 196.239 120.511C196.239 124.148 195.551 127.273 194.176 129.886C192.813 132.5 190.852 134.506 188.295 135.903C185.75 137.301 182.705 138 179.159 138ZM174.165 131.676H178.852C181.034 131.676 182.869 131.29 184.358 130.517C185.858 129.733 186.983 128.523 187.733 126.886C188.494 125.239 188.875 123.114 188.875 120.511C188.875 117.932 188.494 115.824 187.733 114.188C186.983 112.551 185.864 111.347 184.375 110.574C182.886 109.801 181.051 109.415 178.869 109.415H174.165V131.676ZM201.706 138V103.091H209.087V131.915H224.053V138H201.706ZM228.94 138V103.091H252.463V109.176H236.321V117.494H251.253V123.58H236.321V131.915H252.531V138H228.94ZM271.524 138.477C269.729 138.466 267.996 138.165 266.325 137.574C264.666 136.983 263.178 136.023 261.859 134.693C260.541 133.364 259.496 131.602 258.723 129.409C257.962 127.216 257.581 124.523 257.581 121.33C257.592 118.398 257.928 115.778 258.587 113.472C259.257 111.153 260.212 109.187 261.45 107.574C262.7 105.96 264.195 104.733 265.933 103.892C267.672 103.04 269.621 102.614 271.78 102.614C274.109 102.614 276.166 103.068 277.95 103.977C279.734 104.875 281.166 106.097 282.246 107.642C283.337 109.188 283.996 110.92 284.223 112.841H276.945C276.661 111.625 276.064 110.67 275.155 109.977C274.246 109.284 273.121 108.938 271.78 108.938C269.507 108.938 267.78 109.926 266.598 111.903C265.428 113.881 264.831 116.568 264.808 119.966H265.047C265.57 118.932 266.274 118.051 267.161 117.324C268.058 116.585 269.075 116.023 270.212 115.636C271.359 115.239 272.57 115.04 273.842 115.04C275.911 115.04 277.751 115.528 279.365 116.506C280.979 117.472 282.251 118.801 283.183 120.494C284.115 122.187 284.581 124.125 284.581 126.307C284.581 128.67 284.03 130.773 282.928 132.614C281.837 134.455 280.308 135.898 278.342 136.943C276.388 137.977 274.115 138.489 271.524 138.477ZM271.49 132.682C272.626 132.682 273.643 132.409 274.541 131.864C275.439 131.318 276.143 130.58 276.655 129.648C277.166 128.716 277.422 127.67 277.422 126.511C277.422 125.352 277.166 124.312 276.655 123.392C276.155 122.472 275.462 121.739 274.575 121.193C273.689 120.648 272.678 120.375 271.541 120.375C270.689 120.375 269.899 120.534 269.172 120.852C268.456 121.17 267.825 121.614 267.28 122.182C266.746 122.75 266.325 123.409 266.018 124.159C265.712 124.898 265.558 125.687 265.558 126.528C265.558 127.653 265.814 128.682 266.325 129.614C266.848 130.545 267.553 131.29 268.439 131.847C269.337 132.403 270.354 132.682 271.49 132.682ZM303.501 138.767C300.57 138.756 298.047 138.034 295.933 136.602C293.831 135.17 292.212 133.097 291.075 130.381C289.95 127.665 289.393 124.398 289.405 120.58C289.405 116.773 289.967 113.528 291.092 110.847C292.229 108.165 293.848 106.125 295.95 104.727C298.064 103.318 300.581 102.614 303.501 102.614C306.422 102.614 308.933 103.318 311.036 104.727C313.149 106.136 314.774 108.182 315.911 110.864C317.047 113.534 317.609 116.773 317.598 120.58C317.598 124.409 317.03 127.682 315.893 130.398C314.768 133.114 313.155 135.187 311.053 136.619C308.95 138.051 306.433 138.767 303.501 138.767ZM303.501 132.648C305.501 132.648 307.098 131.642 308.291 129.631C309.484 127.619 310.075 124.602 310.064 120.58C310.064 117.932 309.791 115.727 309.246 113.966C308.712 112.205 307.95 110.881 306.962 109.994C305.984 109.108 304.831 108.665 303.501 108.665C301.513 108.665 299.922 109.659 298.729 111.648C297.536 113.636 296.933 116.614 296.922 120.58C296.922 123.261 297.189 125.5 297.723 127.295C298.268 129.08 299.036 130.42 300.024 131.318C301.013 132.205 302.172 132.648 303.501 132.648Z" fill="white"/>
<g filter="url(#filter0_d_36_36)">
<path d="M342.7 193.239C342.209 193.239 341.777 193.139 341.404 192.938C341.031 192.738 340.741 192.458 340.534 192.099C340.334 191.733 340.234 191.312 340.234 190.835V188.224C340.234 187.748 340.334 187.33 340.534 186.971C340.741 186.604 341.031 186.321 341.404 186.121C341.777 185.921 342.209 185.82 342.7 185.82C343.19 185.82 343.622 185.921 343.995 186.121C344.375 186.321 344.665 186.604 344.865 186.971C345.072 187.33 345.176 187.748 345.176 188.224V190.835C345.176 191.312 345.072 191.733 344.865 192.099C344.665 192.458 344.375 192.738 343.995 192.938C343.622 193.139 343.19 193.239 342.7 193.239ZM342.7 192.607C343.224 192.607 343.646 192.448 343.964 192.13C344.281 191.813 344.44 191.391 344.44 190.866V188.214C344.44 187.689 344.281 187.268 343.964 186.95C343.646 186.625 343.224 186.463 342.7 186.463C342.181 186.463 341.764 186.625 341.446 186.95C341.128 187.268 340.969 187.689 340.969 188.214V190.866C340.969 191.391 341.128 191.813 341.446 192.13C341.764 192.448 342.181 192.607 342.7 192.607ZM351.59 186.442C351.59 186.511 351.555 186.546 351.486 186.546H347.684C347.656 186.546 347.642 186.56 347.642 186.587V189.146C347.642 189.174 347.656 189.188 347.684 189.188H350.347C350.416 189.188 350.45 189.222 350.45 189.291V189.727C350.45 189.796 350.416 189.83 350.347 189.83H347.684C347.656 189.83 347.642 189.844 347.642 189.872V193.052C347.642 193.121 347.608 193.156 347.539 193.156H347.01C346.941 193.156 346.907 193.121 346.907 193.052V186.007C346.907 185.938 346.941 185.903 347.01 185.903H351.486C351.555 185.903 351.59 185.938 351.59 186.007V186.442ZM357.479 186.442C357.479 186.511 357.444 186.546 357.375 186.546H353.573C353.545 186.546 353.531 186.56 353.531 186.587V189.146C353.531 189.174 353.545 189.188 353.573 189.188H356.235C356.304 189.188 356.339 189.222 356.339 189.291V189.727C356.339 189.796 356.304 189.83 356.235 189.83H353.573C353.545 189.83 353.531 189.844 353.531 189.872V193.052C353.531 193.121 353.497 193.156 353.427 193.156H352.899C352.83 193.156 352.795 193.121 352.795 193.052V186.007C352.795 185.938 352.83 185.903 352.899 185.903H357.375C357.444 185.903 357.479 185.938 357.479 186.007V186.442Z" fill="white"/>
<path d="M349.844 180.571V179.881C349.844 179.403 349.942 178.966 350.138 178.57C350.339 178.169 350.629 177.849 351.008 177.61C351.392 177.367 351.856 177.246 352.402 177.246C352.956 177.246 353.421 177.367 353.796 177.61C354.171 177.849 354.455 178.169 354.647 178.57C354.839 178.966 354.934 179.403 354.934 179.881V180.571C354.934 181.049 354.836 181.488 354.64 181.889C354.448 182.285 354.163 182.605 353.783 182.848C353.408 183.087 352.948 183.206 352.402 183.206C351.848 183.206 351.381 183.087 351.002 182.848C350.622 182.605 350.334 182.285 350.138 181.889C349.942 181.488 349.844 181.049 349.844 180.571ZM351.149 179.881V180.571C351.149 180.968 351.242 181.324 351.43 181.639C351.618 181.951 351.942 182.106 352.402 182.106C352.85 182.106 353.165 181.951 353.349 181.639C353.536 181.324 353.63 180.968 353.63 180.571V179.881C353.63 179.484 353.54 179.13 353.361 178.819C353.182 178.504 352.863 178.346 352.402 178.346C351.954 178.346 351.633 178.504 351.436 178.819C351.245 179.13 351.149 179.484 351.149 179.881ZM343.321 173.076V172.386C343.321 171.908 343.419 171.471 343.615 171.075C343.816 170.674 344.106 170.354 344.485 170.115C344.869 169.872 345.333 169.751 345.879 169.751C346.433 169.751 346.898 169.872 347.273 170.115C347.648 170.354 347.932 170.674 348.124 171.075C348.316 171.471 348.412 171.908 348.412 172.386V173.076C348.412 173.554 348.313 173.993 348.117 174.394C347.926 174.79 347.64 175.11 347.26 175.353C346.885 175.592 346.425 175.711 345.879 175.711C345.325 175.711 344.858 175.592 344.479 175.353C344.099 175.11 343.811 174.79 343.615 174.394C343.419 173.993 343.321 173.554 343.321 173.076ZM344.626 172.386V173.076C344.626 173.473 344.719 173.829 344.907 174.144C345.095 174.456 345.419 174.611 345.879 174.611C346.327 174.611 346.642 174.456 346.826 174.144C347.013 173.829 347.107 173.473 347.107 173.076V172.386C347.107 171.989 347.017 171.635 346.838 171.324C346.659 171.009 346.34 170.851 345.879 170.851C345.431 170.851 345.11 171.009 344.913 171.324C344.722 171.635 344.626 171.989 344.626 172.386ZM343.807 183.027L352.811 169.93H354.269L345.265 183.027H343.807Z" fill="white"/>
</g>
<path d="M313.136 181.318C312.182 181.303 311.227 181.121 310.273 180.773C309.318 180.424 308.447 179.837 307.659 179.011C306.871 178.178 306.239 177.053 305.761 175.636C305.284 174.212 305.045 172.424 305.045 170.273C305.045 168.212 305.239 166.386 305.625 164.795C306.011 163.197 306.572 161.852 307.307 160.761C308.042 159.663 308.928 158.83 309.966 158.261C311.011 157.693 312.189 157.409 313.5 157.409C314.803 157.409 315.962 157.67 316.977 158.193C318 158.708 318.833 159.428 319.477 160.352C320.121 161.277 320.538 162.341 320.727 163.545H317.955C317.697 162.5 317.197 161.633 316.455 160.943C315.712 160.254 314.727 159.909 313.5 159.909C311.697 159.909 310.277 160.693 309.239 162.261C308.208 163.83 307.689 166.03 307.682 168.864H307.864C308.288 168.22 308.792 167.67 309.375 167.216C309.966 166.754 310.617 166.398 311.33 166.148C312.042 165.898 312.795 165.773 313.591 165.773C314.924 165.773 316.144 166.106 317.25 166.773C318.356 167.432 319.242 168.345 319.909 169.511C320.576 170.67 320.909 172 320.909 173.5C320.909 174.939 320.587 176.258 319.943 177.455C319.299 178.644 318.394 179.591 317.227 180.295C316.068 180.992 314.705 181.333 313.136 181.318ZM313.136 178.818C314.091 178.818 314.947 178.58 315.705 178.102C316.47 177.625 317.072 176.985 317.511 176.182C317.958 175.379 318.182 174.485 318.182 173.5C318.182 172.538 317.966 171.663 317.534 170.875C317.11 170.08 316.523 169.447 315.773 168.977C315.03 168.508 314.182 168.273 313.227 168.273C312.508 168.273 311.837 168.417 311.216 168.705C310.595 168.985 310.049 169.371 309.58 169.864C309.117 170.356 308.754 170.92 308.489 171.557C308.223 172.186 308.091 172.848 308.091 173.545C308.091 174.47 308.307 175.333 308.739 176.136C309.178 176.939 309.777 177.587 310.534 178.08C311.299 178.572 312.167 178.818 313.136 178.818ZM332.969 181.318C331.257 181.318 329.798 180.852 328.594 179.92C327.389 178.981 326.469 177.621 325.832 175.841C325.196 174.053 324.878 171.894 324.878 169.364C324.878 166.848 325.196 164.701 325.832 162.92C326.476 161.133 327.401 159.769 328.605 158.83C329.817 157.883 331.272 157.409 332.969 157.409C334.666 157.409 336.116 157.883 337.321 158.83C338.533 159.769 339.457 161.133 340.094 162.92C340.738 164.701 341.06 166.848 341.06 169.364C341.06 171.894 340.741 174.053 340.105 175.841C339.469 177.621 338.548 178.981 337.344 179.92C336.139 180.852 334.681 181.318 332.969 181.318ZM332.969 178.818C334.666 178.818 335.984 178 336.923 176.364C337.863 174.727 338.332 172.394 338.332 169.364C338.332 167.348 338.116 165.633 337.685 164.216C337.26 162.799 336.647 161.72 335.844 160.977C335.048 160.235 334.09 159.864 332.969 159.864C331.287 159.864 329.973 160.693 329.026 162.352C328.079 164.004 327.605 166.341 327.605 169.364C327.605 171.379 327.817 173.091 328.241 174.5C328.666 175.909 329.276 176.981 330.071 177.716C330.874 178.451 331.84 178.818 332.969 178.818Z" fill="white"/>
</g>
<defs>
<filter id="filter0_d_36_36" x="340.234" y="168.408" width="19.9309" height="26.1739" filterUnits="userSpaceOnUse" color-interpolation-filters="sRGB">
<feFlood flood-opacity="0" result="BackgroundImageFix"/>
<feColorMatrix in="SourceAlpha" type="matrix" values="0 0 0 0 0 0 0 0 0 0 0 0 0 0 0 0 0 0 127 0" result="hardAlpha"/>
<feOffset dx="1.34295"/>
<feGaussianBlur stdDeviation="0.671475"/>
<feColorMatrix type="matrix" values="0 0 0 0 0 0 0 0 0 0 0 0 0 0 0 0 0 0 0.4 0"/>
<feBlend mode="normal" in2="BackgroundImageFix" result="effect1_dropShadow_36_36"/>
<feBlend mode="normal" in="SourceGraphic" in2="effect1_dropShadow_36_36" result="shape"/>
</filter>
<linearGradient id="paint0_linear_36_36" x1="55.0364" y1="92.8475" x2="31.2064" y2="54.5475" gradientUnits="userSpaceOnUse">
<stop stop-color="#F37335"/>
<stop offset="1" stop-color="#C60000"/>
</linearGradient>
<linearGradient id="paint1_linear_36_36" x1="0.988281" y1="198.13" x2="123.418" y2="198.13" gradientUnits="userSpaceOnUse">
<stop offset="0.31"/>
<stop offset="1" stop-color="#333333"/>
</linearGradient>
<radialGradient id="paint2_radial_36_36" cx="0" cy="0" r="1" gradientUnits="userSpaceOnUse" gradientTransform="translate(419.679 31.7722) scale(798.946 680.974)">
<stop stop-color="#333333"/>
<stop offset="0.29" stop-color="#282828"/>
<stop offset="0.78" stop-color="#0D0D0D"/>
<stop offset="1"/>
</radialGradient>
<linearGradient id="paint3_linear_36_36" x1="12.7664" y1="36.519" x2="259.496" y2="93.7389" gradientUnits="userSpaceOnUse">
<stop stop-color="#F00000"/>
<stop offset="0.22" stop-color="#F12812"/>
<stop offset="0.43" stop-color="#F14921"/>
<stop offset="0.64" stop-color="#F2602C"/>
<stop offset="0.83" stop-color="#F26E32"/>
<stop offset="1" stop-color="#F37335"/>
</linearGradient>
<linearGradient id="paint4_linear_36_36" x1="146.485" y1="31.7595" x2="523.935" y2="31.7595" gradientUnits="userSpaceOnUse">
<stop stop-color="white" stop-opacity="0"/>
<stop offset="1" stop-color="white"/>
</linearGradient>
<radialGradient id="paint5_radial_36_36" cx="0" cy="0" r="1" gradientUnits="userSpaceOnUse" gradientTransform="translate(211.46 209.748) scale(123.06 123.06)">
<stop stop-color="#333333"/>
<stop offset="0.29" stop-color="#282828"/>
<stop offset="0.78" stop-color="#0D0D0D"/>
<stop offset="1"/>
</radialGradient>
<linearGradient id="paint6_linear_36_36" x1="330.005" y1="70.9389" x2="330.005" y2="173.144" gradientUnits="userSpaceOnUse">
<stop stop-color="white"/>
<stop offset="1" stop-color="white" stop-opacity="0"/>
</linearGradient>
<clipPath id="clip0_36_36">
<rect width="402" height="236" fill="white"/>
</clipPath>
</defs>
</svg>
