<svg width="244" height="204" viewBox="0 0 244 204" fill="none" xmlns="http://www.w3.org/2000/svg">
<g clip-path="url(#clip0_1_2)">
<path d="M211.778 107.378C211.183 106.137 212.068 104.877 212.253 104.588C212.274 104.6 212.295 104.605 212.316 104.618C215.403 104.469 215.955 105.274 211.724 101.076C213.2 100.12 211.695 99.967 211.579 99.44C211.437 99.437 211.296 99.435 211.154 99.432C211.318 99.16 211.493 98.893 211.688 98.668L211.572 98.79C211.939 97.883 212.306 96.976 212.614 96.215C211.176 93.166 211.01 93.673 212.782 93.235C212.466 92.176 212.15 91.119 211.862 90.156C210.585 90.108 209.431 91.528 208.33 90.705C207.717 90.665 207.105 90.626 206.504 90.587C207.853 89.131 207.857 89.15 209.02 89.891L208.933 89.78C211.632 88.536 211.347 87.311 211.077 86.92C215.865 85.926 214.629 85.228 212.913 81.901C211.822 81.401 211.814 81.511 213.131 81.622C213.363 81.299 213.595 80.976 213.826 80.653L209.742 81.36C209.478 81.504 209.346 81.551 209.387 81.421L166.94 88.773C166.104 89.822 166.207 89.739 165.751 89.597C165.866 89.275 165.944 89.079 166.002 88.935L125.506 95.949C125.333 96.663 125.236 97.062 125.109 97.586C122.83 96.822 122.363 97.033 124.13 96.187L118.193 97.215C118.899 97.635 119.332 97.892 119.754 98.143C120.164 98.427 121.249 96.604 121.201 98.319C119.289 97.971 118.636 98.309 118.461 98.678C118.346 98.371 118.13 97.913 117.784 97.285L96.458 100.979C96.465 101.081 96.488 101.182 96.553 101.266C96.301 101.235 96.049 101.204 95.796 101.173C95.834 101.132 95.854 101.114 95.887 101.078L40.305 110.704C39.964 111.033 39.79 111.273 39.959 111.129C38.243 114.203 38.086 114.765 37.951 114.771C39.431 115.721 41.011 113.971 42.651 114.003C42.78 114.983 44.724 115.754 42.312 116.972C40.126 113.869 42.165 116.579 40.227 117.838C38.653 118.86 37.549 121.234 37.94 122.056C39.044 122.353 39.873 122.575 40.64 122.781C40.64 124.678 40.692 125.391 40.676 125.572C44.116 125.864 38.253 128.212 41.019 130.675C43.158 128.488 42.422 129.01 43.93 129.085L43.906 129.06C44.279 129.054 44.478 129.11 44.582 129.042C44.902 131.629 44.471 131.117 47.009 131.839C46.577 131.907 45.528 132.143 42.889 132.673C42.593 130.248 43.103 130.436 40.494 132.248L40.717 132.45C41.041 133.15 41.365 133.851 41.69 134.551C40.138 135.483 40.653 137.238 39.289 138.817L42.031 138.342C41.945 138.62 41.834 138.953 41.547 139.837C39.251 139.416 40.464 141.424 39.826 142.238C41.087 141.84 41.67 141.636 41.929 141.535C42.036 142.336 42.124 142.679 42.136 142.802C44.79 142.843 43.896 145.713 45.645 147.164C42.412 147.383 41.661 147.313 45.23 148.84C44.089 149.653 42.826 150.35 41.884 151.351C39.815 153.549 42.758 153.075 42.55 153.369C43.753 152.2 43.258 152.529 43.317 153.215C44.335 153.316 44.171 153.181 44.213 153.796C40.525 154.857 41.285 153.919 41.285 158.231C41.307 158.254 41.312 158.26 41.332 158.281C41.309 158.263 41.303 158.258 41.277 158.238C39.141 160.621 39.426 160.637 39.149 160.438C41.578 162.08 37.976 163.728 38.564 164.232C38.423 163.975 36.16 164.256 40.539 166.944C38.65 168.262 38.643 167.737 41.236 169.422C40.112 169.989 38.752 169.971 38.309 172.015C39.606 171.544 40.601 171.059 41.606 170.848C42.863 170.585 43.778 172.23 42.917 173.38C42.415 173.273 41.861 173.155 40.976 172.966C41.85 174.584 40.918 175.239 39.508 175.489C39.789 176.165 39.985 176.635 40.221 177.202C41.105 176.29 40.071 176.491 44.192 176.362C45.561 178.06 45.776 179.934 45.672 181.407L47.271 181.13C47.353 181.015 47.415 180.927 47.504 180.804C47.961 180.845 48.276 180.884 48.525 180.912L51.129 180.461C50.489 180.149 50.204 179.994 50.009 180.018C50.016 180.01 50.02 180.004 50.026 179.996C52.159 178.03 51.866 177.774 51.826 180.34L207.638 153.355C207.646 153.216 207.655 153.076 207.664 152.936C207.909 153.021 208.003 153.14 208.022 153.288L209.933 152.957C210.264 150.889 206.262 153.025 205.52 151.657C206.682 151.208 207.68 150.823 208.411 150.54C208.577 147.341 208.078 147.719 210.712 149.309C215.383 140.586 215.16 141.596 214.315 140.893C214.315 140.893 214.316 140.892 214.316 140.89C214.035 140.583 213.714 139.954 213.482 140.023C212.133 140.424 212.223 139.511 211.921 138.495C216.641 138.273 216.051 138.601 215.592 137.396C215.179 137.031 212.844 138.204 211.379 134.629C212.276 134.149 213.168 133.671 213.64 133.418C214.098 132.358 214.73 131.538 214.601 131.037C213.988 128.66 211.124 130.041 215.214 128.279C213.879 123.104 214.314 123.514 213.461 125.325C210.037 123.46 210.191 124.042 212.189 122.724C212.474 122.787 211.499 119.717 215.355 121.661C214.221 119.9 214.164 118.13 211.908 119.281C211.675 119.4 210.983 118.992 210.947 118.897C209.597 119.497 209.025 119.816 208.816 119.953C209.301 119.511 210.986 116.352 207.906 115.807C207.405 115.718 207.217 114.678 206.766 113.861C207.488 113.542 207.987 113.322 208.088 113.277C212.023 116.461 211.427 116.08 212.084 116.205C211.465 116.843 211.625 117.704 211.68 117.982C212.98 117.916 213.985 117.3 214.702 115.883C213.478 115.867 212.131 115.923 212.869 114.022C211.419 114.446 210.567 113.688 209.701 113.013C210.467 110.749 213.89 111.343 213.664 108.396C214.432 108.727 214.937 108.944 215.921 109.367C213.579 104.925 214.509 105.189 211.778 107.378ZM45.634 118.893C44.58 119.773 45.007 119.84 43.967 119.069C44.642 118.244 44.2 118.245 45.634 118.893ZM42.717 122.154C45.714 122.884 45.237 122.728 45.804 123.084C45.058 122.92 45.434 122.758 44.097 123.933C43.265 122.858 42.933 122.416 42.717 122.154ZM45.134 124.996C44.96 125.653 44.785 126.309 44.611 126.966C44.12 126.181 43.33 125.501 45.134 124.996ZM44.667 128.815C44.693 128.554 44.649 128.041 44.62 126.997C46.38 126.786 46.518 125.812 44.667 128.815ZM45.308 115.533C44.606 115.06 44.664 115.204 44.937 114.905C45.65 116.708 46.71 113.465 48.524 114.366C48.103 114.854 47.218 115.953 46.658 116.586C48.042 117.662 47.988 117.826 47.222 118.586C46.531 118.31 44.924 117.433 45.308 115.533ZM48.634 155.214C46.16 156.727 46.527 156.787 46.734 155.298C46.578 155.051 46.241 155.31 48.634 155.214ZM45.399 172.906C46.935 172.846 46.707 172.742 46.672 173.198C45.035 173.482 45.286 173.57 45.399 172.906ZM47.086 173.856C48.667 176.351 48.643 175.792 47.77 176.51C46.38 173.911 46.404 174.36 47.086 173.856ZM47.282 177.929C47.288 177.189 47.853 177.381 48.4 177.529C48.168 177.602 47.814 177.749 47.282 177.929ZM48.02 179.781C48.462 178.452 48.736 177.836 48.722 177.604C48.872 177.63 49.003 177.622 49.116 177.583C49.035 178.329 49.969 179.336 48.02 179.781ZM49.342 177.418C50.118 176.379 51.005 176.418 51.932 176.969L49.342 177.418ZM96.79 105.036C96.812 104.801 96.838 104.415 96.897 103.717C97.588 103.832 97.631 103.569 96.79 105.036ZM101.551 106.112C101.003 105.662 100.94 105.884 101.987 105.114C102.06 105.004 102.064 104.992 102.1 104.936C101.962 105.171 101.72 105.621 101.551 106.112ZM99.797 101.384C100.788 101.301 101.396 101.251 102.101 101.192C101.353 102.022 100.717 102.591 99.797 101.384ZM112.357 101.699C112.717 102.078 112.86 102.293 112.947 102.425C111.975 102.298 112.072 102.391 112.357 101.699ZM112.956 115.911C112.384 114.133 112.374 114.446 112.791 114.096C113.635 114.911 113.5 114.481 112.956 115.911ZM114.964 108.912C112.951 108.34 113.218 108.587 113.552 107.842C115.5 108.49 115.282 108.219 114.964 108.912ZM115.325 103.27C116.397 102.677 116.094 102.734 116.503 103.452C115.949 103.573 116.197 103.651 115.325 103.27ZM115.367 100.423C115.975 99.944 116.357 99.643 116.731 99.348C117.323 100.399 116.738 100.571 115.367 100.423ZM117.75 128.137C117.718 127.967 117.603 127.755 117.674 127.636C118.145 126.855 118.332 127.375 118.552 127.717C118.269 127.865 118.01 128.001 117.75 128.137ZM127.626 124.015C127.33 122.824 127.191 122.263 126.966 121.359C129.076 121.873 129.007 121.211 127.626 124.015ZM128.825 97.115C129.147 97.113 129.47 97.111 129.792 97.108C129.498 97.768 129.061 97.369 128.825 97.115ZM130.784 121.91C129.275 120.207 129.311 120.65 130.093 119.918C131.657 121.635 131.552 121.201 130.784 121.91ZM139.467 111.359C140.375 109.672 140.096 109.893 140.711 110.196C139.825 111.849 140.072 111.58 139.467 111.359ZM142.522 114.288C142.241 114.614 141.668 113.464 142.823 113.719C142.728 113.914 142.658 114.129 142.522 114.288ZM142.04 111.234C142.937 110.583 142.665 110.632 143.089 111.13C142.245 111.983 142.497 111.926 142.04 111.234ZM152.898 112.326C154.077 111.968 153.754 111.974 154.035 112.447C152.951 112.897 153.266 112.904 152.898 112.326ZM155.05 100.941C155.511 99.632 155.319 99.822 155.813 99.864C155.618 101.152 155.806 100.936 155.05 100.941ZM156.19 102.917C156.275 102.739 156.376 102.45 156.624 101.813C157.22 102.115 157.292 101.93 156.19 102.917ZM162.105 110.673L162.103 110.674C162.323 110.519 162.591 110.273 162.933 109.898C163.227 110.347 163.382 110.169 162.105 110.673ZM163.138 109.067C162.281 107.342 162.253 107.737 163.085 107.216C164.094 108.777 164.145 108.363 163.138 109.067ZM210.478 133.469C209.59 132.952 209.53 133.157 210.863 132.306C210.747 132.644 210.618 133.028 210.478 133.469ZM210.936 132.094C210.523 131.457 210.11 130.82 209.694 130.179C211.71 129.967 211.66 130.001 210.936 132.094ZM206.768 85.54C207.354 85.646 208.244 85.289 209.774 82.974C210.104 84.469 209.421 84.545 208.653 84.541C206.437 86.847 206.8 87.505 206.768 85.54ZM206.678 85.516C206.251 85.601 205.824 85.686 205.398 85.771C205.778 84.66 206.036 85.339 206.678 85.516ZM204.576 83.318C202.58 84.339 202.971 84.31 202.72 83.622C204.674 82.6 204.305 82.577 204.576 83.318ZM166.004 96.124C166.69 95.275 166.328 95.348 167.394 95.845C166.54 96.617 166.883 96.652 166.004 96.124ZM170.276 88.674C170.997 90.494 171.094 90.89 171.341 91.128C170.274 90.679 169.691 90.944 170.276 88.674ZM179.373 90.181C179.258 89.681 179.143 89.181 179.023 88.657C180.241 88.824 180.084 89.413 179.373 90.181ZM183.609 98.055C183.29 97.275 183.878 97.526 184.476 97.493C184.313 97.614 184.109 97.736 183.609 98.055ZM184.783 87.375C185.364 87.565 185.849 87.172 185.903 88.018C183.466 89.082 183.652 89.377 184.783 87.375ZM201.628 86.27C201.916 86.237 202.178 86.207 202.44 86.177C201.369 85.37 202.683 85.205 203.526 84.315C203.702 84.603 203.811 84.479 202.937 84.863C203.375 85.382 203.696 85.745 203.925 86.007C204.39 85.954 204.837 85.902 205.275 85.852C204.291 87.375 203.234 88.085 201.628 86.27ZM208.789 117.288C207.964 119.216 207.999 119.173 206.769 118.187C206.372 117.869 205.304 118.41 205.509 117.276C205.359 117.225 205.265 117.185 205.177 117.148C205.719 117.113 206.761 117.115 208.789 117.288ZM212.218 104.571C212.023 104.737 211.392 105.324 209.883 106.531C209.774 106.008 209.463 105.479 209.637 105.187C210.396 103.912 211.321 104.061 212.218 104.571ZM210.052 92.448C209.459 92.475 209.212 92.44 209.022 92.525C209.963 91.833 209.754 91.828 210.052 92.448ZM208.896 92.603C208.698 92.774 208.497 93.156 207.892 94.039C207.26 93.365 207.078 93.661 208.896 92.603ZM207.799 108.76C208.68 107.188 207.575 107.794 211.693 107.487C210.094 110.119 210.871 109.766 207.799 108.76Z" fill="#002D3F"/>
<path d="M41.748 148.969C39.626 149.867 39.627 149.867 38.985 147.86C38.933 147.696 38.879 147.394 38.804 147.4C35.771 147.65 37.315 145.34 37.191 143.932C42.108 148.366 41.286 147.338 41.281 148.291C41 148.076 41.533 148.673 41.748 148.969Z" fill="#002D3F"/>
<path d="M39.206 154.596C38.941 155.488 38.675 156.38 38.206 157.954C37.725 156.871 37.151 156.175 37.333 155.89C39.47 152.544 36.71 147.455 39.838 153.043C41.637 151.714 38.503 155.396 39.206 154.596Z" fill="#002D3F"/>
<path d="M212.808 93.326C213.752 92.933 214.697 92.54 215.641 92.148C215.433 91.911 215.458 94.218 214.243 94.682C212.907 95.192 212.808 92.555 212.808 93.326Z" fill="#002D3F"/>
<path d="M37.83 114.709C37.83 115.559 37.83 116.409 37.83 117.22C36.538 117.711 36.03 117.349 36.479 116.292C36.852 115.413 38.121 114.916 37.83 114.709Z" fill="#002D3F"/>
<path d="M40.715 132.45C38.728 135.097 39.536 134.877 37.037 133.081C41.016 132.122 40.418 132.181 40.715 132.45Z" fill="#002D3F"/>
<path d="M213.839 96.643C215.521 95.878 215.722 96.641 215.738 97.767C214.174 98.538 214.439 97.203 213.839 96.643Z" fill="#002D3F"/>
<path d="M38.014 172.76C37.793 173.414 37.573 174.067 37.353 174.72C37.091 174.654 36.592 174.582 36.603 174.523C37.037 172.27 37.067 172.657 38.014 172.76Z" fill="#002D3F"/>
<path d="M37.407 139.761C38.466 141.755 38.425 141.317 37.764 141.831C37.33 141.292 36.358 140.301 37.407 139.761Z" fill="#002D3F"/>
<path d="M33.153 127.066C33.384 126.134 33.517 125.597 33.711 124.81C34.263 125.835 34.263 125.835 33.153 127.066Z" fill="#002D3F"/>
<path d="M33.912 163.492C33.233 165.104 33.468 164.873 32.879 164.681C33.63 163.126 33.387 163.332 33.912 163.492Z" fill="#002D3F"/>
<path d="M214.962 99.521C213.967 100.844 214.229 100.685 213.783 100.451C214.613 98.962 214.348 99.129 214.962 99.521Z" fill="#002D3F"/>
<path d="M41.971 145.619C42.756 144.091 42.519 144.358 43.116 144.512C42.219 146.044 42.472 145.831 41.971 145.619Z" fill="#002D3F"/>
<path d="M37.411 162.794C37.528 163.31 37.646 163.827 37.763 164.344L37.853 164.249C35.984 164.064 37.761 162.733 37.411 162.794Z" fill="#002D3F"/>
<path d="M211.571 98.79C212.622 98.843 212.689 98.658 211.556 99.356C211.831 99.537 211.686 99.513 211.688 98.668L211.571 98.79Z" fill="#002D3F"/>
<path d="M42.597 153.298L42.546 153.369C42.802 153.329 43.058 153.29 43.314 153.25C43.036 153.012 43.277 154.284 42.597 153.298Z" fill="#002D3F"/>
<path d="M211.687 116.013C211.683 116.949 211.937 116.73 210.422 116.888C210.844 116.597 211.265 116.305 211.687 116.013Z" fill="#002D3F"/>
<path d="M195.66 43.478C197.017 42.532 197.021 42.908 195.159 41.699C195.966 41.292 196.943 41.305 197.261 39.836C196.33 40.174 195.615 40.523 194.893 40.674C193.99 40.863 193.334 39.682 193.951 38.856C194.312 38.933 194.709 39.018 195.345 39.153C194.717 37.991 195.386 37.521 196.4 37.341C196.198 36.856 196.058 36.518 195.888 36.111C195.253 36.766 195.996 36.621 193.036 36.715C192.053 35.496 191.899 34.15 191.973 33.092L190.825 33.291C190.766 33.374 190.721 33.436 190.658 33.525C190.33 33.496 190.103 33.467 189.924 33.447L188.054 33.771C188.513 33.995 188.718 34.106 188.859 34.089C188.854 34.095 188.851 34.099 188.847 34.105C187.316 35.517 187.526 35.7 187.554 33.858L15.6 63.638C15.594 63.738 15.588 63.838 15.582 63.939C15.406 63.878 15.338 63.792 15.325 63.686L13.952 63.924C13.714 65.409 16.588 63.875 17.121 64.858C16.287 65.18 15.57 65.457 15.045 65.66C14.926 67.957 15.284 67.686 13.392 66.544C10.037 72.808 10.198 72.083 10.805 72.588L10.804 72.59C11.005 72.81 11.236 73.263 11.403 73.213C12.372 72.925 12.307 73.581 12.524 74.31C9.13399 74.47 9.55799 74.234 9.88799 75.1C10.184 75.362 11.861 74.52 12.914 77.087C12.27 77.432 11.629 77.775 11.29 77.956C10.961 78.717 10.507 79.307 10.6 79.666C11.04 81.373 13.097 80.381 10.16 81.647C11.119 85.364 10.806 85.069 11.419 83.769C13.878 85.109 13.767 84.69 12.333 85.637C12.128 85.591 12.828 87.796 10.059 86.401C10.874 87.666 10.914 88.937 12.534 88.11C12.731 88.009 13.39 88.436 13.194 88.4C14.187 87.96 14.603 87.727 14.755 87.628C14.407 87.945 13.197 90.214 15.408 90.606C15.768 90.67 15.903 91.417 16.227 92.003C15.709 92.232 15.35 92.39 15.278 92.422C12.452 90.136 12.88 90.409 12.408 90.319C12.852 89.861 12.738 89.243 12.698 89.043C11.764 89.09 11.043 89.533 10.528 90.55C11.407 90.561 12.374 90.521 11.844 91.886C12.885 91.582 13.497 92.126 14.119 92.611C13.569 94.237 11.11 93.81 11.273 95.927C10.721 95.689 10.359 95.533 9.65199 95.229C11.333 98.419 10.665 98.229 12.626 96.658C13.053 97.549 12.418 98.454 12.285 98.661C12.27 98.652 12.255 98.649 12.24 98.64C10.024 98.747 9.62699 98.169 12.666 101.184C11.606 101.87 12.687 101.98 12.77 102.359C12.872 102.361 12.973 102.363 13.075 102.365C12.957 102.56 12.831 102.752 12.692 102.914L12.775 102.826C12.512 103.477 12.248 104.129 12.027 104.675C13.06 106.864 13.179 106.5 11.907 106.815C12.134 107.575 12.361 108.335 12.568 109.026C13.485 109.06 14.314 108.041 15.105 108.631C15.545 108.66 15.985 108.688 16.417 108.716C15.449 109.762 15.446 109.748 14.61 109.216L14.672 109.295C12.734 110.188 12.938 111.068 13.133 111.349C9.69399 112.063 10.582 112.564 11.815 114.953C12.598 115.312 12.604 115.233 11.659 115.153C11.493 115.385 11.326 115.617 11.16 115.849L14.092 115.341C14.282 115.237 14.377 115.204 14.347 115.297L104.89 99.616C105.491 98.862 105.416 98.922 105.744 99.024C105.661 99.256 105.605 99.396 105.564 99.499L134.645 94.462C134.769 93.949 134.839 93.663 134.93 93.286C136.567 93.835 136.902 93.683 135.633 94.291L139.897 93.553C139.39 93.252 139.079 93.067 138.776 92.886C138.481 92.682 137.702 93.991 137.737 92.76C139.11 93.01 139.579 92.767 139.705 92.502C139.787 92.722 139.943 93.051 140.191 93.502L155.506 90.85C155.501 90.777 155.484 90.704 155.438 90.644C155.619 90.666 155.8 90.689 155.981 90.711C155.954 90.741 155.94 90.753 155.915 90.779L195.83 83.866C196.075 83.63 196.2 83.457 196.079 83.561C197.311 81.353 197.424 80.95 197.521 80.946C196.458 80.264 195.324 81.52 194.146 81.497C194.054 80.793 192.657 80.239 194.39 79.365C195.96 81.593 194.496 79.647 195.887 78.743C197.017 78.009 197.81 76.304 197.53 75.714C196.737 75.501 196.142 75.341 195.591 75.193C195.591 73.831 195.554 73.319 195.565 73.189C193.095 72.98 197.305 71.293 195.318 69.524C193.782 71.094 194.311 70.719 193.228 70.666L193.245 70.684C192.977 70.688 192.834 70.648 192.76 70.697C192.53 68.839 192.84 69.207 191.017 68.688C191.327 68.639 192.081 68.47 193.976 68.089C194.189 69.83 193.823 69.696 195.696 68.395L195.536 68.25C195.303 67.747 195.071 67.244 194.837 66.741C195.952 66.071 195.582 64.811 196.561 63.677L194.592 64.018C194.654 63.818 194.733 63.58 194.94 62.945C196.589 63.247 195.717 61.805 196.176 61.221C195.271 61.506 194.852 61.654 194.666 61.726C194.589 61.151 194.526 60.905 194.518 60.816C192.612 60.787 193.254 58.725 191.998 57.684C194.32 57.527 194.859 57.577 192.296 56.48C193.115 55.896 194.022 55.396 194.699 54.677C196.185 53.099 194.071 53.439 194.221 53.228C193.357 54.067 193.713 53.831 193.67 53.339C192.939 53.266 193.057 53.363 193.026 52.922C195.674 52.16 195.129 52.833 195.129 49.737C195.113 49.721 195.11 49.716 195.095 49.701C195.112 49.714 195.116 49.718 195.134 49.732C196.668 48.021 196.463 48.009 196.662 48.152C194.918 46.973 197.505 45.789 197.082 45.427C197.18 45.61 198.805 45.408 195.66 43.478ZM13.561 77.919C14.198 78.29 14.242 78.143 13.284 78.754C13.367 78.512 13.46 78.236 13.561 77.919ZM13.231 78.906C13.528 79.363 13.824 79.821 14.123 80.281C12.676 80.434 12.711 80.409 13.231 78.906ZM12.688 96.578C13.836 94.687 13.279 94.941 15.484 95.664C14.851 96.792 15.645 96.357 12.688 96.578ZM12.311 98.671C12.451 98.552 12.904 98.131 13.988 97.264C14.066 97.64 14.29 98.02 14.165 98.229C13.62 99.145 12.955 99.037 12.311 98.671ZM13.867 107.377C14.293 107.358 14.47 107.383 14.606 107.322C13.93 107.819 14.08 107.822 13.867 107.377ZM14.697 107.266C14.839 107.143 14.984 106.869 15.418 106.235C15.871 106.719 16.002 106.506 14.697 107.266ZM14.773 89.539C15.366 88.155 15.34 88.186 16.224 88.893C16.509 89.121 17.276 88.733 17.129 89.548C17.237 89.585 17.304 89.613 17.367 89.64C16.978 89.665 16.23 89.663 14.773 89.539ZM18.553 113.219C18.427 113.012 18.348 113.101 18.976 112.826C17.694 111.306 17.794 111.637 18.179 111.235C20.694 112.439 19.334 112.393 18.553 113.219ZM44.501 104.938C45.114 104.384 44.867 104.359 45.499 104.738C45.006 105.347 45.266 105.294 44.501 104.938ZM60.523 105.967C59.72 105.015 59.844 105.181 60.409 104.759C60.569 105.075 60.734 105.388 60.871 105.717C60.878 105.733 60.534 105.98 60.523 105.967ZM76.285 101.936C75.865 101.86 75.225 102.116 74.126 103.779C73.889 102.705 74.38 102.651 74.931 102.654C76.523 100.997 76.262 100.525 76.285 101.936ZM76.35 101.953C76.656 101.892 76.963 101.831 77.27 101.77C76.996 102.568 76.811 102.08 76.35 101.953ZM77.859 103.532C79.292 102.799 79.012 102.82 79.192 103.313C77.789 104.047 78.054 104.064 77.859 103.532ZM77.358 101.713C78.064 100.618 78.823 100.108 79.977 101.412C78.921 101.533 78.136 101.624 77.358 101.713ZM92.074 100.618C91.657 100.481 91.308 100.764 91.27 100.156C93.019 99.392 92.885 99.18 92.074 100.618ZM92.294 93.352C92.411 93.266 92.557 93.178 92.916 92.949C93.146 93.508 92.724 93.328 92.294 93.352ZM95.958 98.603C96.041 98.962 96.123 99.321 96.21 99.698C95.335 99.577 95.448 99.154 95.958 98.603ZM102.491 99.685C101.973 98.378 101.904 98.094 101.726 97.923C102.492 98.245 102.911 98.055 102.491 99.685ZM122.422 81.291C122.624 81.057 123.035 81.883 122.206 81.7C122.274 81.56 122.324 81.405 122.422 81.291ZM107.656 86.37C106.931 85.249 106.894 85.546 107.618 85.041C108.233 86.279 108.253 85.996 107.656 86.37ZM107.764 84.444C107.553 84.121 107.441 84.249 108.358 83.887H108.36C108.202 83.998 108.01 84.175 107.764 84.444ZM112.295 90.249C111.867 90.033 111.816 90.166 112.607 89.457C112.546 89.585 112.473 89.792 112.295 90.249ZM112.878 91.649C113.018 90.724 112.883 90.879 113.426 90.876C113.095 91.816 113.232 91.68 112.878 91.649ZM114.154 82.614C114.933 82.29 114.706 82.286 114.97 82.701C114.124 82.957 114.356 82.953 114.154 82.614ZM122.015 83.559C122.621 82.946 122.44 82.987 122.768 83.485C122.124 83.952 122.319 83.917 122.015 83.559ZM123.722 84.23C124.359 83.043 124.181 83.236 124.615 83.395C123.963 84.606 124.164 84.447 123.722 84.23ZM130.851 75.818C131.934 77.041 131.908 76.723 131.347 77.248C130.225 76.015 130.3 76.327 130.851 75.818ZM131.564 93.628C131.775 93.154 132.089 93.441 132.259 93.623C132.027 93.625 131.795 93.627 131.564 93.628ZM133.119 74.306C133.331 75.161 133.431 75.564 133.593 76.213C132.078 75.844 132.128 76.32 133.119 74.306ZM151.844 87.162C152.237 87.485 152.283 87.325 151.531 87.879C151.479 87.958 151.475 87.966 151.45 88.007C151.549 87.839 151.723 87.516 151.844 87.162ZM143.654 80.126C144.065 81.403 144.072 81.178 143.772 81.43C143.166 80.843 143.263 81.153 143.654 80.126ZM140.266 71.706C139.928 72.267 139.794 71.893 139.636 71.648C139.839 71.542 140.025 71.444 140.212 71.347C140.234 71.468 140.317 71.621 140.266 71.706ZM140.943 92.02C140.518 91.266 140.938 91.142 141.923 91.248C141.486 91.592 141.212 91.808 140.943 92.02ZM141.107 89.073C141.505 88.986 141.327 88.93 141.952 89.204C141.183 89.629 141.4 89.589 141.107 89.073ZM143.226 85.921C141.827 85.456 141.984 85.65 142.212 85.153C143.658 85.563 143.466 85.385 143.226 85.921ZM144.084 90.331C143.826 90.059 143.723 89.905 143.66 89.81C144.359 89.902 144.289 89.835 144.084 90.331ZM151.449 90.696C151.986 90.1 152.443 89.691 153.104 90.558C152.392 90.617 151.956 90.654 151.449 90.696ZM155.186 88.883C154.69 88.801 154.659 88.989 155.263 87.936C155.247 88.104 155.229 88.382 155.186 88.883ZM190.817 35.589C190.813 36.121 190.407 35.983 190.014 35.876C190.18 35.824 190.434 35.718 190.817 35.589ZM190.957 38.514C189.822 36.723 189.839 37.123 190.466 36.608C191.464 38.474 191.447 38.152 190.957 38.514ZM187.477 36.278L189.337 35.956C188.78 36.702 188.143 36.674 187.477 36.278ZM189.499 35.838C189.557 35.303 188.886 34.579 190.286 34.26C189.969 35.214 189.772 35.657 189.782 35.823C189.674 35.804 189.58 35.809 189.499 35.838ZM192 77.984C192.757 77.352 192.45 77.304 193.197 77.857C192.712 78.45 193.029 78.45 192 77.984ZM194.094 75.642C191.942 75.118 192.284 75.23 191.878 74.974C192.414 75.092 192.143 75.208 193.104 74.364C193.701 75.137 193.94 75.454 194.094 75.642ZM192.359 73.602C192.484 73.13 192.61 72.659 192.735 72.187C193.087 72.751 193.654 73.239 192.359 73.602ZM192.694 70.859C192.675 71.047 192.707 71.415 192.728 72.165C191.464 72.316 191.365 73.016 192.694 70.859ZM192.234 80.397C192.738 80.737 192.697 80.633 192.5 80.848C191.988 79.554 191.227 81.882 189.924 81.235C190.227 80.885 190.862 80.095 191.264 79.641C190.27 78.868 190.309 78.751 190.859 78.205C191.356 78.403 192.51 79.033 192.234 80.397ZM189.845 51.901C191.622 50.814 191.358 50.771 191.21 51.841C191.322 52.019 191.564 51.832 189.845 51.901ZM192.169 39.196C191.066 39.239 191.229 39.314 191.254 38.986C192.43 38.783 192.249 38.719 192.169 39.196Z" fill="#F05200"/>
<path d="M194.791 56.386C196.314 55.741 196.314 55.741 196.775 57.183C196.813 57.301 196.851 57.518 196.905 57.513C199.083 57.334 197.975 58.992 198.064 60.004C194.533 56.82 195.123 57.558 195.127 56.873C195.328 57.027 194.944 56.598 194.791 56.386Z" fill="#F05200"/>
<path d="M196.616 52.345C196.807 51.704 196.997 51.064 197.334 49.933C197.68 50.711 198.092 51.211 197.961 51.415C196.426 53.818 198.408 57.472 196.162 53.459C194.87 54.415 197.121 51.771 196.616 52.345Z" fill="#F05200"/>
<path d="M11.887 106.747C11.209 107.029 10.531 107.311 9.85199 107.593C10.001 107.763 9.98399 106.106 10.856 105.773C11.816 105.407 11.887 107.301 11.887 106.747Z" fill="#F05200"/>
<path d="M197.604 80.989C197.604 80.378 197.604 79.768 197.604 79.186C198.532 78.833 198.897 79.094 198.574 79.853C198.306 80.483 197.395 80.84 197.604 80.989Z" fill="#F05200"/>
<path d="M195.532 68.249C196.959 66.348 196.379 66.506 198.173 67.796C195.316 68.484 195.745 68.442 195.532 68.249Z" fill="#F05200"/>
<path d="M11.147 104.365C9.93899 104.914 9.79499 104.366 9.78299 103.558C10.906 103.004 10.716 103.963 11.147 104.365Z" fill="#F05200"/>
<path d="M197.472 39.301C197.63 38.832 197.789 38.363 197.947 37.893C198.135 37.94 198.494 37.992 198.485 38.034C198.174 39.653 198.152 39.375 197.472 39.301Z" fill="#F05200"/>
<path d="M197.907 62.999C197.147 61.567 197.176 61.881 197.65 61.513C197.963 61.899 198.661 62.611 197.907 62.999Z" fill="#F05200"/>
<path d="M200.962 72.115C200.797 72.784 200.701 73.17 200.561 73.735C200.165 72.999 200.165 72.999 200.962 72.115Z" fill="#F05200"/>
<path d="M200.417 45.957C200.905 44.799 200.736 44.965 201.159 45.103C200.62 46.219 200.795 46.071 200.417 45.957Z" fill="#F05200"/>
<path d="M10.34 102.298C11.055 101.348 10.866 101.462 11.187 101.63C10.591 102.699 10.781 102.579 10.34 102.298Z" fill="#F05200"/>
<path d="M194.63 58.792C194.066 59.889 194.236 59.698 193.808 59.587C194.452 58.487 194.271 58.64 194.63 58.792Z" fill="#F05200"/>
<path d="M197.905 46.458C197.821 46.087 197.737 45.716 197.652 45.345L197.587 45.413C198.929 45.546 197.653 46.502 197.905 46.458Z" fill="#F05200"/>
<path d="M12.775 102.823C12.02 102.785 11.972 102.918 12.786 102.416C12.589 102.286 12.693 102.303 12.692 102.91L12.775 102.823Z" fill="#F05200"/>
<path d="M194.181 53.277L194.217 53.226C194.033 53.255 193.849 53.283 193.666 53.312C193.865 53.482 193.692 52.569 194.181 53.277Z" fill="#F05200"/>
<path d="M12.692 90.454C12.695 89.782 12.512 89.939 13.601 89.825C13.298 90.035 12.995 90.245 12.692 90.454Z" fill="#F05200"/>
<path d="M192.874 27.1918L172.43 30.7378L172.6 31.7231L193.044 28.1771L192.874 27.1918Z" fill="#002D3F"/>
<path d="M207.097 19.8392L187.986 23.1539L188.157 24.1392L207.267 20.8245L207.097 19.8392Z" fill="#002D3F"/>
<path d="M59.1052 185.47L21.7623 191.947L21.9332 192.933L59.2761 186.456L59.1052 185.47Z" fill="#F05200"/>
<path d="M75.5994 191.058L47.5439 195.924L47.7148 196.909L75.7703 192.043L75.5994 191.058Z" fill="#F05200"/>
<path d="M221.992 20.401L202.883 39.78L234.587 29.946L221.992 20.401Z" fill="#F05200"/>
<path d="M12.811 189.736L31.92 170.357L0.216995 180.191L12.811 189.736Z" fill="#002D3F"/>
<path d="M38.803 44.649L40.734 44.314V52.037L42.74 51.69V53.046L38.803 53.728V44.649Z" fill="#FCFEFF"/>
<path d="M45.426 43.502L47.357 43.168V52.247L45.426 52.581V43.502Z" fill="#FCFEFF"/>
<path d="M50.615 42.603L52.686 42.244L53.646 47.357L54.682 41.899L56.678 41.553L56.829 50.606L55.459 50.843L55.297 44.829L54.283 51.046L53.064 51.257L51.985 45.358L51.855 51.467L50.463 51.708L50.615 42.603Z" fill="#FCFEFF"/>
<path d="M59.935 40.989L61.866 40.655V49.734L59.935 50.068V40.989Z" fill="#FCFEFF"/>
<path d="M65.793 41.465L64.477 41.693V40.202L69.04 39.411V40.902L67.734 41.128V48.717L65.793 49.053V41.465Z" fill="#FCFEFF"/>
<path d="M71.639 38.962L75.566 38.282V39.649L73.57 39.995V42.248L75.091 41.985V43.375L73.57 43.638V46.351L75.588 46.001V47.357L71.639 48.041V38.962Z" fill="#FCFEFF"/>
<path d="M78.295 37.81L80.507 37.427C81.262 37.297 81.852 37.291 82.276 37.412C82.7 37.533 83.001 37.785 83.177 38.169C83.353 38.553 83.441 39.093 83.441 39.788V43.083C83.441 43.785 83.353 44.361 83.177 44.81C83.001 45.259 82.702 45.621 82.281 45.895C81.861 46.169 81.276 46.372 80.528 46.501L78.295 46.888V37.81ZM80.528 45.112C80.809 45.063 81.015 44.985 81.148 44.876C81.281 44.767 81.366 44.628 81.402 44.462C81.438 44.295 81.456 44.055 81.456 43.74V39.784C81.456 39.492 81.436 39.273 81.397 39.127C81.357 38.981 81.271 38.882 81.138 38.83C81.005 38.778 80.798 38.777 80.518 38.825L80.227 38.876V45.165L80.528 45.112Z" fill="#FCFEFF"/>
<path d="M91.834 36.955L90.518 37.183V35.692L95.081 34.902V36.393L93.775 36.619V44.207L91.834 44.544V36.955Z" fill="#FCFEFF"/>
<path d="M97.691 34.45L99.622 34.115V43.194L97.691 43.528V34.45Z" fill="#FCFEFF"/>
<path d="M102.88 33.552L104.951 33.193L105.91 38.306L106.946 32.847L108.942 32.501L109.093 41.554L107.723 41.791L107.561 35.777L106.547 41.994L105.328 42.205L104.249 36.305L104.119 42.414L102.728 42.655L102.88 33.552Z" fill="#FCFEFF"/>
<path d="M112.189 31.939L116.116 31.258V32.626L114.12 32.972V35.225L115.641 34.961V36.351L114.12 36.615V39.327L116.138 38.978V40.334L112.189 41.018V31.939Z" fill="#FCFEFF"/>
<path d="M123.926 38.363C123.524 37.928 123.322 37.218 123.322 36.232V32.858C123.322 31.872 123.523 31.095 123.926 30.528C124.329 29.962 125.001 29.596 125.944 29.433C126.893 29.268 127.571 29.402 127.978 29.832C128.384 30.262 128.587 30.967 128.587 31.945V35.319C128.587 36.305 128.384 37.086 127.978 37.661C127.571 38.236 126.894 38.605 125.944 38.769C125.001 38.934 124.329 38.798 123.926 38.363ZM126.482 36.968C126.569 36.762 126.611 36.495 126.611 36.166V31.795C126.611 31.459 126.568 31.204 126.482 31.033C126.396 30.861 126.216 30.799 125.943 30.846C125.684 30.891 125.511 31.016 125.425 31.222C125.338 31.427 125.295 31.695 125.295 32.024V36.395C125.295 36.724 125.334 36.976 125.414 37.154C125.493 37.33 125.669 37.395 125.943 37.348C126.216 37.3 126.396 37.173 126.482 36.968Z" fill="#FCFEFF"/>
<path d="M131.596 28.578L132.955 28.343L134.745 32.405V28.033L136.342 27.756V36.835L135.036 37.061L133.246 32.664V37.371L131.595 37.657L131.596 28.578Z" fill="#FCFEFF"/>
<path d="M139.481 27.212L141.412 26.878V34.601L143.418 34.253V35.609L139.48 36.291V27.212H139.481Z" fill="#FCFEFF"/>
<path d="M146.439 31.376L144.777 26.294L146.601 25.979L147.432 28.705L148.176 25.706L149.924 25.403L148.295 31.054V34.764L146.44 35.085V31.376H146.439Z" fill="#FCFEFF"/>
<path d="M34.5291 72.477C34.6763 72.4519 35.0233 72.3925 35.57 72.2991C36.1342 72.181 36.7527 72.0644 37.4256 71.9493C38.0985 71.8343 38.7714 71.7192 39.4443 71.6042C40.1136 71.4681 40.6585 71.3641 41.0791 71.2922C43.7707 70.8319 45.8883 71.065 47.4318 71.9915C48.9718 72.8969 49.9162 74.3695 50.2649 76.4092C50.6496 78.6592 50.1821 80.4814 48.8622 81.8758C47.5387 83.2492 45.5627 84.1606 42.9342 84.61L41.988 84.7718L43.3848 92.9413L38.1803 93.8311L34.5291 72.477ZM41.4001 81.3337L42.7249 81.1072C43.4398 80.9849 44.0188 80.6371 44.4618 80.0635C44.9012 79.469 45.031 78.646 44.8513 77.5946C44.7003 76.7114 44.3482 75.9816 43.7952 75.4052C43.2631 74.8253 42.4907 74.6111 41.4777 74.7626C41.2043 74.8094 40.9748 74.8594 40.7892 74.9128C40.5999 74.9452 40.444 74.9827 40.3214 75.0253L41.4001 81.3337ZM51.6864 69.5434C51.8756 69.511 52.2541 69.4463 52.8219 69.3492C53.386 69.2311 54.0151 69.1128 54.709 68.9941C55.4029 68.8755 56.0758 68.7604 56.7277 68.6489C57.376 68.5165 57.8789 68.4196 58.2364 68.3585C60.928 67.8983 63.0348 68.0683 64.5567 68.8686C66.0787 69.6689 67.0123 71.0783 67.3575 73.097C67.5876 74.4428 67.4522 75.6131 66.9513 76.6077C66.4469 77.5813 65.6788 78.4052 64.647 79.0795C65.3389 79.3291 65.9771 79.7069 66.5614 80.213C67.1457 80.7191 67.7306 81.355 68.316 82.1206C68.8978 82.8652 69.5012 83.7359 70.1262 84.7329C70.7721 85.7262 71.4782 86.8175 72.2442 88.0067L66.6613 88.9613C65.7367 87.6044 64.9478 86.4083 64.2946 85.3729C63.6378 84.3164 63.0449 83.4439 62.516 82.7552C61.9834 82.0455 61.485 81.5355 61.0207 81.2253C60.5739 80.8905 60.0771 80.7698 59.5304 80.8633L58.9942 80.955L60.5421 90.0076L55.3376 90.8975L51.6864 69.5434ZM58.4387 77.7061L59.7635 77.4796C60.4994 77.3538 61.082 77.0269 61.5112 76.499C61.9578 75.9465 62.0984 75.1866 61.933 74.2193C61.8647 73.8198 61.7492 73.4608 61.5865 73.1423C61.4413 72.7992 61.242 72.5195 60.9885 72.3031C60.7315 72.0657 60.4012 71.9057 59.9975 71.8233C59.6112 71.7162 59.1553 71.7076 58.6296 71.7974L57.4625 71.997L58.4387 77.7061ZM70.5686 66.3148L84.1633 63.9903L84.8159 67.8069L76.4256 69.2415L77.2076 73.8152L84.1785 72.6233L84.221 76.4793L77.8494 77.5687L78.7717 82.9624L87.6035 81.4523L88.2561 85.2689L74.2198 87.6689L70.5686 66.3148ZM95.1493 62.1119C95.3386 62.0795 95.7171 62.0148 96.2849 61.9177C96.8701 61.796 97.5096 61.6758 98.2035 61.5572C98.8975 61.4385 99.5704 61.3235 100.222 61.212C100.871 61.0795 101.363 60.9845 101.699 60.927C104.37 60.4704 106.464 60.6317 107.983 61.4109C109.519 62.1655 110.432 63.3945 110.723 65.0978C110.907 66.1702 110.722 67.1758 110.168 68.1145C109.635 69.0497 108.744 69.8513 107.495 70.5194C109.151 70.7124 110.433 71.1857 111.341 71.9395C112.27 72.6896 112.839 73.6745 113.048 74.8942C113.731 78.8895 111.055 81.4031 105.02 82.435C104.725 82.4854 104.273 82.5627 103.663 82.667C103.075 82.7676 102.453 82.8632 101.797 82.9536C101.145 83.0651 100.535 83.1693 99.9676 83.2664C99.4209 83.3599 99.0319 83.4264 98.8006 83.466L95.1493 62.1119ZM103.423 79.1695L104.968 78.9053C105.389 78.8333 105.771 78.7248 106.114 78.5795C106.478 78.4307 106.78 78.2383 107.021 78.0023C107.259 77.7453 107.422 77.436 107.512 77.0743C107.619 76.6881 107.628 76.2321 107.538 75.7064C107.469 75.3069 107.352 74.9374 107.186 74.5979C107.016 74.2373 106.782 73.942 106.482 73.7117C106.18 73.4605 105.804 73.2867 105.354 73.1904C104.926 73.0905 104.418 73.0909 103.829 73.1915C103.534 73.2419 103.263 73.2991 103.014 73.3633C102.783 73.4029 102.595 73.4457 102.452 73.4919L103.423 79.1695ZM101.885 70.18L103.336 69.9319C103.988 69.8204 104.532 69.5218 104.969 69.036C105.426 68.5465 105.565 67.7761 105.385 66.7247C105.234 65.8415 104.907 65.1941 104.404 64.7823C103.918 64.346 103.202 64.2087 102.256 64.3705C101.982 64.4172 101.719 64.4622 101.467 64.5053C101.236 64.5449 101.059 64.586 100.936 64.6286L101.885 70.18ZM122.392 57.1617C124.053 56.8776 125.526 56.8854 126.811 57.1852C128.096 57.4849 129.206 58.0309 130.143 58.8231C131.079 59.6153 131.841 60.6537 132.428 61.9384C133.033 63.1985 133.478 64.6591 133.762 66.3203C134.042 67.9605 134.089 69.5 133.902 70.9387C133.733 72.3529 133.321 73.6137 132.666 74.7212C132.011 75.8287 131.111 76.7619 129.963 77.5208C128.813 78.2586 127.396 78.7714 125.714 79.059C124.053 79.343 122.573 79.358 121.274 79.1039C119.993 78.8252 118.886 78.3003 117.953 77.5291C117.017 76.7369 116.248 75.7213 115.646 74.4823C115.066 73.2396 114.632 71.7772 114.344 70.095C114.064 68.4548 114.007 66.9171 114.172 65.4819C114.356 64.0222 114.773 62.728 115.424 61.5995C116.072 60.4499 116.969 59.4957 118.116 58.7368C119.284 57.9743 120.709 57.4493 122.392 57.1617ZM122.581 60.9276C121.214 61.1613 120.325 61.9735 119.914 63.364C119.52 64.73 119.515 66.538 119.9 68.788C120.083 69.8604 120.313 70.8275 120.59 71.6891C120.889 72.5471 121.251 73.2751 121.678 73.873C122.122 74.4463 122.659 74.8632 123.288 75.1236C123.917 75.384 124.662 75.4405 125.524 75.293C126.891 75.0593 127.775 74.2805 128.177 72.9566C128.578 71.6327 128.586 69.8458 128.201 67.5958C128.018 66.5233 127.775 65.5476 127.474 64.6685C127.193 63.7859 126.829 63.0474 126.381 62.4531C125.95 61.8341 125.42 61.3944 124.792 61.134C124.159 60.8526 123.422 60.7838 122.581 60.9276ZM144.262 53.4222C145.923 53.1381 147.396 53.146 148.681 53.4457C149.966 53.7454 151.076 54.2914 152.013 55.0836C152.949 55.8758 153.711 56.9143 154.298 58.1989C154.904 59.459 155.348 60.9196 155.632 62.5809C155.913 64.2211 155.959 65.7605 155.772 67.1993C155.603 68.6134 155.191 69.8742 154.536 70.9817C153.882 72.0892 152.981 73.0224 151.833 73.7813C150.683 74.5191 149.266 75.0319 147.584 75.3195C145.923 75.6036 144.443 75.6186 143.144 75.3645C141.863 75.0858 140.756 74.5608 139.823 73.7897C138.887 72.9974 138.118 71.9818 137.517 70.7428C136.936 69.5002 136.502 68.0377 136.214 66.3555C135.934 64.7153 135.877 63.1776 136.043 61.7425C136.226 60.2827 136.643 58.9886 137.294 57.86C137.942 56.7104 138.839 55.7562 139.986 54.9973C141.154 54.2349 142.58 53.7098 144.262 53.4222ZM144.451 57.1881C143.084 57.4218 142.195 58.234 141.784 59.6246C141.39 60.9905 141.385 62.7985 141.77 65.0485C141.953 66.121 142.183 67.088 142.461 67.9496C142.759 68.8076 143.121 69.5356 143.548 70.1335C143.992 70.7068 144.529 71.1237 145.158 71.3841C145.787 71.6445 146.532 71.701 147.395 71.5536C148.761 71.3199 149.645 70.5411 150.047 69.2172C150.448 67.8933 150.456 66.1063 150.072 63.8563C149.888 62.7839 149.646 61.8081 149.344 60.9291C149.063 60.0464 148.699 59.3079 148.251 58.7136C147.82 58.0946 147.291 57.6549 146.662 57.3945C146.029 57.1131 145.292 57.0443 144.451 57.1881ZM157.002 51.536L162.206 50.6462L165.857 72.0002L160.653 72.8901L157.002 51.536ZM173.656 48.6884C173.617 50.2317 173.489 51.5738 173.273 52.7145C173.078 53.8517 172.817 54.8593 172.491 55.7375C172.162 56.5947 171.781 57.3415 171.349 57.9782C170.916 58.6148 170.454 59.2024 169.962 59.7411L179.263 69.7081L173.459 70.7005L164.203 60.2388L164.139 59.8602C164.988 59.2605 165.678 58.6122 166.209 57.9156C166.756 57.1943 167.186 56.4174 167.498 55.5849C167.807 54.7313 168.029 53.8168 168.165 52.8412C168.319 51.841 168.425 50.7516 168.483 49.5729L173.656 48.6884Z" fill="#002D3F"/>
<path d="M46.67 134.317L52.0859 133.368L57.7982 141.017L57.9745 140.987L60.7437 131.85L66.1596 130.9L61.1662 145.545L62.3407 152.244L57.5222 153.089L56.3477 146.39L46.67 134.317ZM87.5618 137.485C87.9488 139.692 87.8523 141.637 87.2726 143.32C86.6928 145.003 85.748 146.37 84.4381 147.421C83.1349 148.47 81.5854 149.153 79.7899 149.467C77.9879 149.783 76.2949 149.666 74.7112 149.116C73.1274 148.566 71.7772 147.601 70.6606 146.222C69.5493 144.836 68.8008 143.042 68.415 140.842C68.0281 138.635 68.1212 136.691 68.6945 135.009C69.2743 133.325 70.2158 131.959 71.5191 130.909C72.8224 129.86 74.3751 129.177 76.1771 128.861C77.9726 128.546 79.6617 128.661 81.2443 129.204C82.8335 129.747 84.1869 130.711 85.3047 132.096C86.4226 133.482 87.1749 135.278 87.5618 137.485ZM82.6062 138.354C82.3772 137.048 81.9977 135.977 81.4676 135.141C80.9439 134.304 80.2955 133.715 79.5221 133.373C78.7552 133.029 77.8887 132.942 76.9223 133.112C75.9625 133.28 75.1772 133.657 74.5664 134.241C73.9556 134.826 73.5431 135.602 73.3289 136.568C73.1213 137.533 73.1319 138.669 73.3608 139.975C73.5898 141.281 73.9661 142.352 74.4897 143.189C75.0198 144.025 75.6716 144.614 76.4449 144.956C77.2183 145.298 78.0849 145.385 79.0447 145.217C80.011 145.047 80.7963 144.671 81.4006 144.087C82.0114 143.502 82.4207 142.727 82.6283 141.762C82.8425 140.796 82.8351 139.66 82.6062 138.354ZM100.768 124.832L105.607 123.984L107.875 136.922C108.137 138.417 108.01 139.782 107.492 141.017C106.974 142.245 106.132 143.274 104.965 144.105C103.797 144.928 102.371 145.488 100.686 145.783C98.9823 146.082 97.441 146.043 96.0625 145.665C94.6828 145.281 93.5437 144.599 92.6451 143.62C91.7453 142.633 91.1644 141.393 90.9022 139.897L88.6339 126.96L93.4819 126.11L95.6763 138.626C95.7977 139.318 96.056 139.909 96.4514 140.398C96.8533 140.886 97.3553 141.236 97.9576 141.447C98.5598 141.657 99.2233 141.699 99.9481 141.572C100.673 141.445 101.279 141.181 101.767 140.779C102.262 140.376 102.615 139.876 102.827 139.281C103.039 138.685 103.084 138.041 102.963 137.349L100.768 124.832ZM112.162 143.509L108.645 123.451L116.931 121.999C118.432 121.735 119.776 121.779 120.961 122.13C122.152 122.473 123.133 123.095 123.903 123.996C124.672 124.891 125.177 126.024 125.418 127.395C125.662 128.786 125.565 130.021 125.128 131.1C124.691 132.173 123.958 133.062 122.931 133.767C121.903 134.466 120.625 134.949 119.097 135.217L113.857 136.135L113.187 132.316L117.526 131.555C118.257 131.427 118.851 131.225 119.308 130.95C119.77 130.667 120.093 130.307 120.279 129.871C120.464 129.428 120.502 128.896 120.393 128.276C120.285 127.656 120.068 127.166 119.742 126.806C119.415 126.439 118.986 126.198 118.454 126.082C117.921 125.96 117.293 125.963 116.568 126.09L114.178 126.509L117.01 142.659L112.162 143.509ZM121.847 132.362L128.449 140.653L123.16 141.581L116.656 133.272L121.847 132.362ZM144.727 123.323C144.536 122.617 144.147 122.109 143.562 121.802C142.981 121.486 142.218 121.411 141.271 121.577C140.644 121.687 140.136 121.86 139.747 122.097C139.358 122.333 139.084 122.614 138.925 122.937C138.766 123.255 138.715 123.597 138.772 123.964C138.812 124.266 138.917 124.52 139.088 124.726C139.265 124.931 139.496 125.099 139.782 125.23C140.073 125.354 140.412 125.449 140.801 125.516C141.189 125.582 141.621 125.625 142.095 125.642L143.887 125.732C144.918 125.773 145.843 125.907 146.663 126.134C147.49 126.359 148.205 126.674 148.808 127.08C149.417 127.485 149.912 127.987 150.293 128.586C150.674 129.186 150.938 129.886 151.086 130.688C151.301 131.956 151.172 133.099 150.698 134.118C150.224 135.136 149.435 135.992 148.331 136.683C147.234 137.373 145.85 137.865 144.178 138.158C142.5 138.452 140.994 138.457 139.658 138.173C138.323 137.889 137.22 137.295 136.348 136.392C135.476 135.488 134.893 134.254 134.599 132.691L139.241 131.877C139.393 132.516 139.661 133.025 140.043 133.402C140.426 133.779 140.904 134.031 141.478 134.159C142.059 134.286 142.705 134.288 143.417 134.163C144.07 134.048 144.61 133.863 145.036 133.606C145.468 133.349 145.781 133.042 145.974 132.685C146.168 132.328 146.232 131.946 146.168 131.54C146.095 131.163 145.92 130.86 145.645 130.633C145.368 130.399 144.975 130.225 144.464 130.113C143.958 129.993 143.325 129.912 142.564 129.871L140.382 129.748C138.575 129.655 137.095 129.251 135.94 128.539C134.784 127.819 134.076 126.698 133.816 125.176C133.592 123.936 133.734 122.791 134.243 121.739C134.752 120.688 135.555 119.797 136.652 119.066C137.748 118.335 139.057 117.837 140.579 117.57C142.133 117.297 143.527 117.325 144.763 117.654C146.003 117.975 147.023 118.553 147.823 119.389C148.622 120.225 149.137 121.265 149.369 122.51L144.727 123.323ZM154.554 136.077L151.038 116.019L155.885 115.169L158.712 131.289L167.056 129.826L167.746 133.764L154.554 136.077ZM186.648 120.112C187.035 122.319 186.939 124.264 186.359 125.948C185.779 127.631 184.834 128.998 183.524 130.048C182.221 131.098 180.672 131.78 178.876 132.095C177.074 132.411 175.381 132.294 173.797 131.744C172.214 131.194 170.863 130.229 169.747 128.85C168.636 127.463 167.887 125.67 167.501 123.469C167.114 121.263 167.207 119.318 167.781 117.636C168.361 115.953 169.302 114.587 170.605 113.537C171.909 112.487 173.461 111.805 175.263 111.489C177.059 111.174 178.748 111.288 180.331 111.832C181.92 112.374 183.273 113.338 184.391 114.724C185.509 116.109 186.261 117.906 186.648 120.112ZM181.692 120.981C181.464 119.676 181.084 118.605 180.554 117.769C180.03 116.932 179.382 116.342 178.608 116C177.842 115.657 176.975 115.57 176.009 115.739C175.049 115.908 174.264 116.284 173.653 116.869C173.042 117.454 172.629 118.23 172.415 119.196C172.208 120.161 172.218 121.296 172.447 122.602C172.676 123.908 173.052 124.98 173.576 125.816C174.106 126.652 174.758 127.241 175.531 127.583C176.305 127.926 177.171 128.013 178.131 127.844C179.097 127.675 179.883 127.298 180.487 126.715C181.098 126.13 181.507 125.355 181.715 124.39C181.929 123.423 181.921 122.287 181.692 120.981ZM186.839 113.8L186.148 109.863L203.101 106.891L203.792 110.828L197.71 111.894L200.536 128.015L195.757 128.853L192.93 112.732L186.839 113.8Z" fill="#C70000"/>
</g>
<defs>
<clipPath id="clip0_1_2">
<rect width="244" height="204" fill="white"/>
</clipPath>
</defs>
</svg>
