<svg width="65" height="254" viewBox="0 0 65 254" fill="none" xmlns="http://www.w3.org/2000/svg">
<path d="M27.132 244.928C29.5868 244.928 31.5804 246.919 31.5804 249.377C31.5804 251.835 29.5901 253.825 27.132 253.825C24.6738 253.825 22.6836 251.835 22.6836 249.377C22.6836 246.919 24.6738 244.928 27.132 244.928Z" fill="#FFCB05" style="fill:#FFCB05;fill:color(display-p3 1.0000 0.7961 0.0196);fill-opacity:1;"/>
<path d="M27.132 224.173C29.5868 224.173 31.5804 226.163 31.5804 228.621C31.5804 231.079 29.5901 233.069 27.132 233.069C24.6738 233.069 22.6836 231.079 22.6836 228.621C22.6836 226.163 24.6738 224.173 27.132 224.173Z" fill="white" style="fill:white;fill-opacity:1;"/>
<path d="M27.132 203.42C29.5868 203.42 31.5804 205.411 31.5804 207.869C31.5804 210.327 29.5901 212.317 27.132 212.317C24.6738 212.317 22.6836 210.327 22.6836 207.869C22.6836 205.411 24.6738 203.42 27.132 203.42Z" fill="#FFCB05" style="fill:#FFCB05;fill:color(display-p3 1.0000 0.7961 0.0196);fill-opacity:1;"/>
<path d="M27.132 182.664C29.5868 182.664 31.5804 184.654 31.5804 187.112C31.5804 189.571 29.5901 191.561 27.132 191.561C24.6738 191.561 22.6836 189.571 22.6836 187.112C22.6836 184.654 24.6738 182.664 27.132 182.664Z" fill="white" style="fill:white;fill-opacity:1;"/>
<path d="M27.132 161.911C29.5868 161.911 31.5804 163.902 31.5804 166.36C31.5804 168.818 29.5901 170.808 27.132 170.808C24.6738 170.808 22.6836 168.818 22.6836 166.36C22.6836 163.902 24.6738 161.911 27.132 161.911Z" fill="#1268B3" style="fill:#1268B3;fill:color(display-p3 0.0706 0.4078 0.7020);fill-opacity:1;"/>
<path d="M46.402 224.916C48.8588 224.916 50.8504 222.925 50.8504 220.468C50.8504 218.011 48.8588 216.02 46.402 216.02C43.9452 216.02 41.9536 218.011 41.9536 220.468C41.9536 222.925 43.9452 224.916 46.402 224.916Z" fill="white" style="fill:white;fill-opacity:1;"/>
<path d="M46.402 204.161C48.8588 204.161 50.8504 202.17 50.8504 199.713C50.8504 197.256 48.8588 195.264 46.402 195.264C43.9452 195.264 41.9536 197.256 41.9536 199.713C41.9536 202.17 43.9452 204.161 46.402 204.161Z" fill="#5FBB46" style="fill:#5FBB46;fill:color(display-p3 0.3725 0.7333 0.2745);fill-opacity:1;"/>
<path d="M46.402 183.405C48.8588 183.405 50.8504 181.413 50.8504 178.957C50.8504 176.5 48.8588 174.508 46.402 174.508C43.9452 174.508 41.9536 176.5 41.9536 178.957C41.9536 181.413 43.9452 183.405 46.402 183.405Z" fill="white" style="fill:white;fill-opacity:1;"/>
<path d="M46.402 162.652C48.8588 162.652 50.8504 160.661 50.8504 158.204C50.8504 155.747 48.8588 153.755 46.402 153.755C43.9452 153.755 41.9536 155.747 41.9536 158.204C41.9536 160.661 43.9452 162.652 46.402 162.652Z" fill="#5FBB46" style="fill:#5FBB46;fill:color(display-p3 0.3725 0.7333 0.2745);fill-opacity:1;"/>
<path d="M46.402 141.897C48.8588 141.897 50.8504 139.905 50.8504 137.448C50.8504 134.991 48.8588 133 46.402 133C43.9452 133 41.9536 134.991 41.9536 137.448C41.9536 139.905 43.9452 141.897 46.402 141.897Z" fill="white" style="fill:white;fill-opacity:1;"/>
<path d="M42.9481 83.9779C42.8341 72.4611 38.1174 62.04 30.5516 54.4742C22.9858 46.9084 12.5677 42.1917 1.04785 42.0776V62.6014C6.90236 62.7125 12.1894 65.1324 16.0414 68.9844C19.8934 72.8363 22.3132 78.1234 22.4243 83.9779H42.9481Z" fill="#FFCB05" style="fill:#FFCB05;fill:color(display-p3 1.0000 0.7961 0.0196);fill-opacity:1;"/>
<mask id="mask0_31_1521" style="mask-type:luminance" maskUnits="userSpaceOnUse" x="1" y="42" width="42" height="42">
<path d="M42.9484 83.9779C42.8343 72.4611 38.1177 62.04 30.5518 54.4742C22.986 46.9084 12.568 42.1917 1.0481 42.0776V62.6014C6.90261 62.7125 12.1897 65.1324 16.0416 68.9844C19.8936 72.8363 22.3135 78.1234 22.4246 83.9779H42.9484Z" fill="white" style="fill:white;fill-opacity:1;"/>
</mask>
<g mask="url(#mask0_31_1521)">
<path d="M20.5459 106.323L21.2996 107.077L66.0536 62.3231L65.3 61.5695L20.5459 106.323Z" fill="#F99B1C" style="fill:#F99B1C;fill:color(display-p3 0.9765 0.6078 0.1098);fill-opacity:1;"/>
<path d="M18.8897 104.677L19.6433 105.43L64.3974 60.6761L63.6437 59.9225L18.8897 104.677Z" fill="#F99B1C" style="fill:#F99B1C;fill:color(display-p3 0.9765 0.6078 0.1098);fill-opacity:1;"/>
<path d="M17.2615 103.042L18.0151 103.796L62.7692 59.0416L62.0155 58.288L17.2615 103.042Z" fill="#F99B1C" style="fill:#F99B1C;fill:color(display-p3 0.9765 0.6078 0.1098);fill-opacity:1;"/>
<path d="M15.6289 101.41L16.3826 102.164L61.1366 57.4095L60.383 56.6559L15.6289 101.41Z" fill="#F99B1C" style="fill:#F99B1C;fill:color(display-p3 0.9765 0.6078 0.1098);fill-opacity:1;"/>
<path d="M13.9859 99.7656L14.7395 100.519L59.4935 55.7652L58.7399 55.0116L13.9859 99.7656Z" fill="#F99B1C" style="fill:#F99B1C;fill:color(display-p3 0.9765 0.6078 0.1098);fill-opacity:1;"/>
<path d="M12.3443 98.1277L13.0979 98.8813L57.8519 54.1273L57.0983 53.3737L12.3443 98.1277Z" fill="#F99B1C" style="fill:#F99B1C;fill:color(display-p3 0.9765 0.6078 0.1098);fill-opacity:1;"/>
<path d="M10.7105 96.49L11.4641 97.2437L56.2182 52.4896L55.4645 51.736L10.7105 96.49Z" fill="#F99B1C" style="fill:#F99B1C;fill:color(display-p3 0.9765 0.6078 0.1098);fill-opacity:1;"/>
<path d="M9.06911 94.8523L9.82275 95.606L54.5768 50.8519L53.8232 50.0983L9.06911 94.8523Z" fill="#F99B1C" style="fill:#F99B1C;fill:color(display-p3 0.9765 0.6078 0.1098);fill-opacity:1;"/>
<path d="M7.42897 93.2107L8.18262 93.9644L52.9367 49.2103L52.183 48.4567L7.42897 93.2107Z" fill="#F99B1C" style="fill:#F99B1C;fill:color(display-p3 0.9765 0.6078 0.1098);fill-opacity:1;"/>
<path d="M5.79542 91.5789L6.54907 92.3325L51.3031 47.5785L50.5495 46.8248L5.79542 91.5789Z" fill="#F99B1C" style="fill:#F99B1C;fill:color(display-p3 0.9765 0.6078 0.1098);fill-opacity:1;"/>
<path d="M4.1653 89.9439L4.91895 90.6975L49.673 45.9435L48.9193 45.1898L4.1653 89.9439Z" fill="#F99B1C" style="fill:#F99B1C;fill:color(display-p3 0.9765 0.6078 0.1098);fill-opacity:1;"/>
<path d="M2.51393 88.2991L3.26758 89.0527L48.0216 44.2987L47.268 43.545L2.51393 88.2991Z" fill="#F99B1C" style="fill:#F99B1C;fill:color(display-p3 0.9765 0.6078 0.1098);fill-opacity:1;"/>
<path d="M0.883557 86.6626L1.63721 87.4163L46.3912 42.6622L45.6376 41.9086L0.883557 86.6626Z" fill="#F99B1C" style="fill:#F99B1C;fill:color(display-p3 0.9765 0.6078 0.1098);fill-opacity:1;"/>
<path d="M-0.755603 85.0264L-0.00195312 85.78L44.7521 41.026L43.9984 40.2723L-0.755603 85.0264Z" fill="#F99B1C" style="fill:#F99B1C;fill:color(display-p3 0.9765 0.6078 0.1098);fill-opacity:1;"/>
<path d="M-2.39159 83.3865L-1.63794 84.1401L43.1161 39.3861L42.3624 38.6325L-2.39159 83.3865Z" fill="#F99B1C" style="fill:#F99B1C;fill:color(display-p3 0.9765 0.6078 0.1098);fill-opacity:1;"/>
<path d="M-4.03124 81.751L-3.27759 82.5046L41.4765 37.7506L40.7228 36.9969L-4.03124 81.751Z" fill="#F99B1C" style="fill:#F99B1C;fill:color(display-p3 0.9765 0.6078 0.1098);fill-opacity:1;"/>
<path d="M-5.66966 80.113L-4.91602 80.8667L39.838 36.1127L39.0844 35.359L-5.66966 80.113Z" fill="#F99B1C" style="fill:#F99B1C;fill:color(display-p3 0.9765 0.6078 0.1098);fill-opacity:1;"/>
<path d="M-7.30638 78.4749L-6.55273 79.2285L38.2013 34.4745L37.4476 33.7208L-7.30638 78.4749Z" fill="#F99B1C" style="fill:#F99B1C;fill:color(display-p3 0.9765 0.6078 0.1098);fill-opacity:1;"/>
<path d="M-8.95091 76.834L-8.19727 77.5876L36.5568 32.8336L35.8031 32.0799L-8.95091 76.834Z" fill="#F99B1C" style="fill:#F99B1C;fill:color(display-p3 0.9765 0.6078 0.1098);fill-opacity:1;"/>
<path d="M-10.5762 75.2053L-9.82251 75.959L34.9315 31.2049L34.1779 30.4513L-10.5762 75.2053Z" fill="#F99B1C" style="fill:#F99B1C;fill:color(display-p3 0.9765 0.6078 0.1098);fill-opacity:1;"/>
<path d="M-12.2204 73.5618L-11.4668 74.3154L33.2872 29.5614L32.5336 28.8077L-12.2204 73.5618Z" fill="#F99B1C" style="fill:#F99B1C;fill:color(display-p3 0.9765 0.6078 0.1098);fill-opacity:1;"/>
<path d="M-13.8577 71.9234L-13.104 72.677L31.65 27.923L30.8964 27.1693L-13.8577 71.9234Z" fill="#F99B1C" style="fill:#F99B1C;fill:color(display-p3 0.9765 0.6078 0.1098);fill-opacity:1;"/>
<path d="M-15.4958 70.2852L-14.7422 71.0388L30.0119 26.2848L29.2582 25.5311L-15.4958 70.2852Z" fill="#F99B1C" style="fill:#F99B1C;fill:color(display-p3 0.9765 0.6078 0.1098);fill-opacity:1;"/>
<path d="M-17.1333 68.6475L-16.3796 69.4011L28.3744 24.6471L27.6208 23.8934L-17.1333 68.6475Z" fill="#F99B1C" style="fill:#F99B1C;fill:color(display-p3 0.9765 0.6078 0.1098);fill-opacity:1;"/>
<path d="M-18.7715 67.0095L-18.0178 67.7632L26.7362 23.0091L25.9826 22.2555L-18.7715 67.0095Z" fill="#F99B1C" style="fill:#F99B1C;fill:color(display-p3 0.9765 0.6078 0.1098);fill-opacity:1;"/>
<path d="M-20.4087 65.3723L-19.655 66.126L25.099 21.3719L24.3454 20.6183L-20.4087 65.3723Z" fill="#F99B1C" style="fill:#F99B1C;fill:color(display-p3 0.9765 0.6078 0.1098);fill-opacity:1;"/>
<path d="M-22.0442 63.7405L-21.2905 64.4941L23.4635 19.7401L22.7099 18.9864L-22.0442 63.7405Z" fill="#F99B1C" style="fill:#F99B1C;fill:color(display-p3 0.9765 0.6078 0.1098);fill-opacity:1;"/>
</g>
<path d="M64.9999 84.2331C64.9999 90.2557 62.559 95.7109 58.611 99.6559C54.663 103.604 49.2108 106.045 43.1881 106.045H42.7588V83.8037H64.9969V84.2331H64.9999Z" fill="white" style="fill:white;fill-opacity:1;"/>
<path d="M0 105.613C0 99.5899 2.44388 94.1377 6.38892 90.1926C10.334 86.2446 15.7862 83.8037 21.8088 83.8037H22.2411V106.045H0V105.616V105.613Z" fill="#2D803B" style="fill:#2D803B;fill:color(display-p3 0.1765 0.5020 0.2314);fill-opacity:1;"/>
<path d="M43.6236 0C43.7347 5.61433 46.0585 10.6882 49.7543 14.3871C53.4502 18.0829 58.5241 20.4037 64.1384 20.5178V0H43.6206H43.6236Z" fill="#A41E22" style="fill:#A41E22;fill:color(display-p3 0.6431 0.1176 0.1333);fill-opacity:1;"/>
<path d="M30.3624 29.5067C37.9282 21.9409 42.6418 11.5199 42.7589 0H22.2351C22.124 5.85151 19.7042 11.1416 15.8522 14.9936C12.0002 18.8455 6.71315 21.2654 0.858643 21.3765V41.9003C12.3785 41.7862 22.7965 37.0726 30.3624 29.5037V29.5067Z" fill="#034EA2" style="fill:#034EA2;fill:color(display-p3 0.0118 0.3059 0.6353);fill-opacity:1;"/>
</svg>
