<svg width="58" height="168" viewBox="0 0 58 168" fill="none" xmlns="http://www.w3.org/2000/svg">
<path d="M30.9605 57.3557C34.5012 57.8086 38.2037 56.6764 40.924 53.9591C43.6442 51.2388 44.7734 47.5364 44.3206 43.9986C40.7798 43.5457 37.0774 44.675 34.3601 47.3952C31.6398 50.1155 30.5105 53.818 30.9634 57.3587L30.9605 57.3557Z" fill="#00703D" style="fill:#00703D;fill:color(display-p3 0.0000 0.4392 0.2392);fill-opacity:1;"/>
<path d="M30.9605 79.4851C34.5012 79.938 38.2037 78.8058 40.924 76.0885C43.6442 73.3682 44.7734 69.6658 44.3206 66.128C40.7798 65.6751 37.0774 66.8044 34.3601 69.5246C31.6398 72.2449 30.5105 75.9473 30.9634 79.4881L30.9605 79.4851Z" fill="#00703D" style="fill:#00703D;fill:color(display-p3 0.0000 0.4392 0.2392);fill-opacity:1;"/>
<path d="M30.9605 101.615C34.5012 102.068 38.2037 100.939 40.924 98.2184C43.6442 95.4981 44.7734 91.7956 44.3206 88.2578C40.7798 87.805 37.0774 88.9342 34.3601 91.6545C31.6398 94.3747 30.5105 98.0772 30.9634 101.618L30.9605 101.615Z" fill="#00A651" style="fill:#00A651;fill:color(display-p3 0.0000 0.6510 0.3176);fill-opacity:1;"/>
<path d="M30.9605 123.741C34.5012 124.194 38.2037 123.065 40.924 120.345C43.6442 117.625 44.7734 113.922 44.3206 110.384C40.7798 109.931 37.0774 111.061 34.3601 113.781C31.6398 116.501 30.5105 120.204 30.9634 123.744L30.9605 123.741Z" fill="#00703D" style="fill:#00703D;fill:color(display-p3 0.0000 0.4392 0.2392);fill-opacity:1;"/>
<path d="M25.42 67.9163C21.8793 68.3691 18.1767 67.237 15.4565 64.5196C12.7362 61.7994 11.607 58.0969 12.0598 54.5591C15.6006 54.1062 19.3031 55.2355 22.0204 57.9557C24.7407 60.676 25.8699 64.3785 25.4171 67.9192L25.42 67.9163Z" fill="#00A651" style="fill:#00A651;fill:color(display-p3 0.0000 0.6510 0.3176);fill-opacity:1;"/>
<path d="M25.42 90.0456C21.8793 90.4985 18.1767 89.3693 15.4565 86.649C12.7362 83.9288 11.607 80.2263 12.0598 76.6885C15.6006 76.2356 19.3031 77.3649 22.0204 80.0851C24.7407 82.8054 25.8699 86.5079 25.4171 90.0486L25.42 90.0456Z" fill="#00703D" style="fill:#00703D;fill:color(display-p3 0.0000 0.4392 0.2392);fill-opacity:1;"/>
<path d="M25.42 112.176C21.8793 112.628 18.1767 111.499 15.4565 108.779C12.7362 106.059 11.607 102.356 12.0598 98.8184C15.6006 98.3655 19.3031 99.4948 22.0204 102.215C24.7407 104.935 25.8699 108.638 25.4171 112.178L25.42 112.176Z" fill="#00A651" style="fill:#00A651;fill:color(display-p3 0.0000 0.6510 0.3176);fill-opacity:1;"/>
<path d="M25.42 134.303C21.8793 134.755 18.1767 133.626 15.4565 130.906C12.7362 128.186 11.607 124.483 12.0598 120.945C15.6006 120.492 19.3031 121.622 22.0204 124.342C24.7407 127.062 25.8699 130.765 25.4171 134.305L25.42 134.303Z" fill="#00A651" style="fill:#00A651;fill:color(display-p3 0.0000 0.6510 0.3176);fill-opacity:1;"/>
<path d="M28.4109 28.1089V167.1" stroke="#F0B031" style="stroke:#F0B031;stroke:color(display-p3 0.9412 0.6902 0.1922);stroke-opacity:1;" stroke-width="2.98198" stroke-miterlimit="10"/>
<path d="M28.252 25.9537C68.6675 46.4953 31.2252 70.8658 28.8049 25.5949C31.2252 70.8658 -8.60224 50.6242 29.393 25.8949C-8.60224 50.6271 -10.9873 6.01501 29.4283 26.5536C-10.9873 6.01207 26.4552 -18.3584 28.8755 26.9124C26.4552 -18.3584 66.2826 1.88316 28.2873 26.6124C66.2826 1.88022 68.6675 46.4923 28.252 25.9537Z" fill="#FAA61A" style="fill:#FAA61A;fill:color(display-p3 0.9804 0.6510 0.1020);fill-opacity:1;"/>
</svg>
