<svg width="400" height="136" viewBox="0 0 400 136" fill="none" xmlns="http://www.w3.org/2000/svg">
<path d="M199.697 16.9292C209.677 16.9292 218.988 20.7468 225.918 27.6765L229.907 23.6869C221.914 15.6906 211.184 11.2861 199.697 11.2861C188.21 11.289 177.48 15.6906 169.487 23.6869L173.476 27.6765C180.406 20.7468 189.717 16.9292 199.697 16.9292ZM215.698 40.3679C207.025 31.6944 192.369 31.6944 183.696 40.3679L187.686 44.3576C194.195 37.8482 205.199 37.8482 211.708 44.3576L215.698 40.3679Z" fill="white" style="fill:white;fill-opacity:1;"/>
<path d="M223.502 31.8639C210.602 18.9581 188.794 18.9581 175.894 31.8639L179.884 35.8536C190.626 25.1119 208.771 25.1119 219.513 35.8536L223.502 31.8639Z" fill="white" style="fill:white;fill-opacity:1;"/>
<path d="M199.697 56.4312C202.814 56.4312 205.34 53.9047 205.34 50.7881C205.34 47.6715 202.814 45.145 199.697 45.145C196.58 45.145 194.054 47.6715 194.054 50.7881C194.054 53.9047 196.58 56.4312 199.697 56.4312Z" fill="white" style="fill:white;fill-opacity:1;"/>
<path d="M93.2871 93.5464L95.1787 91.2134C95.8233 91.7739 96.4678 92.1733 97.1124 92.4115C97.7569 92.6497 98.4575 92.7688 99.2142 92.7688C99.9848 92.7688 100.594 92.6777 101.043 92.4955C101.491 92.2994 101.715 91.9841 101.715 91.5497C101.715 91.1434 101.519 90.8141 101.127 90.5619C100.734 90.2957 100.244 90.0504 99.6555 89.8263C99.081 89.6021 98.4505 89.3709 97.7639 89.1327C97.0914 88.8945 96.4608 88.6002 95.8723 88.2499C95.2978 87.8856 94.8144 87.4372 94.4221 86.9048C94.0297 86.3583 93.8336 85.6787 93.8336 84.866C93.8336 84.2215 93.9737 83.633 94.2539 83.1005C94.5482 82.5681 94.9405 82.1127 95.4309 81.7344C95.9214 81.356 96.4958 81.0688 97.1544 80.8726C97.827 80.6624 98.5416 80.5574 99.2982 80.5574C100.195 80.5574 101.05 80.7185 101.862 81.0408C102.675 81.349 103.495 81.8254 104.322 82.47L102.493 84.866C102.031 84.4176 101.498 84.0814 100.896 83.8572C100.307 83.619 99.7746 83.4999 99.2982 83.4999C98.976 83.4999 98.6677 83.5349 98.3734 83.605C98.0792 83.675 97.82 83.7731 97.5958 83.8992C97.3856 84.0253 97.2105 84.1724 97.0703 84.3406C96.9442 84.4947 96.8812 84.6699 96.8812 84.866C96.8812 85.1743 96.9933 85.4335 97.2175 85.6437C97.4416 85.8539 97.7359 86.05 98.1002 86.2322C98.4785 86.4003 98.8989 86.5685 99.3613 86.7366C99.8377 86.8908 100.321 87.0659 100.812 87.2621C101.316 87.4442 101.799 87.6544 102.262 87.8926C102.738 88.1308 103.159 88.4181 103.523 88.7543C103.901 89.0766 104.202 89.4689 104.427 89.9313C104.651 90.3937 104.763 90.9332 104.763 91.5497C104.763 92.1803 104.63 92.7547 104.364 93.2732C104.097 93.7776 103.719 94.212 103.229 94.5763C102.752 94.9406 102.171 95.2209 101.484 95.417C100.812 95.6132 100.055 95.7113 99.2142 95.7113C96.9582 95.7113 94.9826 94.9897 93.2871 93.5464ZM107.08 93.5464L108.972 91.2134C109.616 91.7739 110.261 92.1733 110.905 92.4115C111.55 92.6497 112.251 92.7688 113.007 92.7688C113.778 92.7688 114.387 92.6777 114.836 92.4955C115.284 92.2994 115.508 91.9841 115.508 91.5497C115.508 91.1434 115.312 90.8141 114.92 90.5619C114.527 90.2957 114.037 90.0504 113.449 89.8263C112.874 89.6021 112.244 89.3709 111.557 89.1327C110.884 88.8945 110.254 88.6002 109.665 88.2499C109.091 87.8856 108.607 87.4372 108.215 86.9048C107.823 86.3583 107.627 85.6787 107.627 84.866C107.627 84.2215 107.767 83.633 108.047 83.1005C108.341 82.5681 108.734 82.1127 109.224 81.7344C109.714 81.356 110.289 81.0688 110.947 80.8726C111.62 80.6624 112.335 80.5574 113.091 80.5574C113.988 80.5574 114.843 80.7185 115.655 81.0408C116.468 81.349 117.288 81.8254 118.115 82.47L116.286 84.866C115.824 84.4176 115.291 84.0814 114.689 83.8572C114.1 83.619 113.568 83.4999 113.091 83.4999C112.769 83.4999 112.461 83.5349 112.166 83.605C111.872 83.675 111.613 83.7731 111.389 83.8992C111.179 84.0253 111.003 84.1724 110.863 84.3406C110.737 84.4947 110.674 84.6699 110.674 84.866C110.674 85.1743 110.786 85.4335 111.01 85.6437C111.235 85.8539 111.529 86.05 111.893 86.2322C112.272 86.4003 112.692 86.5685 113.154 86.7366C113.631 86.8908 114.114 87.0659 114.605 87.2621C115.109 87.4442 115.592 87.6544 116.055 87.8926C116.531 88.1308 116.952 88.4181 117.316 88.7543C117.694 89.0766 117.995 89.4689 118.22 89.9313C118.444 90.3937 118.556 90.9332 118.556 91.5497C118.556 92.1803 118.423 92.7547 118.157 93.2732C117.89 93.7776 117.512 94.212 117.022 94.5763C116.545 94.9406 115.964 95.2209 115.277 95.417C114.605 95.6132 113.848 95.7113 113.007 95.7113C110.751 95.7113 108.776 94.9897 107.08 93.5464ZM123.942 95.5431H120.873V80.7255H123.942V95.5431ZM131.505 80.7255C132.514 80.7255 133.439 80.9357 134.28 81.356C135.134 81.7624 135.863 82.3088 136.465 82.9954C137.082 83.668 137.558 84.4527 137.895 85.3494C138.231 86.2322 138.399 87.157 138.399 88.1238C138.399 89.0906 138.231 90.0224 137.895 90.9192C137.558 91.8159 137.082 92.6076 136.465 93.2942C135.863 93.9668 135.134 94.5132 134.28 94.9336C133.439 95.34 132.514 95.5431 131.505 95.5431H126.251V80.7255H131.505ZM131.505 92.4745C132.178 92.4745 132.752 92.3414 133.229 92.0752C133.719 91.7949 134.118 91.4446 134.427 91.0243C134.749 90.6039 134.98 90.1415 135.12 89.6371C135.274 89.1187 135.351 88.6142 135.351 88.1238C135.351 87.6334 135.274 87.136 135.12 86.6315C134.98 86.1131 134.749 85.6437 134.427 85.2233C134.118 84.803 133.719 84.4597 133.229 84.1935C132.752 83.9132 132.178 83.7731 131.505 83.7731H129.319V92.4745H131.505ZM143.769 92.4955V95.5431H140.721V92.4955H143.769ZM143.769 84.3826V87.4302H140.721V84.3826H143.769Z" fill="white" style="fill:white;fill-opacity:1;"/>
<path d="M160.396 95.5431V80.7255H163.444V86.6736H168.782V80.7255H171.809V95.5431H168.782V89.6161H163.444V95.5431H160.396ZM177.196 84.4247V90.688C177.196 90.9682 177.203 91.2625 177.217 91.5707C177.231 91.879 177.28 92.1662 177.364 92.4325C177.462 92.6847 177.602 92.8949 177.784 93.063C177.98 93.2312 178.254 93.3152 178.604 93.3152C178.94 93.3152 179.227 93.2382 179.466 93.084C179.704 92.9299 179.9 92.7337 180.054 92.4955C180.222 92.2433 180.341 91.9631 180.411 91.6548C180.495 91.3325 180.537 91.0033 180.537 90.667V84.4247H183.585V95.5431H180.537V94.4082C179.669 95.2769 178.632 95.7113 177.427 95.7113C176.656 95.7113 176.047 95.5641 175.598 95.2699C175.164 94.9616 174.835 94.5693 174.61 94.0929C174.4 93.6025 174.267 93.056 174.211 92.4535C174.169 91.851 174.148 91.2555 174.148 90.667V84.4247H177.196ZM191.647 84.2775C192.656 84.2775 193.567 84.5017 194.38 84.9501V80.4312H197.427V95.5431H194.38V95.0597C193.567 95.5081 192.656 95.7323 191.647 95.7323C190.863 95.7323 190.12 95.5852 189.419 95.2909C188.719 94.9826 188.102 94.5763 187.57 94.0719C187.051 93.5534 186.638 92.9439 186.33 92.2433C186.036 91.5427 185.888 90.7931 185.888 89.9944C185.888 89.1957 186.036 88.4531 186.33 87.7665C186.638 87.0659 187.051 86.4634 187.57 85.959C188.102 85.4405 188.719 85.0342 189.419 84.7399C190.12 84.4317 190.863 84.2775 191.647 84.2775ZM188.957 89.9103C188.957 90.3447 189.013 90.7651 189.125 91.1714C189.251 91.5637 189.426 91.914 189.651 92.2223C189.875 92.5165 190.148 92.7547 190.47 92.9369C190.807 93.1191 191.185 93.2101 191.605 93.2101C191.942 93.2101 192.271 93.1471 192.593 93.021C192.929 92.8949 193.231 92.6987 193.497 92.4325C193.763 92.1662 193.973 91.83 194.127 91.4236C194.296 91.0173 194.38 90.5409 194.38 89.9944C194.38 89.5881 194.317 89.1957 194.191 88.8174C194.078 88.4251 193.903 88.0818 193.665 87.7875C193.441 87.4933 193.161 87.2551 192.824 87.0729C192.488 86.8908 192.096 86.7997 191.647 86.7997C191.339 86.7997 191.024 86.8627 190.702 86.9888C190.379 87.1149 190.085 87.3041 189.819 87.5563C189.567 87.8085 189.356 88.1308 189.188 88.5231C189.034 88.9155 188.957 89.3779 188.957 89.9103ZM205.522 84.2775C206.531 84.2775 207.442 84.5017 208.255 84.9501V80.4312H211.302V95.5431H208.255V95.0597C207.442 95.5081 206.531 95.7323 205.522 95.7323C204.738 95.7323 203.995 95.5852 203.295 95.2909C202.594 94.9826 201.977 94.5763 201.445 94.0719C200.927 93.5534 200.513 92.9439 200.205 92.2433C199.911 91.5427 199.764 90.7931 199.764 89.9944C199.764 89.1957 199.911 88.4531 200.205 87.7665C200.513 87.0659 200.927 86.4634 201.445 85.959C201.977 85.4405 202.594 85.0342 203.295 84.7399C203.995 84.4317 204.738 84.2775 205.522 84.2775ZM202.832 89.9103C202.832 90.3447 202.888 90.7651 203 91.1714C203.126 91.5637 203.302 91.914 203.526 92.2223C203.75 92.5165 204.023 92.7547 204.345 92.9369C204.682 93.1191 205.06 93.2101 205.48 93.2101C205.817 93.2101 206.146 93.1471 206.468 93.021C206.805 92.8949 207.106 92.6987 207.372 92.4325C207.638 92.1662 207.848 91.83 208.003 91.4236C208.171 91.0173 208.255 90.5409 208.255 89.9944C208.255 89.5881 208.192 89.1957 208.066 88.8174C207.954 88.4251 207.778 88.0818 207.54 87.7875C207.316 87.4933 207.036 87.2551 206.699 87.0729C206.363 86.8908 205.971 86.7997 205.522 86.7997C205.214 86.7997 204.899 86.8627 204.577 86.9888C204.254 87.1149 203.96 87.3041 203.694 87.5563C203.442 87.8085 203.232 88.1308 203.063 88.5231C202.909 88.9155 202.832 89.3779 202.832 89.9103ZM213.639 80.4312H216.686V90.0995C216.686 90.5759 216.756 90.9682 216.896 91.2765C217.037 91.5848 217.226 91.83 217.464 92.0121C217.702 92.1943 217.982 92.3204 218.305 92.3904C218.641 92.4605 218.998 92.4955 219.377 92.4955V95.5431C218.48 95.5431 217.674 95.4591 216.96 95.2909C216.259 95.1228 215.663 94.8285 215.173 94.4082C214.683 93.9878 214.304 93.4273 214.038 92.7267C213.772 92.0261 213.639 91.1504 213.639 90.0995V80.4312ZM219.981 89.9944C219.981 89.2097 220.128 88.4741 220.422 87.7875C220.717 87.1009 221.116 86.4984 221.62 85.98C222.139 85.4475 222.748 85.0342 223.449 84.7399C224.15 84.4317 224.906 84.2775 225.719 84.2775C226.616 84.2775 227.421 84.4597 228.136 84.824C228.851 85.1883 229.446 85.6787 229.922 86.2952C230.413 86.9118 230.777 87.6194 231.015 88.4181C231.254 89.2027 231.345 90.0294 231.289 90.8982H223.008C223.008 91.2064 223.078 91.5007 223.218 91.7809C223.358 92.0612 223.547 92.3064 223.785 92.5165C224.037 92.7267 224.325 92.8949 224.647 93.021C224.983 93.1471 225.334 93.2101 225.698 93.2101C226.02 93.2101 226.307 93.1611 226.56 93.063C226.812 92.9649 227.043 92.8318 227.253 92.6637C227.477 92.4955 227.681 92.3064 227.863 92.0962C228.045 91.872 228.227 91.6478 228.409 91.4236L230.553 92.8949C230.245 93.3152 229.922 93.7006 229.586 94.0509C229.25 94.4012 228.886 94.7024 228.493 94.9546C228.101 95.2068 227.681 95.403 227.232 95.5431C226.784 95.6692 226.293 95.7323 225.761 95.7323C224.948 95.7323 224.185 95.5852 223.47 95.2909C222.769 94.9826 222.16 94.5693 221.641 94.0509C221.123 93.5324 220.717 92.9299 220.422 92.2433C220.128 91.5427 219.981 90.7931 219.981 89.9944ZM223.155 88.6282H228.136C228.024 88.2219 227.856 87.8996 227.632 87.6614C227.421 87.4232 227.19 87.2411 226.938 87.1149C226.7 86.9888 226.462 86.9048 226.223 86.8627C225.985 86.8207 225.789 86.7997 225.635 86.7997C225.467 86.7997 225.264 86.8207 225.025 86.8627C224.801 86.9048 224.57 86.9888 224.332 87.1149C224.108 87.2411 223.883 87.4232 223.659 87.6614C223.449 87.8996 223.281 88.2219 223.155 88.6282ZM242.773 91.4446H233.63V88.397H242.773V91.4446ZM245.083 88.1238C245.083 87.1009 245.273 86.1341 245.651 85.2233C246.043 84.3126 246.569 83.5209 247.227 82.8483C247.9 82.1617 248.685 81.6223 249.581 81.2299C250.492 80.8376 251.466 80.6414 252.503 80.6414C253.554 80.6414 254.535 80.8446 255.445 81.2509C256.356 81.6573 257.148 82.2178 257.82 82.9324L255.719 85.0132C255.326 84.5367 254.857 84.1584 254.31 83.8782C253.764 83.5979 253.161 83.4578 252.503 83.4578C251.872 83.4578 251.291 83.5909 250.758 83.8572C250.226 84.1094 249.763 84.4527 249.371 84.887C248.979 85.3214 248.671 85.8188 248.446 86.3793C248.236 86.9398 248.131 87.5213 248.131 88.1238C248.131 88.7263 248.236 89.3148 248.446 89.8893C248.671 90.4498 248.979 90.9472 249.371 91.3816C249.763 91.8159 250.226 92.1662 250.758 92.4325C251.291 92.6847 251.872 92.8108 252.503 92.8108C253.091 92.8108 253.631 92.6987 254.121 92.4745C254.626 92.2363 255.074 91.928 255.466 91.5497V90.7721H253.449V87.9346H258.514V95.5431H255.466V95.0177C254.527 95.424 253.54 95.6272 252.503 95.6272C251.466 95.6272 250.492 95.431 249.581 95.0387C248.685 94.6323 247.9 94.0929 247.227 93.4203C246.569 92.7337 246.043 91.9351 245.651 91.0243C245.273 90.1135 245.083 89.1467 245.083 88.1238ZM263.874 84.4247V90.688C263.874 90.9682 263.881 91.2625 263.895 91.5707C263.909 91.879 263.958 92.1662 264.042 92.4325C264.14 92.6847 264.28 92.8949 264.462 93.063C264.659 93.2312 264.932 93.3152 265.282 93.3152C265.618 93.3152 265.906 93.2382 266.144 93.084C266.382 92.9299 266.578 92.7337 266.732 92.4955C266.901 92.2433 267.02 91.9631 267.09 91.6548C267.174 91.3325 267.216 91.0033 267.216 90.667V84.4247H270.263V95.5431H267.216V94.4082C266.347 95.2769 265.31 95.7113 264.105 95.7113C263.334 95.7113 262.725 95.5641 262.277 95.2699C261.842 94.9616 261.513 94.5693 261.289 94.0929C261.079 93.6025 260.945 93.056 260.889 92.4535C260.847 91.851 260.826 91.2555 260.826 90.667V84.4247H263.874ZM272.567 89.9944C272.567 89.2097 272.714 88.4741 273.008 87.7875C273.302 87.1009 273.702 86.4984 274.206 85.98C274.725 85.4475 275.334 85.0342 276.035 84.7399C276.735 84.4317 277.492 84.2775 278.305 84.2775C279.201 84.2775 280.007 84.4597 280.722 84.824C281.436 85.1883 282.032 85.6787 282.508 86.2952C282.999 86.9118 283.363 87.6194 283.601 88.4181C283.839 89.2027 283.931 90.0294 283.874 90.8982H275.593C275.593 91.2064 275.663 91.5007 275.804 91.7809C275.944 92.0612 276.133 92.3064 276.371 92.5165C276.623 92.7267 276.911 92.8949 277.233 93.021C277.569 93.1471 277.919 93.2101 278.284 93.2101C278.606 93.2101 278.893 93.1611 279.145 93.063C279.398 92.9649 279.629 92.8318 279.839 92.6637C280.063 92.4955 280.266 92.3064 280.449 92.0962C280.631 91.872 280.813 91.6478 280.995 91.4236L283.139 92.8949C282.831 93.3152 282.508 93.7006 282.172 94.0509C281.836 94.4012 281.471 94.7024 281.079 94.9546C280.687 95.2068 280.266 95.403 279.818 95.5431C279.37 95.6692 278.879 95.7323 278.347 95.7323C277.534 95.7323 276.77 95.5852 276.056 95.2909C275.355 94.9826 274.746 94.5693 274.227 94.0509C273.709 93.5324 273.302 92.9299 273.008 92.2433C272.714 91.5427 272.567 90.7931 272.567 89.9944ZM275.741 88.6282H280.722C280.61 88.2219 280.442 87.8996 280.217 87.6614C280.007 87.4232 279.776 87.2411 279.524 87.1149C279.286 86.9888 279.047 86.9048 278.809 86.8627C278.571 86.8207 278.375 86.7997 278.221 86.7997C278.053 86.7997 277.849 86.8207 277.611 86.8627C277.387 86.9048 277.156 86.9888 276.918 87.1149C276.693 87.2411 276.469 87.4232 276.245 87.6614C276.035 87.8996 275.867 88.2219 275.741 88.6282ZM287.284 92.2643C287.816 92.7127 288.314 93.042 288.776 93.2522C289.252 93.4624 289.736 93.5674 290.226 93.5674C290.493 93.5674 290.71 93.5254 290.878 93.4413C291.046 93.3433 291.179 93.2312 291.277 93.105C291.375 92.9789 291.438 92.8528 291.466 92.7267C291.508 92.6006 291.529 92.5025 291.529 92.4325C291.529 92.1522 291.389 91.928 291.109 91.7599C290.843 91.5918 290.507 91.4306 290.1 91.2765C289.694 91.1224 289.245 90.9682 288.755 90.8141C288.279 90.646 287.837 90.4358 287.431 90.1836C287.025 89.9313 286.681 89.6161 286.401 89.2378C286.135 88.8454 286.002 88.355 286.002 87.7665C286.002 87.234 286.114 86.7506 286.338 86.3163C286.562 85.8819 286.863 85.5176 287.242 85.2233C287.634 84.9151 288.089 84.6839 288.608 84.5297C289.14 84.3616 289.701 84.2775 290.289 84.2775C290.99 84.2775 291.663 84.4036 292.307 84.6558C292.966 84.9081 293.652 85.3074 294.367 85.8539L292.685 87.6404C292.363 87.3181 292.013 87.0449 291.635 86.8207C291.256 86.5825 290.829 86.4634 290.352 86.4634C289.946 86.4634 289.617 86.5545 289.365 86.7366C289.126 86.9188 289.007 87.171 289.007 87.4933C289.007 87.8015 289.14 88.0397 289.407 88.2079C289.687 88.376 290.03 88.5231 290.436 88.6493C290.857 88.7754 291.305 88.9085 291.782 89.0486C292.272 89.1887 292.72 89.3849 293.127 89.6371C293.547 89.8893 293.89 90.2186 294.157 90.6249C294.437 91.0313 294.577 91.5707 294.577 92.2433C294.577 92.8038 294.472 93.3012 294.262 93.7356C294.052 94.17 293.75 94.5343 293.358 94.8285C292.966 95.1228 292.503 95.347 291.971 95.5011C291.438 95.6552 290.843 95.7323 290.184 95.7323C289.316 95.7323 288.503 95.5922 287.746 95.3119C286.99 95.0317 286.247 94.5763 285.518 93.9458L287.284 92.2643ZM296.068 86.9468V84.4247H297.498V82.2388H300.545V84.4247H303.509V86.9468H300.545V90.8141C300.545 91.2345 300.643 91.5567 300.839 91.7809C301.036 92.0051 301.281 92.1733 301.575 92.2853C301.883 92.3834 302.206 92.4465 302.542 92.4745C302.892 92.4885 303.214 92.4955 303.509 92.4955V95.5431C303.34 95.5431 303.074 95.5361 302.71 95.5221C302.36 95.5081 301.96 95.4591 301.512 95.375C301.064 95.2769 300.601 95.1368 300.125 94.9546C299.662 94.7585 299.235 94.4852 298.843 94.1349C298.45 93.7846 298.128 93.3433 297.876 92.8108C297.624 92.2643 297.498 91.5988 297.498 90.8141V86.9468H296.068Z" fill="white" style="fill:white;fill-opacity:1;"/>
<path d="M0 122.034C0 121.011 0.189161 120.044 0.567484 119.133C0.959818 118.222 1.48527 117.431 2.14383 116.758C2.8164 116.072 3.60107 115.532 4.49783 115.14C5.40861 114.748 6.38244 114.551 7.41932 114.551C8.47022 114.551 9.45105 114.755 10.3618 115.161C11.2726 115.567 12.0643 116.128 12.7369 116.842L10.6351 118.923C10.2427 118.447 9.77333 118.068 9.22686 117.788C8.6804 117.508 8.07788 117.368 7.41932 117.368C6.78879 117.368 6.20729 117.501 5.67484 117.767C5.14238 118.019 4.67999 118.363 4.28765 118.797C3.89532 119.231 3.58706 119.729 3.36287 120.289C3.15269 120.85 3.0476 121.431 3.0476 122.034C3.0476 122.636 3.15269 123.225 3.36287 123.799C3.58706 124.36 3.89532 124.857 4.28765 125.291C4.67999 125.726 5.14238 126.076 5.67484 126.342C6.20729 126.595 6.78879 126.721 7.41932 126.721C8.06387 126.721 8.65237 126.588 9.18483 126.321C9.71728 126.041 10.1797 125.677 10.572 125.228L12.6948 127.288C12.0222 127.989 11.2376 128.542 10.3408 128.949C9.44405 129.341 8.47022 129.537 7.41932 129.537C6.38244 129.537 5.40861 129.341 4.49783 128.949C3.60107 128.542 2.8164 128.003 2.14383 127.33C1.48527 126.644 0.959818 125.845 0.567484 124.934C0.189161 124.023 0 123.057 0 122.034ZM14.3677 126.258C14.3677 125.6 14.5288 125.053 14.8511 124.619C15.1734 124.185 15.5727 123.834 16.0491 123.568C16.5256 123.288 17.037 123.092 17.5835 122.98C18.1299 122.867 18.6203 122.811 19.0547 122.811H21.2826C21.2826 122.587 21.2616 122.363 21.2196 122.139C21.1775 121.901 21.0934 121.69 20.9673 121.508C20.8552 121.312 20.6871 121.158 20.4629 121.046C20.2527 120.92 19.9725 120.857 19.6222 120.857C19.2579 120.857 18.8515 120.941 18.4032 121.109C17.9548 121.263 17.4013 121.564 16.7427 122.013L15.1664 120.016C15.4887 119.764 15.839 119.54 16.2173 119.343C16.6096 119.133 17.016 118.958 17.4363 118.818C17.8567 118.664 18.277 118.545 18.6974 118.461C19.1318 118.377 19.5591 118.335 19.9795 118.335C21.3667 118.335 22.4386 118.727 23.1952 119.512C23.9659 120.282 24.3512 121.382 24.3512 122.811V129.453H21.2826V128.402C21.1985 128.486 21.0514 128.598 20.8412 128.738C20.6451 128.879 20.3999 129.019 20.1056 129.159C19.8114 129.299 19.4751 129.418 19.0967 129.516C18.7324 129.614 18.3401 129.663 17.9197 129.663C17.4854 129.663 17.051 129.6 16.6166 129.474C16.1963 129.334 15.8179 129.124 15.4817 128.844C15.1454 128.563 14.8721 128.213 14.662 127.793C14.4658 127.358 14.3677 126.847 14.3677 126.258ZM17.4153 126.09C17.4153 126.37 17.5694 126.574 17.8777 126.7C18.2 126.812 18.5293 126.868 18.8655 126.868C19.2999 126.868 19.6642 126.798 19.9585 126.658C20.2667 126.504 20.519 126.335 20.7151 126.153C20.9113 125.971 21.0514 125.803 21.1355 125.649C21.2336 125.481 21.2826 125.376 21.2826 125.334H19.0547C18.4242 125.334 17.9898 125.397 17.7516 125.523C17.5274 125.635 17.4153 125.824 17.4153 126.09ZM26.6624 118.335H29.71V118.818C30.1163 118.594 30.5507 118.426 31.0131 118.314C31.4755 118.187 31.9519 118.124 32.4423 118.124C33.241 118.124 33.9836 118.279 34.6702 118.587C35.3708 118.881 35.9803 119.287 36.4988 119.806C37.0312 120.324 37.4446 120.934 37.7388 121.634C38.0471 122.321 38.2012 123.064 38.2012 123.862C38.2012 124.661 38.0471 125.411 37.7388 126.111C37.4446 126.812 37.0312 127.421 36.4988 127.94C35.9803 128.444 35.3708 128.851 34.6702 129.159C33.9836 129.453 33.241 129.6 32.4423 129.6C31.4334 129.6 30.5227 129.376 29.71 128.928V133.446H26.6624V118.335ZM29.9412 124.283C29.9412 124.745 30.0042 125.151 30.1303 125.502C30.2704 125.838 30.4526 126.125 30.6768 126.363C30.901 126.602 31.1672 126.784 31.4755 126.91C31.7837 127.022 32.106 127.078 32.4423 127.078C32.7646 127.078 33.0868 127.015 33.4091 126.889C33.7314 126.763 34.0186 126.574 34.2709 126.321C34.5371 126.069 34.7473 125.747 34.9014 125.355C35.0695 124.962 35.1536 124.493 35.1536 123.946C35.1536 123.512 35.0906 123.099 34.9644 122.706C34.8523 122.314 34.6842 121.971 34.46 121.676C34.2358 121.368 33.9556 121.123 33.6193 120.941C33.297 120.759 32.9257 120.668 32.5053 120.668C31.6506 120.668 31.0061 120.948 30.5717 121.508C30.1513 122.055 29.9412 122.79 29.9412 123.715V124.283ZM39.0391 120.857V118.335H40.4683V116.149H43.5159V118.335H46.4795V120.857H43.5159V124.724C43.5159 125.144 43.614 125.467 43.8102 125.691C44.0064 125.915 44.2516 126.083 44.5458 126.195C44.8541 126.293 45.1764 126.356 45.5126 126.384C45.8629 126.398 46.1852 126.405 46.4795 126.405V129.453C46.3113 129.453 46.0451 129.446 45.6808 129.432C45.3305 129.418 44.9311 129.369 44.4828 129.285C44.0344 129.187 43.572 129.047 43.0956 128.865C42.6332 128.668 42.2058 128.395 41.8135 128.045C41.4212 127.695 41.0989 127.253 40.8467 126.721C40.5945 126.174 40.4683 125.509 40.4683 124.724V120.857H39.0391ZM48.7886 118.335H51.8362V129.453H48.7886V118.335ZM48.7886 116.863V114.341H51.8362V116.863H48.7886ZM53.5095 118.335H56.7672L59.0372 124.955L61.2861 118.335H64.5439L60.6976 129.453H57.3768L53.5095 118.335ZM65.7015 123.904C65.7015 123.12 65.8486 122.384 66.1429 121.697C66.4371 121.011 66.8365 120.408 67.3409 119.89C67.8593 119.357 68.4689 118.944 69.1694 118.65C69.87 118.342 70.6267 118.187 71.4394 118.187C72.3361 118.187 73.1418 118.37 73.8564 118.734C74.5711 119.098 75.1666 119.589 75.643 120.205C76.1334 120.822 76.4977 121.529 76.7359 122.328C76.9741 123.113 77.0652 123.939 77.0091 124.808H68.7281C68.7281 125.116 68.7981 125.411 68.9383 125.691C69.0784 125.971 69.2675 126.216 69.5057 126.426C69.7579 126.637 70.0452 126.805 70.3675 126.931C70.7038 127.057 71.0541 127.12 71.4184 127.12C71.7406 127.12 72.0279 127.071 72.2801 126.973C72.5323 126.875 72.7635 126.742 72.9737 126.574C73.1979 126.405 73.4011 126.216 73.5832 126.006C73.7654 125.782 73.9475 125.558 74.1297 125.334L76.2735 126.805C75.9652 127.225 75.643 127.61 75.3067 127.961C74.9704 128.311 74.6061 128.612 74.2137 128.865C73.8214 129.117 73.4011 129.313 72.9527 129.453C72.5043 129.579 72.0139 129.642 71.4814 129.642C70.6687 129.642 69.9051 129.495 69.1905 129.201C68.4899 128.893 67.8803 128.479 67.3619 127.961C66.8435 127.442 66.4371 126.84 66.1429 126.153C65.8486 125.453 65.7015 124.703 65.7015 123.904ZM68.8752 122.538H73.8564C73.7443 122.132 73.5762 121.81 73.352 121.571C73.1418 121.333 72.9106 121.151 72.6584 121.025C72.4202 120.899 72.182 120.815 71.9438 120.773C71.7056 120.731 71.5094 120.71 71.3553 120.71C71.1872 120.71 70.984 120.731 70.7458 120.773C70.5216 120.815 70.2904 120.899 70.0522 121.025C69.828 121.151 69.6038 121.333 69.3796 121.571C69.1694 121.81 69.0013 122.132 68.8752 122.538ZM90.7425 114.635C91.3591 114.635 91.9406 114.755 92.487 114.993C93.0335 115.217 93.5099 115.532 93.9162 115.939C94.3226 116.345 94.6379 116.821 94.862 117.368C95.1002 117.9 95.2193 118.475 95.2193 119.091C95.2193 119.708 95.1002 120.289 94.862 120.836C94.6379 121.368 94.3226 121.838 93.9162 122.244C93.5099 122.65 93.0335 122.973 92.487 123.211C91.9406 123.435 91.3591 123.547 90.7425 123.547H87.6529V129.453H84.6053V114.635H90.7425ZM87.6529 120.541H90.7425C91.1489 120.541 91.4922 120.401 91.7724 120.121C92.0526 119.841 92.1928 119.498 92.1928 119.091C92.1928 118.685 92.0526 118.342 91.7724 118.061C91.4922 117.781 91.1489 117.641 90.7425 117.641H87.6529V120.541ZM102.618 118.187C103.417 118.187 104.16 118.342 104.846 118.65C105.547 118.944 106.156 119.35 106.675 119.869C107.207 120.373 107.621 120.976 107.915 121.676C108.223 122.363 108.377 123.106 108.377 123.904C108.377 124.703 108.223 125.453 107.915 126.153C107.621 126.854 107.207 127.463 106.675 127.982C106.156 128.486 105.547 128.893 104.846 129.201C104.16 129.495 103.417 129.642 102.618 129.642C101.82 129.642 101.07 129.495 100.369 129.201C99.6688 128.893 99.0523 128.486 98.5198 127.982C98.0014 127.463 97.588 126.854 97.2798 126.153C96.9855 125.453 96.8384 124.703 96.8384 123.904C96.8384 123.106 96.9855 122.363 97.2798 121.676C97.588 120.976 98.0014 120.373 98.5198 119.869C99.0523 119.35 99.6688 118.944 100.369 118.65C101.07 118.342 101.82 118.187 102.618 118.187ZM99.886 123.904C99.886 124.465 99.963 124.948 100.117 125.355C100.285 125.761 100.503 126.097 100.769 126.363C101.035 126.616 101.329 126.805 101.651 126.931C101.974 127.057 102.296 127.12 102.618 127.12C102.941 127.12 103.256 127.057 103.564 126.931C103.886 126.805 104.181 126.609 104.447 126.342C104.713 126.076 104.923 125.747 105.077 125.355C105.246 124.948 105.33 124.465 105.33 123.904C105.33 123.344 105.246 122.867 105.077 122.475C104.923 122.069 104.713 121.739 104.447 121.487C104.181 121.221 103.886 121.025 103.564 120.899C103.256 120.773 102.941 120.71 102.618 120.71C102.296 120.71 101.974 120.773 101.651 120.899C101.329 121.025 101.035 121.221 100.769 121.487C100.503 121.739 100.285 122.069 100.117 122.475C99.963 122.867 99.886 123.344 99.886 123.904ZM110.713 118.335H113.761V119.385C114.055 119.119 114.378 118.909 114.728 118.755C115.078 118.601 115.436 118.482 115.8 118.398C116.164 118.314 116.528 118.257 116.893 118.229C117.271 118.201 117.628 118.187 117.965 118.187V121.235C117.628 121.235 117.222 121.256 116.746 121.298C116.269 121.326 115.807 121.438 115.358 121.634C114.924 121.817 114.546 122.111 114.223 122.517C113.915 122.909 113.761 123.463 113.761 124.178V129.453H110.713V118.335ZM119.396 120.857V118.335H120.825V116.149H123.873V118.335H126.836V120.857H123.873V124.724C123.873 125.144 123.971 125.467 124.167 125.691C124.363 125.915 124.608 126.083 124.902 126.195C125.211 126.293 125.533 126.356 125.869 126.384C126.22 126.398 126.542 126.405 126.836 126.405V129.453C126.668 129.453 126.402 129.446 126.037 129.432C125.687 129.418 125.288 129.369 124.839 129.285C124.391 129.187 123.929 129.047 123.452 128.865C122.99 128.668 122.562 128.395 122.17 128.045C121.778 127.695 121.455 127.253 121.203 126.721C120.951 126.174 120.825 125.509 120.825 124.724V120.857H119.396ZM128.242 126.258C128.242 125.6 128.403 125.053 128.726 124.619C129.048 124.185 129.447 123.834 129.924 123.568C130.4 123.288 130.911 123.092 131.458 122.98C132.004 122.867 132.495 122.811 132.929 122.811H135.157C135.157 122.587 135.136 122.363 135.094 122.139C135.052 121.901 134.968 121.69 134.842 121.508C134.73 121.312 134.561 121.158 134.337 121.046C134.127 120.92 133.847 120.857 133.497 120.857C133.132 120.857 132.726 120.941 132.278 121.109C131.829 121.263 131.276 121.564 130.617 122.013L129.041 120.016C129.363 119.764 129.713 119.54 130.092 119.343C130.484 119.133 130.89 118.958 131.311 118.818C131.731 118.664 132.151 118.545 132.572 118.461C133.006 118.377 133.434 118.335 133.854 118.335C135.241 118.335 136.313 118.727 137.07 119.512C137.84 120.282 138.226 121.382 138.226 122.811V129.453H135.157V128.402C135.073 128.486 134.926 128.598 134.716 128.738C134.519 128.879 134.274 129.019 133.98 129.159C133.686 129.299 133.349 129.418 132.971 129.516C132.607 129.614 132.214 129.663 131.794 129.663C131.36 129.663 130.925 129.6 130.491 129.474C130.071 129.334 129.692 129.124 129.356 128.844C129.02 128.563 128.747 128.213 128.536 127.793C128.34 127.358 128.242 126.847 128.242 126.258ZM131.29 126.09C131.29 126.37 131.444 126.574 131.752 126.7C132.074 126.812 132.404 126.868 132.74 126.868C133.174 126.868 133.539 126.798 133.833 126.658C134.141 126.504 134.393 126.335 134.59 126.153C134.786 125.971 134.926 125.803 135.01 125.649C135.108 125.481 135.157 125.376 135.157 125.334H132.929C132.299 125.334 131.864 125.397 131.626 125.523C131.402 125.635 131.29 125.824 131.29 126.09ZM140.537 114.341H143.584V124.009C143.584 124.486 143.654 124.878 143.795 125.186C143.935 125.495 144.124 125.74 144.362 125.922C144.6 126.104 144.88 126.23 145.203 126.3C145.539 126.37 145.896 126.405 146.275 126.405V129.453C145.378 129.453 144.572 129.369 143.858 129.201C143.157 129.033 142.561 128.738 142.071 128.318C141.581 127.898 141.202 127.337 140.936 126.637C140.67 125.936 140.537 125.06 140.537 124.009V114.341ZM159.995 114.635C160.611 114.635 161.193 114.755 161.739 114.993C162.286 115.217 162.762 115.532 163.169 115.939C163.575 116.345 163.89 116.821 164.114 117.368C164.353 117.9 164.472 118.475 164.472 119.091C164.472 119.708 164.353 120.289 164.114 120.836C163.89 121.368 163.575 121.838 163.169 122.244C162.762 122.65 162.286 122.973 161.739 123.211C161.193 123.435 160.611 123.547 159.995 123.547H156.905V129.453H153.858V114.635H159.995ZM156.905 120.541H159.995C160.401 120.541 160.745 120.401 161.025 120.121C161.305 119.841 161.445 119.498 161.445 119.091C161.445 118.685 161.305 118.342 161.025 118.061C160.745 117.781 160.401 117.641 159.995 117.641H156.905V120.541ZM165.044 126.258C165.044 125.6 165.205 125.053 165.527 124.619C165.85 124.185 166.249 123.834 166.725 123.568C167.202 123.288 167.713 123.092 168.26 122.98C168.806 122.867 169.297 122.811 169.731 122.811H171.959C171.959 122.587 171.938 122.363 171.896 122.139C171.854 121.901 171.77 121.69 171.644 121.508C171.531 121.312 171.363 121.158 171.139 121.046C170.929 120.92 170.649 120.857 170.298 120.857C169.934 120.857 169.528 120.941 169.079 121.109C168.631 121.263 168.078 121.564 167.419 122.013L165.843 120.016C166.165 119.764 166.515 119.54 166.894 119.343C167.286 119.133 167.692 118.958 168.113 118.818C168.533 118.664 168.953 118.545 169.374 118.461C169.808 118.377 170.235 118.335 170.656 118.335C172.043 118.335 173.115 118.727 173.871 119.512C174.642 120.282 175.027 121.382 175.027 122.811V129.453H171.959V128.402C171.875 128.486 171.728 128.598 171.517 128.738C171.321 128.879 171.076 129.019 170.782 129.159C170.488 129.299 170.151 129.418 169.773 129.516C169.409 129.614 169.016 129.663 168.596 129.663C168.162 129.663 167.727 129.6 167.293 129.474C166.873 129.334 166.494 129.124 166.158 128.844C165.822 128.563 165.548 128.213 165.338 127.793C165.142 127.358 165.044 126.847 165.044 126.258ZM168.092 126.09C168.092 126.37 168.246 126.574 168.554 126.7C168.876 126.812 169.206 126.868 169.542 126.868C169.976 126.868 170.34 126.798 170.635 126.658C170.943 126.504 171.195 126.335 171.391 126.153C171.588 125.971 171.728 125.803 171.812 125.649C171.91 125.481 171.959 125.376 171.959 125.334H169.731C169.1 125.334 168.666 125.397 168.428 125.523C168.204 125.635 168.092 125.824 168.092 126.09ZM179.104 126.174C179.637 126.623 180.134 126.952 180.596 127.162C181.073 127.372 181.556 127.477 182.047 127.477C182.313 127.477 182.53 127.435 182.698 127.351C182.866 127.253 182.999 127.141 183.098 127.015C183.196 126.889 183.259 126.763 183.287 126.637C183.329 126.511 183.35 126.412 183.35 126.342C183.35 126.062 183.21 125.838 182.929 125.67C182.663 125.502 182.327 125.341 181.921 125.186C181.514 125.032 181.066 124.878 180.575 124.724C180.099 124.556 179.658 124.346 179.251 124.093C178.845 123.841 178.502 123.526 178.221 123.148C177.955 122.755 177.822 122.265 177.822 121.676C177.822 121.144 177.934 120.661 178.158 120.226C178.383 119.792 178.684 119.427 179.062 119.133C179.454 118.825 179.91 118.594 180.428 118.44C180.961 118.272 181.521 118.187 182.11 118.187C182.81 118.187 183.483 118.314 184.127 118.566C184.786 118.818 185.473 119.217 186.187 119.764L184.506 121.55C184.183 121.228 183.833 120.955 183.455 120.731C183.077 120.492 182.649 120.373 182.173 120.373C181.766 120.373 181.437 120.464 181.185 120.647C180.947 120.829 180.828 121.081 180.828 121.403C180.828 121.711 180.961 121.95 181.227 122.118C181.507 122.286 181.85 122.433 182.257 122.559C182.677 122.685 183.126 122.818 183.602 122.959C184.092 123.099 184.541 123.295 184.947 123.547C185.367 123.799 185.711 124.129 185.977 124.535C186.257 124.941 186.397 125.481 186.397 126.153C186.397 126.714 186.292 127.211 186.082 127.645C185.872 128.08 185.571 128.444 185.178 128.738C184.786 129.033 184.324 129.257 183.791 129.411C183.259 129.565 182.663 129.642 182.005 129.642C181.136 129.642 180.323 129.502 179.567 129.222C178.81 128.942 178.067 128.486 177.339 127.856L179.104 126.174ZM189.593 126.174C190.125 126.623 190.622 126.952 191.085 127.162C191.561 127.372 192.045 127.477 192.535 127.477C192.801 127.477 193.018 127.435 193.187 127.351C193.355 127.253 193.488 127.141 193.586 127.015C193.684 126.889 193.747 126.763 193.775 126.637C193.817 126.511 193.838 126.412 193.838 126.342C193.838 126.062 193.698 125.838 193.418 125.67C193.152 125.502 192.815 125.341 192.409 125.186C192.003 125.032 191.554 124.878 191.064 124.724C190.587 124.556 190.146 124.346 189.74 124.093C189.333 123.841 188.99 123.526 188.71 123.148C188.444 122.755 188.31 122.265 188.31 121.676C188.31 121.144 188.423 120.661 188.647 120.226C188.871 119.792 189.172 119.427 189.551 119.133C189.943 118.825 190.398 118.594 190.917 118.44C191.449 118.272 192.01 118.187 192.598 118.187C193.299 118.187 193.971 118.314 194.616 118.566C195.274 118.818 195.961 119.217 196.676 119.764L194.994 121.55C194.672 121.228 194.322 120.955 193.943 120.731C193.565 120.492 193.138 120.373 192.661 120.373C192.255 120.373 191.926 120.464 191.673 120.647C191.435 120.829 191.316 121.081 191.316 121.403C191.316 121.711 191.449 121.95 191.715 122.118C191.996 122.286 192.339 122.433 192.745 122.559C193.166 122.685 193.614 122.818 194.09 122.959C194.581 123.099 195.029 123.295 195.436 123.547C195.856 123.799 196.199 124.129 196.465 124.535C196.746 124.941 196.886 125.481 196.886 126.153C196.886 126.714 196.781 127.211 196.57 127.645C196.36 128.08 196.059 128.444 195.667 128.738C195.274 129.033 194.812 129.257 194.28 129.411C193.747 129.565 193.152 129.642 192.493 129.642C191.624 129.642 190.812 129.502 190.055 129.222C189.298 128.942 188.556 128.486 187.827 127.856L189.593 126.174ZM198.603 118.335H201.756L203.92 124.955L206.106 118.356L208.04 118.335L210.226 124.955L212.391 118.335H215.543L211.823 129.453H208.712L207.073 123.61L205.434 129.453H202.323L198.603 118.335ZM222.507 118.187C223.305 118.187 224.048 118.342 224.734 118.65C225.435 118.944 226.045 119.35 226.563 119.869C227.096 120.373 227.509 120.976 227.803 121.676C228.111 122.363 228.266 123.106 228.266 123.904C228.266 124.703 228.111 125.453 227.803 126.153C227.509 126.854 227.096 127.463 226.563 127.982C226.045 128.486 225.435 128.893 224.734 129.201C224.048 129.495 223.305 129.642 222.507 129.642C221.708 129.642 220.958 129.495 220.258 129.201C219.557 128.893 218.941 128.486 218.408 127.982C217.89 127.463 217.476 126.854 217.168 126.153C216.874 125.453 216.727 124.703 216.727 123.904C216.727 123.106 216.874 122.363 217.168 121.676C217.476 120.976 217.89 120.373 218.408 119.869C218.941 119.35 219.557 118.944 220.258 118.65C220.958 118.342 221.708 118.187 222.507 118.187ZM219.774 123.904C219.774 124.465 219.851 124.948 220.005 125.355C220.174 125.761 220.391 126.097 220.657 126.363C220.923 126.616 221.217 126.805 221.54 126.931C221.862 127.057 222.184 127.12 222.507 127.12C222.829 127.12 223.144 127.057 223.452 126.931C223.775 126.805 224.069 126.609 224.335 126.342C224.601 126.076 224.812 125.747 224.966 125.355C225.134 124.948 225.218 124.465 225.218 123.904C225.218 123.344 225.134 122.867 224.966 122.475C224.812 122.069 224.601 121.739 224.335 121.487C224.069 121.221 223.775 121.025 223.452 120.899C223.144 120.773 222.829 120.71 222.507 120.71C222.184 120.71 221.862 120.773 221.54 120.899C221.217 121.025 220.923 121.221 220.657 121.487C220.391 121.739 220.174 122.069 220.005 122.475C219.851 122.867 219.774 123.344 219.774 123.904ZM230.602 118.335H233.649V119.385C233.944 119.119 234.266 118.909 234.616 118.755C234.966 118.601 235.324 118.482 235.688 118.398C236.052 118.314 236.417 118.257 236.781 118.229C237.159 118.201 237.517 118.187 237.853 118.187V121.235C237.517 121.235 237.11 121.256 236.634 121.298C236.158 121.326 235.695 121.438 235.247 121.634C234.812 121.817 234.434 122.111 234.112 122.517C233.804 122.909 233.649 123.463 233.649 124.178V129.453H230.602V118.335ZM244.468 118.187C245.477 118.187 246.388 118.412 247.201 118.86V114.341H250.248V129.453H247.201V128.97C246.388 129.418 245.477 129.642 244.468 129.642C243.684 129.642 242.941 129.495 242.24 129.201C241.54 128.893 240.923 128.486 240.391 127.982C239.872 127.463 239.459 126.854 239.151 126.153C238.856 125.453 238.709 124.703 238.709 123.904C238.709 123.106 238.856 122.363 239.151 121.676C239.459 120.976 239.872 120.373 240.391 119.869C240.923 119.35 241.54 118.944 242.24 118.65C242.941 118.342 243.684 118.187 244.468 118.187ZM241.778 123.82C241.778 124.255 241.834 124.675 241.946 125.081C242.072 125.474 242.247 125.824 242.471 126.132C242.696 126.426 242.969 126.665 243.291 126.847C243.627 127.029 244.006 127.12 244.426 127.12C244.762 127.12 245.092 127.057 245.414 126.931C245.75 126.805 246.052 126.609 246.318 126.342C246.584 126.076 246.794 125.74 246.948 125.334C247.116 124.927 247.201 124.451 247.201 123.904C247.201 123.498 247.137 123.106 247.011 122.727C246.899 122.335 246.724 121.992 246.486 121.697C246.262 121.403 245.981 121.165 245.645 120.983C245.309 120.801 244.917 120.71 244.468 120.71C244.16 120.71 243.845 120.773 243.522 120.899C243.2 121.025 242.906 121.214 242.64 121.466C242.387 121.718 242.177 122.041 242.009 122.433C241.855 122.825 241.778 123.288 241.778 123.82ZM255.632 126.405V129.453H252.584V126.405H255.632ZM255.632 118.293V121.34H252.584V118.293H255.632Z" fill="white" style="fill:white;fill-opacity:1;"/>
<path d="M271.879 129.453V114.635H274.927V120.583H280.265V114.635H283.292V129.453H280.265V123.526H274.927V129.453H271.879ZM288.679 118.335V124.598C288.679 124.878 288.686 125.172 288.7 125.481C288.714 125.789 288.763 126.076 288.847 126.342C288.945 126.595 289.085 126.805 289.267 126.973C289.463 127.141 289.736 127.225 290.087 127.225C290.423 127.225 290.71 127.148 290.948 126.994C291.187 126.84 291.383 126.644 291.537 126.405C291.705 126.153 291.824 125.873 291.894 125.565C291.978 125.242 292.02 124.913 292.02 124.577V118.335H295.068V129.453H292.02V128.318C291.152 129.187 290.115 129.621 288.91 129.621C288.139 129.621 287.53 129.474 287.081 129.18C286.647 128.872 286.318 128.479 286.093 128.003C285.883 127.512 285.75 126.966 285.694 126.363C285.652 125.761 285.631 125.165 285.631 124.577V118.335H288.679ZM303.13 118.187C304.139 118.187 305.05 118.412 305.863 118.86V114.341H308.91V129.453H305.863V128.97C305.05 129.418 304.139 129.642 303.13 129.642C302.346 129.642 301.603 129.495 300.902 129.201C300.202 128.893 299.585 128.486 299.053 127.982C298.534 127.463 298.121 126.854 297.813 126.153C297.519 125.453 297.371 124.703 297.371 123.904C297.371 123.106 297.519 122.363 297.813 121.676C298.121 120.976 298.534 120.373 299.053 119.869C299.585 119.35 300.202 118.944 300.902 118.65C301.603 118.342 302.346 118.187 303.13 118.187ZM300.44 123.82C300.44 124.255 300.496 124.675 300.608 125.081C300.734 125.474 300.909 125.824 301.134 126.132C301.358 126.426 301.631 126.665 301.953 126.847C302.29 127.029 302.668 127.12 303.088 127.12C303.425 127.12 303.754 127.057 304.076 126.931C304.412 126.805 304.714 126.609 304.98 126.342C305.246 126.076 305.456 125.74 305.61 125.334C305.779 124.927 305.863 124.451 305.863 123.904C305.863 123.498 305.8 123.106 305.673 122.727C305.561 122.335 305.386 121.992 305.148 121.697C304.924 121.403 304.644 121.165 304.307 120.983C303.971 120.801 303.579 120.71 303.13 120.71C302.822 120.71 302.507 120.773 302.185 120.899C301.862 121.025 301.568 121.214 301.302 121.466C301.05 121.718 300.839 122.041 300.671 122.433C300.517 122.825 300.44 123.288 300.44 123.82ZM317.005 118.187C318.014 118.187 318.925 118.412 319.738 118.86V114.341H322.785V129.453H319.738V128.97C318.925 129.418 318.014 129.642 317.005 129.642C316.221 129.642 315.478 129.495 314.778 129.201C314.077 128.893 313.46 128.486 312.928 127.982C312.41 127.463 311.996 126.854 311.688 126.153C311.394 125.453 311.247 124.703 311.247 123.904C311.247 123.106 311.394 122.363 311.688 121.676C311.996 120.976 312.41 120.373 312.928 119.869C313.46 119.35 314.077 118.944 314.778 118.65C315.478 118.342 316.221 118.187 317.005 118.187ZM314.315 123.82C314.315 124.255 314.371 124.675 314.483 125.081C314.609 125.474 314.785 125.824 315.009 126.132C315.233 126.426 315.506 126.665 315.828 126.847C316.165 127.029 316.543 127.12 316.963 127.12C317.3 127.12 317.629 127.057 317.951 126.931C318.288 126.805 318.589 126.609 318.855 126.342C319.121 126.076 319.331 125.74 319.486 125.334C319.654 124.927 319.738 124.451 319.738 123.904C319.738 123.498 319.675 123.106 319.549 122.727C319.436 122.335 319.261 121.992 319.023 121.697C318.799 121.403 318.519 121.165 318.182 120.983C317.846 120.801 317.454 120.71 317.005 120.71C316.697 120.71 316.382 120.773 316.06 120.899C315.737 121.025 315.443 121.214 315.177 121.466C314.925 121.718 314.714 122.041 314.546 122.433C314.392 122.825 314.315 123.288 314.315 123.82ZM325.122 114.341H328.169V124.009C328.169 124.486 328.239 124.878 328.379 125.186C328.52 125.495 328.709 125.74 328.947 125.922C329.185 126.104 329.465 126.23 329.788 126.3C330.124 126.37 330.481 126.405 330.86 126.405V129.453C329.963 129.453 329.157 129.369 328.442 129.201C327.742 129.033 327.146 128.738 326.656 128.318C326.166 127.898 325.787 127.337 325.521 126.637C325.255 125.936 325.122 125.06 325.122 124.009V114.341ZM331.464 123.904C331.464 123.12 331.611 122.384 331.905 121.697C332.2 121.011 332.599 120.408 333.103 119.89C333.622 119.357 334.231 118.944 334.932 118.65C335.632 118.342 336.389 118.187 337.202 118.187C338.099 118.187 338.904 118.37 339.619 118.734C340.333 119.098 340.929 119.589 341.405 120.205C341.896 120.822 342.26 121.529 342.498 122.328C342.737 123.113 342.828 123.939 342.772 124.808H334.491C334.491 125.116 334.561 125.411 334.701 125.691C334.841 125.971 335.03 126.216 335.268 126.426C335.52 126.637 335.808 126.805 336.13 126.931C336.466 127.057 336.816 127.12 337.181 127.12C337.503 127.12 337.79 127.071 338.043 126.973C338.295 126.875 338.526 126.742 338.736 126.574C338.96 126.405 339.163 126.216 339.346 126.006C339.528 125.782 339.71 125.558 339.892 125.334L342.036 126.805C341.728 127.225 341.405 127.61 341.069 127.961C340.733 128.311 340.369 128.612 339.976 128.865C339.584 129.117 339.163 129.313 338.715 129.453C338.267 129.579 337.776 129.642 337.244 129.642C336.431 129.642 335.668 129.495 334.953 129.201C334.252 128.893 333.643 128.479 333.124 127.961C332.606 127.442 332.2 126.84 331.905 126.153C331.611 125.453 331.464 124.703 331.464 123.904ZM334.638 122.538H339.619C339.507 122.132 339.339 121.81 339.114 121.571C338.904 121.333 338.673 121.151 338.421 121.025C338.183 120.899 337.944 120.815 337.706 120.773C337.468 120.731 337.272 120.71 337.118 120.71C336.95 120.71 336.746 120.731 336.508 120.773C336.284 120.815 336.053 120.899 335.815 121.025C335.59 121.151 335.366 121.333 335.142 121.571C334.932 121.81 334.764 122.132 334.638 122.538ZM356.589 129.453H345.113V126.405H356.589V129.453ZM358.906 127.12C358.906 126.041 359.053 125.172 359.348 124.514C359.656 123.855 360.034 123.323 360.483 122.916C360.945 122.51 361.442 122.188 361.975 121.95C362.507 121.697 362.998 121.452 363.446 121.214C363.909 120.962 364.287 120.661 364.581 120.31C364.889 119.96 365.043 119.477 365.043 118.86C365.029 118.622 364.959 118.405 364.833 118.208C364.721 118.04 364.546 117.893 364.308 117.767C364.084 117.627 363.747 117.557 363.299 117.557C362.851 117.557 362.437 117.662 362.059 117.872C361.695 118.082 361.246 118.461 360.714 119.007L358.906 116.611C359.565 115.939 360.293 115.42 361.092 115.056C361.905 114.691 362.711 114.509 363.509 114.509C364.168 114.509 364.777 114.635 365.338 114.888C365.898 115.126 366.382 115.462 366.788 115.896C367.194 116.331 367.51 116.842 367.734 117.431C367.972 118.019 368.091 118.664 368.091 119.364C368.091 120.163 367.944 120.822 367.65 121.34C367.355 121.859 366.984 122.293 366.536 122.643C366.101 122.994 365.625 123.295 365.107 123.547C364.588 123.785 364.105 124.03 363.656 124.283C363.208 124.535 362.823 124.822 362.5 125.144C362.178 125.467 362.003 125.887 361.975 126.405H368.112V129.453H358.906V127.12ZM375.548 114.635H378.616V123.337H380.024V126.384H378.616V129.453H375.548V126.384H369.62V123.736L375.548 114.635ZM373.383 123.337H375.548V120.037L373.383 123.337ZM382.018 122.034C382.018 121.011 382.207 120.044 382.585 119.133C382.978 118.222 383.503 117.431 384.162 116.758C384.834 116.072 385.619 115.532 386.516 115.14C387.426 114.748 388.4 114.551 389.437 114.551C390.488 114.551 391.469 114.755 392.38 115.161C393.29 115.567 394.082 116.128 394.755 116.842L392.653 118.923C392.26 118.447 391.791 118.068 391.245 117.788C390.698 117.508 390.096 117.368 389.437 117.368C388.807 117.368 388.225 117.501 387.693 117.767C387.16 118.019 386.698 118.363 386.305 118.797C385.913 119.231 385.605 119.729 385.381 120.289C385.17 120.85 385.065 121.431 385.065 122.034C385.065 122.636 385.17 123.225 385.381 123.799C385.605 124.36 385.913 124.857 386.305 125.291C386.698 125.726 387.16 126.076 387.693 126.342C388.225 126.595 388.807 126.721 389.437 126.721C390.026 126.721 390.565 126.609 391.055 126.384C391.56 126.146 392.008 125.838 392.401 125.46V124.682H390.383V121.845H395.448V129.453H392.401V128.928C391.462 129.334 390.474 129.537 389.437 129.537C388.4 129.537 387.426 129.341 386.516 128.949C385.619 128.542 384.834 128.003 384.162 127.33C383.503 126.644 382.978 125.845 382.585 124.934C382.207 124.023 382.018 123.057 382.018 122.034Z" fill="white" style="fill:white;fill-opacity:1;"/>
</svg>
