<svg width="292" height="299" viewBox="0 0 292 299" fill="none" xmlns="http://www.w3.org/2000/svg">
<path d="M23.132 111.928C25.5868 111.928 27.5804 113.918 27.5804 116.377C27.5804 118.835 25.5901 120.825 23.132 120.825C20.6738 120.825 18.6836 118.835 18.6836 116.377C18.6836 113.918 20.6738 111.928 23.132 111.928Z" fill="#FFCB05" style="fill:#FFCB05;fill:color(display-p3 1.0000 0.7961 0.0196);fill-opacity:1;"/>
<path d="M23.132 91.1724C25.5868 91.1724 27.5804 93.1626 27.5804 95.6208C27.5804 98.0789 25.5901 100.069 23.132 100.069C20.6738 100.069 18.6836 98.0789 18.6836 95.6208C18.6836 93.1626 20.6738 91.1724 23.132 91.1724Z" fill="white" style="fill:white;fill-opacity:1;"/>
<path d="M23.132 70.4199C25.5868 70.4199 27.5804 72.4102 27.5804 74.8683C27.5804 77.3265 25.5901 79.3167 23.132 79.3167C20.6738 79.3167 18.6836 77.3265 18.6836 74.8683C18.6836 72.4102 20.6738 70.4199 23.132 70.4199Z" fill="#FFCB05" style="fill:#FFCB05;fill:color(display-p3 1.0000 0.7961 0.0196);fill-opacity:1;"/>
<path d="M23.132 49.6636C25.5868 49.6636 27.5804 51.6538 27.5804 54.112C27.5804 56.5701 25.5901 58.5604 23.132 58.5604C20.6738 58.5604 18.6836 56.5701 18.6836 54.112C18.6836 51.6538 20.6738 49.6636 23.132 49.6636Z" fill="white" style="fill:white;fill-opacity:1;"/>
<path d="M23.132 28.9111C25.5868 28.9111 27.5804 30.9014 27.5804 33.3595C27.5804 35.8177 25.5901 37.8079 23.132 37.8079C20.6738 37.8079 18.6836 35.8177 18.6836 33.3595C18.6836 30.9014 20.6738 28.9111 23.132 28.9111Z" fill="#1268B3" style="fill:#1268B3;fill:color(display-p3 0.0706 0.4078 0.7020);fill-opacity:1;"/>
<path d="M42.402 91.9163C44.8588 91.9163 46.8504 89.9247 46.8504 87.4679C46.8504 85.0111 44.8588 83.0195 42.402 83.0195C39.9452 83.0195 37.9536 85.0111 37.9536 87.4679C37.9536 89.9247 39.9452 91.9163 42.402 91.9163Z" fill="white" style="fill:white;fill-opacity:1;"/>
<path d="M42.402 71.1614C44.8588 71.1614 46.8504 69.1698 46.8504 66.713C46.8504 64.2563 44.8588 62.2646 42.402 62.2646C39.9452 62.2646 37.9536 64.2563 37.9536 66.713C37.9536 69.1698 39.9452 71.1614 42.402 71.1614Z" fill="#5FBB46" style="fill:#5FBB46;fill:color(display-p3 0.3725 0.7333 0.2745);fill-opacity:1;"/>
<path d="M42.402 50.4056C44.8588 50.4056 46.8504 48.414 46.8504 45.9572C46.8504 43.5004 44.8588 41.5088 42.402 41.5088C39.9452 41.5088 37.9536 43.5004 37.9536 45.9572C37.9536 48.414 39.9452 50.4056 42.402 50.4056Z" fill="white" style="fill:white;fill-opacity:1;"/>
<path d="M42.402 29.6526C44.8588 29.6526 46.8504 27.661 46.8504 25.2043C46.8504 22.7475 44.8588 20.7559 42.402 20.7559C39.9452 20.7559 37.9536 22.7475 37.9536 25.2043C37.9536 27.661 39.9452 29.6526 42.402 29.6526Z" fill="#5FBB46" style="fill:#5FBB46;fill:color(display-p3 0.3725 0.7333 0.2745);fill-opacity:1;"/>
<path d="M42.402 8.89679C44.8588 8.89679 46.8504 6.90517 46.8504 4.44839C46.8504 1.99161 44.8588 0 42.402 0C39.9452 0 37.9536 1.99161 37.9536 4.44839C37.9536 6.90517 39.9452 8.89679 42.402 8.89679Z" fill="white" style="fill:white;fill-opacity:1;"/>
<path d="M28.0444 187.57V298.024" stroke="#F0B031" style="stroke:#F0B031;stroke:color(display-p3 0.9412 0.6902 0.1922);stroke-opacity:1;" stroke-width="4.01236" stroke-miterlimit="10"/>
<path d="M30.5391 157.624C28.8787 155.625 25.8827 155.452 24.13 157.213C21.1732 160.181 17.1692 167.366 17.5752 184.417C17.606 185.05 27.3863 191.994 27.3863 191.994L38.5442 187.469C38.5442 187.469 36.9426 165.336 30.5363 157.624H30.5391Z" fill="#FAA61A" style="fill:#FAA61A;fill:color(display-p3 0.9804 0.6510 0.1020);fill-opacity:1;"/>
<path d="M12.261 162.835V192.347C12.261 197.367 16.3293 201.435 21.3497 201.435H34.8764C36.0132 201.435 36.7272 200.209 36.1644 199.221L15.033 162.101C14.2798 160.78 12.2638 161.315 12.2638 162.835H12.261Z" fill="#EBDE2B" style="fill:#EBDE2B;fill:color(display-p3 0.9216 0.8706 0.1686);fill-opacity:1;"/>
<path d="M42.4981 162.835V192.347C42.4981 197.367 38.4297 201.435 33.4094 201.435H19.8855C18.7487 201.435 18.0347 200.209 18.5975 199.221L39.7289 162.101C40.4821 160.78 42.4981 161.315 42.4981 162.835Z" fill="#F47B20" style="fill:#F47B20;fill:color(display-p3 0.9569 0.4824 0.1255);fill-opacity:1;"/>
<path d="M55.638 230.256C55.638 244.765 43.8809 256.531 29.377 256.539H29.3574C29.3574 249.282 32.3002 242.713 37.0546 237.956C41.8089 233.201 48.3664 230.259 55.6156 230.256H55.638Z" fill="#00A651" style="fill:#00A651;fill:color(display-p3 0.0000 0.6510 0.3176);fill-opacity:1;"/>
<path d="M55.6384 230.256C55.6384 244.765 43.8813 256.531 29.3774 256.539L55.616 230.256H55.6384Z" fill="#00703D" style="fill:#00703D;fill:color(display-p3 0.0000 0.4392 0.2392);fill-opacity:1;"/>
<path d="M0 219.4C0 233.91 11.7571 245.675 26.261 245.684H26.2806C26.2806 238.426 23.3378 231.857 18.5834 227.1C13.8291 222.346 7.27153 219.403 0.0223998 219.4H0Z" fill="#00A651" style="fill:#00A651;fill:color(display-p3 0.0000 0.6510 0.3176);fill-opacity:1;"/>
<path d="M0 219.4C0 233.91 11.7571 245.675 26.261 245.684L0.0223998 219.4H0Z" fill="#00703D" style="fill:#00703D;fill:color(display-p3 0.0000 0.4392 0.2392);fill-opacity:1;"/>
<path d="M272.719 276.691C277.493 281.464 284.067 284.441 291.337 284.514V271.562C287.646 271.49 284.306 269.965 281.876 267.534C279.445 265.104 277.92 261.767 277.848 258.073H264.896C264.969 265.343 267.943 271.914 272.719 276.691Z" fill="white" style="fill:white;fill-opacity:1;"/>
<path d="M278.389 297.456H291.334V284.51C287.791 284.583 284.59 286.048 282.256 288.381C279.923 290.714 278.458 293.915 278.386 297.459L278.389 297.456Z" fill="#1268B3" style="fill:#1268B3;fill:color(display-p3 0.0706 0.4078 0.7020);fill-opacity:1;"/>
<path d="M256.529 278.842C251.756 274.068 245.181 271.091 237.912 271.021V283.973C241.603 284.045 244.942 285.57 247.373 288.001C249.804 290.432 251.329 293.768 251.401 297.462H264.353C264.28 290.193 261.306 283.621 256.529 278.845V278.842Z" fill="#5FBB46" style="fill:#5FBB46;fill:color(display-p3 0.3725 0.7333 0.2745);fill-opacity:1;"/>
<path d="M227.912 261.016C230.403 258.526 233.843 256.985 237.644 256.985H237.915V271.019H223.881V270.748C223.881 266.947 225.422 263.507 227.912 261.016Z" fill="#FFCB05" style="fill:#FFCB05;fill:color(display-p3 1.0000 0.7961 0.0196);fill-opacity:1;"/>
<path d="M210.389 271.018H197.437C197.365 274.71 195.84 278.046 193.409 280.479C190.979 282.91 187.643 284.435 183.948 284.507V297.459C191.218 297.387 197.793 294.412 202.566 289.636C207.339 284.863 210.314 278.288 210.389 271.018Z" fill="#1268B3" style="fill:#1268B3;fill:color(display-p3 0.0706 0.4078 0.7020);fill-opacity:1;"/>
<path d="M224.422 270.748V271.019H210.389V256.985H210.66C214.461 256.985 217.901 258.526 220.391 261.016C222.882 263.507 224.422 266.947 224.422 270.748Z" fill="white" style="fill:white;fill-opacity:1;"/>
<path d="M183.407 257.256V256.985H197.441V271.019H197.167C193.365 271.019 189.925 269.478 187.438 266.988C184.948 264.497 183.407 261.057 183.407 257.256Z" fill="#1268B3" style="fill:#1268B3;fill:color(display-p3 0.0706 0.4078 0.7020);fill-opacity:1;"/>
<path d="M210.933 297.456H223.878V284.51C220.335 284.583 217.134 286.048 214.801 288.381C212.468 290.714 211.002 293.915 210.933 297.459V297.456Z" fill="white" style="fill:white;fill-opacity:1;"/>
<path d="M170.459 297.73V298H156.425V297.73C156.425 294.079 154.944 290.774 152.552 288.381C150.162 285.988 146.854 284.511 143.203 284.511C139.553 284.511 136.248 285.992 133.855 288.381C131.465 290.774 129.984 294.079 129.984 297.73V298H115.951V297.73C115.951 290.205 119.001 283.388 123.935 278.458C128.865 273.524 135.679 270.474 143.207 270.474C150.734 270.474 157.545 273.524 162.475 278.458C167.409 283.388 170.459 290.202 170.459 297.73Z" fill="white" style="fill:white;fill-opacity:1;"/>
<path d="M169.915 244.034H156.963C156.891 247.725 155.366 251.064 152.935 253.495C150.504 255.926 147.168 257.451 143.477 257.523V270.475C150.743 270.402 157.318 267.428 162.091 262.651C166.865 257.878 169.842 251.303 169.915 244.034Z" fill="#1268B3" style="fill:#1268B3;fill:color(display-p3 0.0706 0.4078 0.7020);fill-opacity:1;"/>
<path d="M115.964 297.73V298H101.93V297.73C101.93 294.079 100.449 290.774 98.0566 288.382C95.6669 285.989 92.359 284.511 88.7084 284.511H88.438V270.478H88.7084C96.2329 270.478 103.047 273.528 107.98 278.461C112.911 283.391 115.961 290.205 115.961 297.733L115.964 297.73Z" fill="#1268B3" style="fill:#1268B3;fill:color(display-p3 0.0706 0.4078 0.7020);fill-opacity:1;"/>
<path d="M143.477 257.256V257.526H129.444V243.493H129.714C133.516 243.493 136.955 245.033 139.446 247.524C141.936 250.014 143.477 253.454 143.477 257.256Z" fill="#1268B3" style="fill:#1268B3;fill:color(display-p3 0.0706 0.4078 0.7020);fill-opacity:1;"/>
<path d="M264.753 257.882V258.152H250.719V244.119H250.99C254.791 244.119 258.231 245.659 260.722 248.15C263.212 250.64 264.753 254.08 264.753 257.882Z" fill="#1268B3" style="fill:#1268B3;fill:color(display-p3 0.0706 0.4078 0.7020);fill-opacity:1;"/>
<path d="M75.4927 297.456H88.4412V284.51C84.8975 284.583 81.6965 286.048 79.3634 288.381C77.0303 290.714 75.565 293.915 75.4958 297.459L75.4927 297.456Z" fill="#1268B3" style="fill:#1268B3;fill:color(display-p3 0.0706 0.4078 0.7020);fill-opacity:1;"/>
<path d="M69.8232 262.651C74.5963 267.425 81.1712 270.402 88.441 270.475V257.523C84.7464 257.451 81.4102 255.926 78.9796 253.495C76.549 251.064 75.024 247.728 74.9516 244.034H62C62.0723 251.303 65.0469 257.878 69.8232 262.651Z" fill="#FFCB05" style="fill:#FFCB05;fill:color(display-p3 1.0000 0.7961 0.0196);fill-opacity:1;"/>
</svg>
